ISO-10303-21;
HEADER;
FILE_DESCRIPTION(('FreeCAD Model'),'2;1');
FILE_NAME('Open CASCADE Shape Model','2026-05-11T13:50:30',('Author'),(
    ''),'Open CASCADE STEP processor 7.8','FreeCAD','Unknown');
FILE_SCHEMA(('AUTOMOTIVE_DESIGN { 1 0 10303 214 1 1 1 1 }'));
ENDSEC;
DATA;
#1 = APPLICATION_PROTOCOL_DEFINITION('international standard',
  'automotive_design',2000,#2);
#2 = APPLICATION_CONTEXT(
  'core data for automotive mechanical design processes');
#3 = SHAPE_DEFINITION_REPRESENTATION(#4,#10);
#4 = PRODUCT_DEFINITION_SHAPE('','',#5);
#5 = PRODUCT_DEFINITION('design','',#6,#9);
#6 = PRODUCT_DEFINITION_FORMATION('','',#7);
#7 = PRODUCT('CamCaseLid','CamCaseLid','',(#8));
#8 = PRODUCT_CONTEXT('',#2,'mechanical');
#9 = PRODUCT_DEFINITION_CONTEXT('part definition',#2,'design');
#10 = ADVANCED_BREP_SHAPE_REPRESENTATION('',(#11,#15),#1267);
#11 = AXIS2_PLACEMENT_3D('',#12,#13,#14);
#12 = CARTESIAN_POINT('',(0.,0.,0.));
#13 = DIRECTION('',(0.,0.,1.));
#14 = DIRECTION('',(1.,0.,-0.));
#15 = MANIFOLD_SOLID_BREP('',#16);
#16 = CLOSED_SHELL('',(#17,#59,#90,#355,#387,#411,#436,#461,#521,#553,
    #577,#609,#626,#658,#682,#714,#731,#763,#787,#819,#836,#868,#892,
    #924,#941,#966,#991,#1016,#1041,#1058,#1075,#1092,#1109,#1140,#1164,
    #1214,#1231,#1243,#1255));
#17 = ADVANCED_FACE('',(#18),#54,.T.);
#18 = FACE_BOUND('',#19,.T.);
#19 = EDGE_LOOP('',(#20,#31,#39,#48));
#20 = ORIENTED_EDGE('',*,*,#21,.T.);
#21 = EDGE_CURVE('',#22,#24,#26,.T.);
#22 = VERTEX_POINT('',#23);
#23 = CARTESIAN_POINT('',(15.,40.75,1.5));
#24 = VERTEX_POINT('',#25);
#25 = CARTESIAN_POINT('',(16.5,42.25,1.5));
#26 = CIRCLE('',#27,1.5);
#27 = AXIS2_PLACEMENT_3D('',#28,#29,#30);
#28 = CARTESIAN_POINT('',(16.5,40.75,1.5));
#29 = DIRECTION('',(0.,0.,-1.));
#30 = DIRECTION('',(-0.707106781187,0.707106781187,0.));
#31 = ORIENTED_EDGE('',*,*,#32,.T.);
#32 = EDGE_CURVE('',#24,#33,#35,.T.);
#33 = VERTEX_POINT('',#34);
#34 = CARTESIAN_POINT('',(16.5,42.25,0.));
#35 = LINE('',#36,#37);
#36 = CARTESIAN_POINT('',(16.5,42.25,0.));
#37 = VECTOR('',#38,1.);
#38 = DIRECTION('',(0.,0.,-1.));
#39 = ORIENTED_EDGE('',*,*,#40,.T.);
#40 = EDGE_CURVE('',#33,#41,#43,.T.);
#41 = VERTEX_POINT('',#42);
#42 = CARTESIAN_POINT('',(15.,40.75,0.));
#43 = CIRCLE('',#44,1.5);
#44 = AXIS2_PLACEMENT_3D('',#45,#46,#47);
#45 = CARTESIAN_POINT('',(16.5,40.75,0.));
#46 = DIRECTION('',(0.,0.,1.));
#47 = DIRECTION('',(-0.707106781187,0.707106781187,0.));
#48 = ORIENTED_EDGE('',*,*,#49,.T.);
#49 = EDGE_CURVE('',#41,#22,#50,.T.);
#50 = LINE('',#51,#52);
#51 = CARTESIAN_POINT('',(15.,40.75,0.));
#52 = VECTOR('',#53,1.);
#53 = DIRECTION('',(0.,0.,1.));
#54 = CYLINDRICAL_SURFACE('',#55,1.5);
#55 = AXIS2_PLACEMENT_3D('',#56,#57,#58);
#56 = CARTESIAN_POINT('',(16.5,40.75,0.));
#57 = DIRECTION('',(0.,0.,1.));
#58 = DIRECTION('',(-0.707106781187,0.707106781187,0.));
#59 = ADVANCED_FACE('',(#60),#85,.T.);
#60 = FACE_BOUND('',#61,.T.);
#61 = EDGE_LOOP('',(#62,#63,#71,#79));
#62 = ORIENTED_EDGE('',*,*,#49,.F.);
#63 = ORIENTED_EDGE('',*,*,#64,.T.);
#64 = EDGE_CURVE('',#41,#65,#67,.T.);
#65 = VERTEX_POINT('',#66);
#66 = CARTESIAN_POINT('',(15.,16.5,0.));
#67 = LINE('',#68,#69);
#68 = CARTESIAN_POINT('',(15.,42.25,0.));
#69 = VECTOR('',#70,1.);
#70 = DIRECTION('',(0.,-1.,0.));
#71 = ORIENTED_EDGE('',*,*,#72,.F.);
#72 = EDGE_CURVE('',#73,#65,#75,.T.);
#73 = VERTEX_POINT('',#74);
#74 = CARTESIAN_POINT('',(15.,16.5,1.5));
#75 = LINE('',#76,#77);
#76 = CARTESIAN_POINT('',(15.,16.5,0.));
#77 = VECTOR('',#78,1.);
#78 = DIRECTION('',(0.,0.,-1.));
#79 = ORIENTED_EDGE('',*,*,#80,.F.);
#80 = EDGE_CURVE('',#22,#73,#81,.T.);
#81 = LINE('',#82,#83);
#82 = CARTESIAN_POINT('',(15.,42.25,1.5));
#83 = VECTOR('',#84,1.);
#84 = DIRECTION('',(0.,-1.,0.));
#85 = PLANE('',#86);
#86 = AXIS2_PLACEMENT_3D('',#87,#88,#89);
#87 = CARTESIAN_POINT('',(15.,42.25,0.));
#88 = DIRECTION('',(-1.,0.,0.));
#89 = DIRECTION('',(0.,-1.,0.));
#90 = ADVANCED_FACE('',(#91,#144),#350,.F.);
#91 = FACE_BOUND('',#92,.T.);
#92 = EDGE_LOOP('',(#93,#94,#102,#111,#119,#128,#136,#143));
#93 = ORIENTED_EDGE('',*,*,#40,.F.);
#94 = ORIENTED_EDGE('',*,*,#95,.F.);
#95 = EDGE_CURVE('',#96,#33,#98,.T.);
#96 = VERTEX_POINT('',#97);
#97 = CARTESIAN_POINT('',(42.5,42.25,0.));
#98 = LINE('',#99,#100);
#99 = CARTESIAN_POINT('',(44.,42.25,0.));
#100 = VECTOR('',#101,1.);
#101 = DIRECTION('',(-1.,0.,0.));
#102 = ORIENTED_EDGE('',*,*,#103,.F.);
#103 = EDGE_CURVE('',#104,#96,#106,.T.);
#104 = VERTEX_POINT('',#105);
#105 = CARTESIAN_POINT('',(44.,40.75,0.));
#106 = CIRCLE('',#107,1.5);
#107 = AXIS2_PLACEMENT_3D('',#108,#109,#110);
#108 = CARTESIAN_POINT('',(42.5,40.75,0.));
#109 = DIRECTION('',(0.,0.,1.));
#110 = DIRECTION('',(0.707106781187,0.707106781187,-0.));
#111 = ORIENTED_EDGE('',*,*,#112,.F.);
#112 = EDGE_CURVE('',#113,#104,#115,.T.);
#113 = VERTEX_POINT('',#114);
#114 = CARTESIAN_POINT('',(44.,16.5,0.));
#115 = LINE('',#116,#117);
#116 = CARTESIAN_POINT('',(44.,15.,0.));
#117 = VECTOR('',#118,1.);
#118 = DIRECTION('',(0.,1.,0.));
#119 = ORIENTED_EDGE('',*,*,#120,.F.);
#120 = EDGE_CURVE('',#121,#113,#123,.T.);
#121 = VERTEX_POINT('',#122);
#122 = CARTESIAN_POINT('',(42.5,15.,0.));
#123 = CIRCLE('',#124,1.5);
#124 = AXIS2_PLACEMENT_3D('',#125,#126,#127);
#125 = CARTESIAN_POINT('',(42.5,16.5,0.));
#126 = DIRECTION('',(0.,0.,1.));
#127 = DIRECTION('',(0.707106781187,-0.707106781187,0.));
#128 = ORIENTED_EDGE('',*,*,#129,.F.);
#129 = EDGE_CURVE('',#130,#121,#132,.T.);
#130 = VERTEX_POINT('',#131);
#131 = CARTESIAN_POINT('',(16.5,15.,0.));
#132 = LINE('',#133,#134);
#133 = CARTESIAN_POINT('',(15.,15.,0.));
#134 = VECTOR('',#135,1.);
#135 = DIRECTION('',(1.,0.,0.));
#136 = ORIENTED_EDGE('',*,*,#137,.F.);
#137 = EDGE_CURVE('',#65,#130,#138,.T.);
#138 = CIRCLE('',#139,1.5);
#139 = AXIS2_PLACEMENT_3D('',#140,#141,#142);
#140 = CARTESIAN_POINT('',(16.5,16.5,0.));
#141 = DIRECTION('',(0.,0.,1.));
#142 = DIRECTION('',(-0.707106781187,-0.707106781187,0.));
#143 = ORIENTED_EDGE('',*,*,#64,.F.);
#144 = FACE_BOUND('',#145,.T.);
#145 = EDGE_LOOP('',(#146,#157,#165,#174,#182,#191,#199,#208,#216,#225,
    #233,#242,#250,#259,#267,#276,#284,#293,#301,#310,#318,#327,#335,
    #344));
#146 = ORIENTED_EDGE('',*,*,#147,.F.);
#147 = EDGE_CURVE('',#148,#150,#152,.T.);
#148 = VERTEX_POINT('',#149);
#149 = CARTESIAN_POINT('',(37.9,22.6,0.));
#150 = VERTEX_POINT('',#151);
#151 = CARTESIAN_POINT('',(36.4,21.1,0.));
#152 = CIRCLE('',#153,1.5);
#153 = AXIS2_PLACEMENT_3D('',#154,#155,#156);
#154 = CARTESIAN_POINT('',(37.9,21.1,0.));
#155 = DIRECTION('',(0.,0.,1.));
#156 = DIRECTION('',(-0.707106781187,0.707106781187,0.));
#157 = ORIENTED_EDGE('',*,*,#158,.F.);
#158 = EDGE_CURVE('',#159,#148,#161,.T.);
#159 = VERTEX_POINT('',#160);
#160 = CARTESIAN_POINT('',(39.9,22.6,0.));
#161 = LINE('',#162,#163);
#162 = CARTESIAN_POINT('',(36.,22.6,0.));
#163 = VECTOR('',#164,1.);
#164 = DIRECTION('',(-1.,0.,0.));
#165 = ORIENTED_EDGE('',*,*,#166,.F.);
#166 = EDGE_CURVE('',#167,#159,#169,.T.);
#167 = VERTEX_POINT('',#168);
#168 = CARTESIAN_POINT('',(41.4,24.1,0.));
#169 = CIRCLE('',#170,1.5);
#170 = AXIS2_PLACEMENT_3D('',#171,#172,#173);
#171 = CARTESIAN_POINT('',(39.9,24.1,0.));
#172 = DIRECTION('',(0.,0.,-1.));
#173 = DIRECTION('',(0.707106781187,-0.707106781187,0.));
#174 = ORIENTED_EDGE('',*,*,#175,.F.);
#175 = EDGE_CURVE('',#176,#167,#178,.T.);
#176 = VERTEX_POINT('',#177);
#177 = CARTESIAN_POINT('',(41.4,33.15,0.));
#178 = LINE('',#179,#180);
#179 = CARTESIAN_POINT('',(41.4,32.1875,0.));
#180 = VECTOR('',#181,1.);
#181 = DIRECTION('',(0.,-1.,0.));
#182 = ORIENTED_EDGE('',*,*,#183,.F.);
#183 = EDGE_CURVE('',#184,#176,#186,.T.);
#184 = VERTEX_POINT('',#185);
#185 = CARTESIAN_POINT('',(39.9,34.65,0.));
#186 = CIRCLE('',#187,1.5);
#187 = AXIS2_PLACEMENT_3D('',#188,#189,#190);
#188 = CARTESIAN_POINT('',(39.9,33.15,0.));
#189 = DIRECTION('',(0.,0.,-1.));
#190 = DIRECTION('',(0.707106781187,0.707106781187,0.));
#191 = ORIENTED_EDGE('',*,*,#192,.F.);
#192 = EDGE_CURVE('',#193,#184,#195,.T.);
#193 = VERTEX_POINT('',#194);
#194 = CARTESIAN_POINT('',(37.900000566244,34.65,0.));
#195 = LINE('',#196,#197);
#196 = CARTESIAN_POINT('',(33.750000283122,34.65,0.));
#197 = VECTOR('',#198,1.);
#198 = DIRECTION('',(1.,0.,0.));
#199 = ORIENTED_EDGE('',*,*,#200,.F.);
#200 = EDGE_CURVE('',#201,#193,#203,.T.);
#201 = VERTEX_POINT('',#202);
#202 = CARTESIAN_POINT('',(36.400000566244,36.15,0.));
#203 = CIRCLE('',#204,1.5);
#204 = AXIS2_PLACEMENT_3D('',#205,#206,#207);
#205 = CARTESIAN_POINT('',(37.900000566244,36.15,0.));
#206 = DIRECTION('',(0.,0.,1.));
#207 = DIRECTION('',(-0.707106781187,-0.707106781187,0.));
#208 = ORIENTED_EDGE('',*,*,#209,.F.);
#209 = EDGE_CURVE('',#210,#201,#212,.T.);
#210 = VERTEX_POINT('',#211);
#211 = CARTESIAN_POINT('',(36.400000566244,38.15,0.));
#212 = LINE('',#213,#214);
#213 = CARTESIAN_POINT('',(36.400000566244,34.6875,0.));
#214 = VECTOR('',#215,1.);
#215 = DIRECTION('',(0.,-1.,0.));
#216 = ORIENTED_EDGE('',*,*,#217,.F.);
#217 = EDGE_CURVE('',#218,#210,#220,.T.);
#218 = VERTEX_POINT('',#219);
#219 = CARTESIAN_POINT('',(34.900000566244,39.65,0.));
#220 = CIRCLE('',#221,1.5);
#221 = AXIS2_PLACEMENT_3D('',#222,#223,#224);
#222 = CARTESIAN_POINT('',(34.900000566244,38.15,0.));
#223 = DIRECTION('',(0.,0.,-1.));
#224 = DIRECTION('',(0.707106781187,0.707106781187,0.));
#225 = ORIENTED_EDGE('',*,*,#226,.F.);
#226 = EDGE_CURVE('',#227,#218,#229,.T.);
#227 = VERTEX_POINT('',#228);
#228 = CARTESIAN_POINT('',(24.1,39.65,0.));
#229 = LINE('',#230,#231);
#230 = CARTESIAN_POINT('',(25.5,39.65,0.));
#231 = VECTOR('',#232,1.);
#232 = DIRECTION('',(1.,0.,0.));
#233 = ORIENTED_EDGE('',*,*,#234,.F.);
#234 = EDGE_CURVE('',#235,#227,#237,.T.);
#235 = VERTEX_POINT('',#236);
#236 = CARTESIAN_POINT('',(22.6,38.15,0.));
#237 = CIRCLE('',#238,1.5);
#238 = AXIS2_PLACEMENT_3D('',#239,#240,#241);
#239 = CARTESIAN_POINT('',(24.1,38.15,0.));
#240 = DIRECTION('',(0.,0.,-1.));
#241 = DIRECTION('',(-0.707106781187,0.707106781187,0.));
#242 = ORIENTED_EDGE('',*,*,#243,.F.);
#243 = EDGE_CURVE('',#244,#235,#246,.T.);
#244 = VERTEX_POINT('',#245);
#245 = CARTESIAN_POINT('',(22.6,36.15,0.));
#246 = LINE('',#247,#248);
#247 = CARTESIAN_POINT('',(22.6,32.1875,0.));
#248 = VECTOR('',#249,1.);
#249 = DIRECTION('',(0.,1.,0.));
#250 = ORIENTED_EDGE('',*,*,#251,.F.);
#251 = EDGE_CURVE('',#252,#244,#254,.T.);
#252 = VERTEX_POINT('',#253);
#253 = CARTESIAN_POINT('',(21.1,34.65,0.));
#254 = CIRCLE('',#255,1.5);
#255 = AXIS2_PLACEMENT_3D('',#256,#257,#258);
#256 = CARTESIAN_POINT('',(21.1,36.15,0.));
#257 = DIRECTION('',(0.,0.,1.));
#258 = DIRECTION('',(0.707106781187,-0.707106781187,0.));
#259 = ORIENTED_EDGE('',*,*,#260,.F.);
#260 = EDGE_CURVE('',#261,#252,#263,.T.);
#261 = VERTEX_POINT('',#262);
#262 = CARTESIAN_POINT('',(19.1,34.65,0.));
#263 = LINE('',#264,#265);
#264 = CARTESIAN_POINT('',(23.,34.65,0.));
#265 = VECTOR('',#266,1.);
#266 = DIRECTION('',(1.,0.,0.));
#267 = ORIENTED_EDGE('',*,*,#268,.F.);
#268 = EDGE_CURVE('',#269,#261,#271,.T.);
#269 = VERTEX_POINT('',#270);
#270 = CARTESIAN_POINT('',(17.6,33.15,0.));
#271 = CIRCLE('',#272,1.5);
#272 = AXIS2_PLACEMENT_3D('',#273,#274,#275);
#273 = CARTESIAN_POINT('',(19.1,33.15,0.));
#274 = DIRECTION('',(0.,0.,-1.));
#275 = DIRECTION('',(-0.707106781187,0.707106781187,0.));
#276 = ORIENTED_EDGE('',*,*,#277,.F.);
#277 = EDGE_CURVE('',#278,#269,#280,.T.);
#278 = VERTEX_POINT('',#279);
#279 = CARTESIAN_POINT('',(17.6,24.1,0.));
#280 = LINE('',#281,#282);
#281 = CARTESIAN_POINT('',(17.6,25.0625,0.));
#282 = VECTOR('',#283,1.);
#283 = DIRECTION('',(0.,1.,0.));
#284 = ORIENTED_EDGE('',*,*,#285,.F.);
#285 = EDGE_CURVE('',#286,#278,#288,.T.);
#286 = VERTEX_POINT('',#287);
#287 = CARTESIAN_POINT('',(19.1,22.6,0.));
#288 = CIRCLE('',#289,1.5);
#289 = AXIS2_PLACEMENT_3D('',#290,#291,#292);
#290 = CARTESIAN_POINT('',(19.1,24.1,0.));
#291 = DIRECTION('',(0.,0.,-1.));
#292 = DIRECTION('',(-0.707106781187,-0.707106781187,-0.));
#293 = ORIENTED_EDGE('',*,*,#294,.F.);
#294 = EDGE_CURVE('',#295,#286,#297,.T.);
#295 = VERTEX_POINT('',#296);
#296 = CARTESIAN_POINT('',(21.1,22.6,0.));
#297 = LINE('',#298,#299);
#298 = CARTESIAN_POINT('',(25.5,22.6,0.));
#299 = VECTOR('',#300,1.);
#300 = DIRECTION('',(-1.,0.,0.));
#301 = ORIENTED_EDGE('',*,*,#302,.F.);
#302 = EDGE_CURVE('',#303,#295,#305,.T.);
#303 = VERTEX_POINT('',#304);
#304 = CARTESIAN_POINT('',(22.6,21.1,0.));
#305 = CIRCLE('',#306,1.5);
#306 = AXIS2_PLACEMENT_3D('',#307,#308,#309);
#307 = CARTESIAN_POINT('',(21.1,21.1,0.));
#308 = DIRECTION('',(0.,0.,1.));
#309 = DIRECTION('',(0.707106781187,0.707106781187,-0.));
#310 = ORIENTED_EDGE('',*,*,#311,.F.);
#311 = EDGE_CURVE('',#312,#303,#314,.T.);
#312 = VERTEX_POINT('',#313);
#313 = CARTESIAN_POINT('',(22.6,19.1,0.));
#314 = LINE('',#315,#316);
#315 = CARTESIAN_POINT('',(22.6,22.5625,0.));
#316 = VECTOR('',#317,1.);
#317 = DIRECTION('',(0.,1.,0.));
#318 = ORIENTED_EDGE('',*,*,#319,.F.);
#319 = EDGE_CURVE('',#320,#312,#322,.T.);
#320 = VERTEX_POINT('',#321);
#321 = CARTESIAN_POINT('',(24.1,17.6,0.));
#322 = CIRCLE('',#323,1.5);
#323 = AXIS2_PLACEMENT_3D('',#324,#325,#326);
#324 = CARTESIAN_POINT('',(24.1,19.1,0.));
#325 = DIRECTION('',(0.,0.,-1.));
#326 = DIRECTION('',(-0.707106781187,-0.707106781187,-0.));
#327 = ORIENTED_EDGE('',*,*,#328,.F.);
#328 = EDGE_CURVE('',#329,#320,#331,.T.);
#329 = VERTEX_POINT('',#330);
#330 = CARTESIAN_POINT('',(34.9,17.6,0.));
#331 = LINE('',#332,#333);
#332 = CARTESIAN_POINT('',(33.5,17.6,0.));
#333 = VECTOR('',#334,1.);
#334 = DIRECTION('',(-1.,0.,0.));
#335 = ORIENTED_EDGE('',*,*,#336,.F.);
#336 = EDGE_CURVE('',#337,#329,#339,.T.);
#337 = VERTEX_POINT('',#338);
#338 = CARTESIAN_POINT('',(36.4,19.1,0.));
#339 = CIRCLE('',#340,1.5);
#340 = AXIS2_PLACEMENT_3D('',#341,#342,#343);
#341 = CARTESIAN_POINT('',(34.9,19.1,0.));
#342 = DIRECTION('',(0.,0.,-1.));
#343 = DIRECTION('',(0.707106781187,-0.707106781187,0.));
#344 = ORIENTED_EDGE('',*,*,#345,.F.);
#345 = EDGE_CURVE('',#150,#337,#346,.T.);
#346 = LINE('',#347,#348);
#347 = CARTESIAN_POINT('',(36.4,25.0625,0.));
#348 = VECTOR('',#349,1.);
#349 = DIRECTION('',(0.,-1.,0.));
#350 = PLANE('',#351);
#351 = AXIS2_PLACEMENT_3D('',#352,#353,#354);
#352 = CARTESIAN_POINT('',(29.5,28.625,0.));
#353 = DIRECTION('',(0.,0.,1.));
#354 = DIRECTION('',(1.,0.,-0.));
#355 = ADVANCED_FACE('',(#356),#382,.T.);
#356 = FACE_BOUND('',#357,.T.);
#357 = EDGE_LOOP('',(#358,#369,#375,#376));
#358 = ORIENTED_EDGE('',*,*,#359,.T.);
#359 = EDGE_CURVE('',#360,#362,#364,.T.);
#360 = VERTEX_POINT('',#361);
#361 = CARTESIAN_POINT('',(42.5,42.25,1.5));
#362 = VERTEX_POINT('',#363);
#363 = CARTESIAN_POINT('',(44.,40.75,1.5));
#364 = CIRCLE('',#365,1.5);
#365 = AXIS2_PLACEMENT_3D('',#366,#367,#368);
#366 = CARTESIAN_POINT('',(42.5,40.75,1.5));
#367 = DIRECTION('',(0.,0.,-1.));
#368 = DIRECTION('',(0.707106781187,0.707106781187,0.));
#369 = ORIENTED_EDGE('',*,*,#370,.T.);
#370 = EDGE_CURVE('',#362,#104,#371,.T.);
#371 = LINE('',#372,#373);
#372 = CARTESIAN_POINT('',(44.,40.75,0.));
#373 = VECTOR('',#374,1.);
#374 = DIRECTION('',(0.,0.,-1.));
#375 = ORIENTED_EDGE('',*,*,#103,.T.);
#376 = ORIENTED_EDGE('',*,*,#377,.T.);
#377 = EDGE_CURVE('',#96,#360,#378,.T.);
#378 = LINE('',#379,#380);
#379 = CARTESIAN_POINT('',(42.5,42.25,0.));
#380 = VECTOR('',#381,1.);
#381 = DIRECTION('',(0.,0.,1.));
#382 = CYLINDRICAL_SURFACE('',#383,1.5);
#383 = AXIS2_PLACEMENT_3D('',#384,#385,#386);
#384 = CARTESIAN_POINT('',(42.5,40.75,0.));
#385 = DIRECTION('',(0.,0.,1.));
#386 = DIRECTION('',(0.707106781187,0.707106781187,-0.));
#387 = ADVANCED_FACE('',(#388),#406,.T.);
#388 = FACE_BOUND('',#389,.T.);
#389 = EDGE_LOOP('',(#390,#391,#399,#405));
#390 = ORIENTED_EDGE('',*,*,#370,.F.);
#391 = ORIENTED_EDGE('',*,*,#392,.F.);
#392 = EDGE_CURVE('',#393,#362,#395,.T.);
#393 = VERTEX_POINT('',#394);
#394 = CARTESIAN_POINT('',(44.,16.5,1.5));
#395 = LINE('',#396,#397);
#396 = CARTESIAN_POINT('',(44.,15.,1.5));
#397 = VECTOR('',#398,1.);
#398 = DIRECTION('',(0.,1.,0.));
#399 = ORIENTED_EDGE('',*,*,#400,.F.);
#400 = EDGE_CURVE('',#113,#393,#401,.T.);
#401 = LINE('',#402,#403);
#402 = CARTESIAN_POINT('',(44.,16.5,0.));
#403 = VECTOR('',#404,1.);
#404 = DIRECTION('',(0.,0.,1.));
#405 = ORIENTED_EDGE('',*,*,#112,.T.);
#406 = PLANE('',#407);
#407 = AXIS2_PLACEMENT_3D('',#408,#409,#410);
#408 = CARTESIAN_POINT('',(44.,15.,0.));
#409 = DIRECTION('',(1.,0.,0.));
#410 = DIRECTION('',(-0.,1.,0.));
#411 = ADVANCED_FACE('',(#412),#431,.T.);
#412 = FACE_BOUND('',#413,.T.);
#413 = EDGE_LOOP('',(#414,#423,#429,#430));
#414 = ORIENTED_EDGE('',*,*,#415,.T.);
#415 = EDGE_CURVE('',#393,#416,#418,.T.);
#416 = VERTEX_POINT('',#417);
#417 = CARTESIAN_POINT('',(42.5,15.,1.5));
#418 = CIRCLE('',#419,1.5);
#419 = AXIS2_PLACEMENT_3D('',#420,#421,#422);
#420 = CARTESIAN_POINT('',(42.5,16.5,1.5));
#421 = DIRECTION('',(0.,0.,-1.));
#422 = DIRECTION('',(0.707106781187,-0.707106781187,0.));
#423 = ORIENTED_EDGE('',*,*,#424,.T.);
#424 = EDGE_CURVE('',#416,#121,#425,.T.);
#425 = LINE('',#426,#427);
#426 = CARTESIAN_POINT('',(42.5,15.,0.));
#427 = VECTOR('',#428,1.);
#428 = DIRECTION('',(0.,0.,-1.));
#429 = ORIENTED_EDGE('',*,*,#120,.T.);
#430 = ORIENTED_EDGE('',*,*,#400,.T.);
#431 = CYLINDRICAL_SURFACE('',#432,1.5);
#432 = AXIS2_PLACEMENT_3D('',#433,#434,#435);
#433 = CARTESIAN_POINT('',(42.5,16.5,0.));
#434 = DIRECTION('',(0.,0.,1.));
#435 = DIRECTION('',(0.707106781187,-0.707106781187,0.));
#436 = ADVANCED_FACE('',(#437),#456,.T.);
#437 = FACE_BOUND('',#438,.T.);
#438 = EDGE_LOOP('',(#439,#448,#449,#450));
#439 = ORIENTED_EDGE('',*,*,#440,.T.);
#440 = EDGE_CURVE('',#441,#73,#443,.T.);
#441 = VERTEX_POINT('',#442);
#442 = CARTESIAN_POINT('',(16.5,15.,1.5));
#443 = CIRCLE('',#444,1.5);
#444 = AXIS2_PLACEMENT_3D('',#445,#446,#447);
#445 = CARTESIAN_POINT('',(16.5,16.5,1.5));
#446 = DIRECTION('',(0.,0.,-1.));
#447 = DIRECTION('',(-0.707106781187,-0.707106781187,-0.));
#448 = ORIENTED_EDGE('',*,*,#72,.T.);
#449 = ORIENTED_EDGE('',*,*,#137,.T.);
#450 = ORIENTED_EDGE('',*,*,#451,.T.);
#451 = EDGE_CURVE('',#130,#441,#452,.T.);
#452 = LINE('',#453,#454);
#453 = CARTESIAN_POINT('',(16.5,15.,0.));
#454 = VECTOR('',#455,1.);
#455 = DIRECTION('',(0.,0.,1.));
#456 = CYLINDRICAL_SURFACE('',#457,1.5);
#457 = AXIS2_PLACEMENT_3D('',#458,#459,#460);
#458 = CARTESIAN_POINT('',(16.5,16.5,0.));
#459 = DIRECTION('',(0.,0.,1.));
#460 = DIRECTION('',(-0.707106781187,-0.707106781187,0.));
#461 = ADVANCED_FACE('',(#462,#482),#516,.T.);
#462 = FACE_BOUND('',#463,.T.);
#463 = EDGE_LOOP('',(#464,#465,#466,#467,#473,#474,#475,#476));
#464 = ORIENTED_EDGE('',*,*,#21,.F.);
#465 = ORIENTED_EDGE('',*,*,#80,.T.);
#466 = ORIENTED_EDGE('',*,*,#440,.F.);
#467 = ORIENTED_EDGE('',*,*,#468,.T.);
#468 = EDGE_CURVE('',#441,#416,#469,.T.);
#469 = LINE('',#470,#471);
#470 = CARTESIAN_POINT('',(15.,15.,1.5));
#471 = VECTOR('',#472,1.);
#472 = DIRECTION('',(1.,0.,0.));
#473 = ORIENTED_EDGE('',*,*,#415,.F.);
#474 = ORIENTED_EDGE('',*,*,#392,.T.);
#475 = ORIENTED_EDGE('',*,*,#359,.F.);
#476 = ORIENTED_EDGE('',*,*,#477,.T.);
#477 = EDGE_CURVE('',#360,#24,#478,.T.);
#478 = LINE('',#479,#480);
#479 = CARTESIAN_POINT('',(44.,42.25,1.5));
#480 = VECTOR('',#481,1.);
#481 = DIRECTION('',(-1.,0.,0.));
#482 = FACE_BOUND('',#483,.T.);
#483 = EDGE_LOOP('',(#484,#494,#502,#510));
#484 = ORIENTED_EDGE('',*,*,#485,.T.);
#485 = EDGE_CURVE('',#486,#488,#490,.T.);
#486 = VERTEX_POINT('',#487);
#487 = CARTESIAN_POINT('',(16.55,40.7,1.5));
#488 = VERTEX_POINT('',#489);
#489 = CARTESIAN_POINT('',(42.45,40.7,1.5));
#490 = LINE('',#491,#492);
#491 = CARTESIAN_POINT('',(36.,40.7,1.5));
#492 = VECTOR('',#493,1.);
#493 = DIRECTION('',(1.,0.,0.));
#494 = ORIENTED_EDGE('',*,*,#495,.T.);
#495 = EDGE_CURVE('',#488,#496,#498,.T.);
#496 = VERTEX_POINT('',#497);
#497 = CARTESIAN_POINT('',(42.45,16.55,1.5));
#498 = LINE('',#499,#500);
#499 = CARTESIAN_POINT('',(42.45,22.5625,1.5));
#500 = VECTOR('',#501,1.);
#501 = DIRECTION('',(0.,-1.,0.));
#502 = ORIENTED_EDGE('',*,*,#503,.T.);
#503 = EDGE_CURVE('',#496,#504,#506,.T.);
#504 = VERTEX_POINT('',#505);
#505 = CARTESIAN_POINT('',(16.55,16.55,1.5));
#506 = LINE('',#507,#508);
#507 = CARTESIAN_POINT('',(23.,16.55,1.5));
#508 = VECTOR('',#509,1.);
#509 = DIRECTION('',(-1.,0.,0.));
#510 = ORIENTED_EDGE('',*,*,#511,.T.);
#511 = EDGE_CURVE('',#504,#486,#512,.T.);
#512 = LINE('',#513,#514);
#513 = CARTESIAN_POINT('',(16.55,34.6875,1.5));
#514 = VECTOR('',#515,1.);
#515 = DIRECTION('',(0.,1.,0.));
#516 = PLANE('',#517);
#517 = AXIS2_PLACEMENT_3D('',#518,#519,#520);
#518 = CARTESIAN_POINT('',(29.5,28.625,1.5));
#519 = DIRECTION('',(0.,0.,1.));
#520 = DIRECTION('',(1.,0.,-0.));
#521 = ADVANCED_FACE('',(#522),#548,.F.);
#522 = FACE_BOUND('',#523,.F.);
#523 = EDGE_LOOP('',(#524,#532,#533,#541));
#524 = ORIENTED_EDGE('',*,*,#525,.F.);
#525 = EDGE_CURVE('',#329,#526,#528,.T.);
#526 = VERTEX_POINT('',#527);
#527 = CARTESIAN_POINT('',(34.9,17.6,3.5));
#528 = LINE('',#529,#530);
#529 = CARTESIAN_POINT('',(34.9,17.6,3.));
#530 = VECTOR('',#531,1.);
#531 = DIRECTION('',(0.,0.,1.));
#532 = ORIENTED_EDGE('',*,*,#336,.F.);
#533 = ORIENTED_EDGE('',*,*,#534,.F.);
#534 = EDGE_CURVE('',#535,#337,#537,.T.);
#535 = VERTEX_POINT('',#536);
#536 = CARTESIAN_POINT('',(36.4,19.1,3.5));
#537 = LINE('',#538,#539);
#538 = CARTESIAN_POINT('',(36.4,19.1,3.));
#539 = VECTOR('',#540,1.);
#540 = DIRECTION('',(0.,0.,-1.));
#541 = ORIENTED_EDGE('',*,*,#542,.F.);
#542 = EDGE_CURVE('',#526,#535,#543,.T.);
#543 = CIRCLE('',#544,1.5);
#544 = AXIS2_PLACEMENT_3D('',#545,#546,#547);
#545 = CARTESIAN_POINT('',(34.9,19.1,3.5));
#546 = DIRECTION('',(0.,0.,1.));
#547 = DIRECTION('',(0.707106781187,-0.707106781187,0.));
#548 = CYLINDRICAL_SURFACE('',#549,1.5);
#549 = AXIS2_PLACEMENT_3D('',#550,#551,#552);
#550 = CARTESIAN_POINT('',(34.9,19.1,3.));
#551 = DIRECTION('',(0.,0.,-1.));
#552 = DIRECTION('',(0.707106781187,-0.707106781187,0.));
#553 = ADVANCED_FACE('',(#554),#572,.F.);
#554 = FACE_BOUND('',#555,.T.);
#555 = EDGE_LOOP('',(#556,#557,#565,#571));
#556 = ORIENTED_EDGE('',*,*,#534,.F.);
#557 = ORIENTED_EDGE('',*,*,#558,.T.);
#558 = EDGE_CURVE('',#535,#559,#561,.T.);
#559 = VERTEX_POINT('',#560);
#560 = CARTESIAN_POINT('',(36.4,21.1,3.5));
#561 = LINE('',#562,#563);
#562 = CARTESIAN_POINT('',(36.4,25.0625,3.5));
#563 = VECTOR('',#564,1.);
#564 = DIRECTION('',(0.,1.,0.));
#565 = ORIENTED_EDGE('',*,*,#566,.F.);
#566 = EDGE_CURVE('',#150,#559,#567,.T.);
#567 = LINE('',#568,#569);
#568 = CARTESIAN_POINT('',(36.4,21.1,3.));
#569 = VECTOR('',#570,1.);
#570 = DIRECTION('',(0.,0.,1.));
#571 = ORIENTED_EDGE('',*,*,#345,.T.);
#572 = PLANE('',#573);
#573 = AXIS2_PLACEMENT_3D('',#574,#575,#576);
#574 = CARTESIAN_POINT('',(36.4,21.5,3.));
#575 = DIRECTION('',(1.,0.,0.));
#576 = DIRECTION('',(0.,-1.,0.));
#577 = ADVANCED_FACE('',(#578),#604,.F.);
#578 = FACE_BOUND('',#579,.F.);
#579 = EDGE_LOOP('',(#580,#588,#589,#597));
#580 = ORIENTED_EDGE('',*,*,#581,.F.);
#581 = EDGE_CURVE('',#312,#582,#584,.T.);
#582 = VERTEX_POINT('',#583);
#583 = CARTESIAN_POINT('',(22.6,19.1,3.5));
#584 = LINE('',#585,#586);
#585 = CARTESIAN_POINT('',(22.6,19.1,3.));
#586 = VECTOR('',#587,1.);
#587 = DIRECTION('',(0.,0.,1.));
#588 = ORIENTED_EDGE('',*,*,#319,.F.);
#589 = ORIENTED_EDGE('',*,*,#590,.F.);
#590 = EDGE_CURVE('',#591,#320,#593,.T.);
#591 = VERTEX_POINT('',#592);
#592 = CARTESIAN_POINT('',(24.1,17.6,3.5));
#593 = LINE('',#594,#595);
#594 = CARTESIAN_POINT('',(24.1,17.6,3.));
#595 = VECTOR('',#596,1.);
#596 = DIRECTION('',(0.,0.,-1.));
#597 = ORIENTED_EDGE('',*,*,#598,.F.);
#598 = EDGE_CURVE('',#582,#591,#599,.T.);
#599 = CIRCLE('',#600,1.5);
#600 = AXIS2_PLACEMENT_3D('',#601,#602,#603);
#601 = CARTESIAN_POINT('',(24.1,19.1,3.5));
#602 = DIRECTION('',(0.,0.,1.));
#603 = DIRECTION('',(-0.707106781187,-0.707106781187,0.));
#604 = CYLINDRICAL_SURFACE('',#605,1.5);
#605 = AXIS2_PLACEMENT_3D('',#606,#607,#608);
#606 = CARTESIAN_POINT('',(24.1,19.1,3.));
#607 = DIRECTION('',(0.,0.,-1.));
#608 = DIRECTION('',(-0.707106781187,-0.707106781187,-0.));
#609 = ADVANCED_FACE('',(#610),#621,.F.);
#610 = FACE_BOUND('',#611,.T.);
#611 = EDGE_LOOP('',(#612,#613,#614,#615));
#612 = ORIENTED_EDGE('',*,*,#525,.F.);
#613 = ORIENTED_EDGE('',*,*,#328,.T.);
#614 = ORIENTED_EDGE('',*,*,#590,.F.);
#615 = ORIENTED_EDGE('',*,*,#616,.T.);
#616 = EDGE_CURVE('',#591,#526,#617,.T.);
#617 = LINE('',#618,#619);
#618 = CARTESIAN_POINT('',(33.5,17.6,3.5));
#619 = VECTOR('',#620,1.);
#620 = DIRECTION('',(1.,0.,0.));
#621 = PLANE('',#622);
#622 = AXIS2_PLACEMENT_3D('',#623,#624,#625);
#623 = CARTESIAN_POINT('',(37.5,17.6,3.));
#624 = DIRECTION('',(0.,-1.,0.));
#625 = DIRECTION('',(-1.,0.,0.));
#626 = ADVANCED_FACE('',(#627),#653,.F.);
#627 = FACE_BOUND('',#628,.F.);
#628 = EDGE_LOOP('',(#629,#637,#638,#646));
#629 = ORIENTED_EDGE('',*,*,#630,.F.);
#630 = EDGE_CURVE('',#278,#631,#633,.T.);
#631 = VERTEX_POINT('',#632);
#632 = CARTESIAN_POINT('',(17.6,24.1,3.5));
#633 = LINE('',#634,#635);
#634 = CARTESIAN_POINT('',(17.6,24.1,3.));
#635 = VECTOR('',#636,1.);
#636 = DIRECTION('',(0.,0.,1.));
#637 = ORIENTED_EDGE('',*,*,#285,.F.);
#638 = ORIENTED_EDGE('',*,*,#639,.F.);
#639 = EDGE_CURVE('',#640,#286,#642,.T.);
#640 = VERTEX_POINT('',#641);
#641 = CARTESIAN_POINT('',(19.1,22.6,3.5));
#642 = LINE('',#643,#644);
#643 = CARTESIAN_POINT('',(19.1,22.6,3.));
#644 = VECTOR('',#645,1.);
#645 = DIRECTION('',(0.,0.,-1.));
#646 = ORIENTED_EDGE('',*,*,#647,.F.);
#647 = EDGE_CURVE('',#631,#640,#648,.T.);
#648 = CIRCLE('',#649,1.5);
#649 = AXIS2_PLACEMENT_3D('',#650,#651,#652);
#650 = CARTESIAN_POINT('',(19.1,24.1,3.5));
#651 = DIRECTION('',(0.,0.,1.));
#652 = DIRECTION('',(-0.707106781187,-0.707106781187,0.));
#653 = CYLINDRICAL_SURFACE('',#654,1.5);
#654 = AXIS2_PLACEMENT_3D('',#655,#656,#657);
#655 = CARTESIAN_POINT('',(19.1,24.1,3.));
#656 = DIRECTION('',(0.,0.,-1.));
#657 = DIRECTION('',(-0.707106781187,-0.707106781187,-0.));
#658 = ADVANCED_FACE('',(#659),#677,.F.);
#659 = FACE_BOUND('',#660,.T.);
#660 = EDGE_LOOP('',(#661,#662,#670,#676));
#661 = ORIENTED_EDGE('',*,*,#639,.F.);
#662 = ORIENTED_EDGE('',*,*,#663,.T.);
#663 = EDGE_CURVE('',#640,#664,#666,.T.);
#664 = VERTEX_POINT('',#665);
#665 = CARTESIAN_POINT('',(21.1,22.6,3.5));
#666 = LINE('',#667,#668);
#667 = CARTESIAN_POINT('',(25.5,22.6,3.5));
#668 = VECTOR('',#669,1.);
#669 = DIRECTION('',(1.,0.,0.));
#670 = ORIENTED_EDGE('',*,*,#671,.F.);
#671 = EDGE_CURVE('',#295,#664,#672,.T.);
#672 = LINE('',#673,#674);
#673 = CARTESIAN_POINT('',(21.1,22.6,3.));
#674 = VECTOR('',#675,1.);
#675 = DIRECTION('',(0.,0.,1.));
#676 = ORIENTED_EDGE('',*,*,#294,.T.);
#677 = PLANE('',#678);
#678 = AXIS2_PLACEMENT_3D('',#679,#680,#681);
#679 = CARTESIAN_POINT('',(21.5,22.6,3.));
#680 = DIRECTION('',(0.,-1.,0.));
#681 = DIRECTION('',(-1.,0.,0.));
#682 = ADVANCED_FACE('',(#683),#709,.F.);
#683 = FACE_BOUND('',#684,.F.);
#684 = EDGE_LOOP('',(#685,#693,#694,#702));
#685 = ORIENTED_EDGE('',*,*,#686,.F.);
#686 = EDGE_CURVE('',#261,#687,#689,.T.);
#687 = VERTEX_POINT('',#688);
#688 = CARTESIAN_POINT('',(19.1,34.65,3.5));
#689 = LINE('',#690,#691);
#690 = CARTESIAN_POINT('',(19.1,34.65,3.));
#691 = VECTOR('',#692,1.);
#692 = DIRECTION('',(0.,0.,1.));
#693 = ORIENTED_EDGE('',*,*,#268,.F.);
#694 = ORIENTED_EDGE('',*,*,#695,.F.);
#695 = EDGE_CURVE('',#696,#269,#698,.T.);
#696 = VERTEX_POINT('',#697);
#697 = CARTESIAN_POINT('',(17.6,33.15,3.5));
#698 = LINE('',#699,#700);
#699 = CARTESIAN_POINT('',(17.6,33.15,3.));
#700 = VECTOR('',#701,1.);
#701 = DIRECTION('',(0.,0.,-1.));
#702 = ORIENTED_EDGE('',*,*,#703,.F.);
#703 = EDGE_CURVE('',#687,#696,#704,.T.);
#704 = CIRCLE('',#705,1.5);
#705 = AXIS2_PLACEMENT_3D('',#706,#707,#708);
#706 = CARTESIAN_POINT('',(19.1,33.15,3.5));
#707 = DIRECTION('',(0.,0.,1.));
#708 = DIRECTION('',(-0.707106781187,0.707106781187,0.));
#709 = CYLINDRICAL_SURFACE('',#710,1.5);
#710 = AXIS2_PLACEMENT_3D('',#711,#712,#713);
#711 = CARTESIAN_POINT('',(19.1,33.15,3.));
#712 = DIRECTION('',(0.,0.,-1.));
#713 = DIRECTION('',(-0.707106781187,0.707106781187,0.));
#714 = ADVANCED_FACE('',(#715),#726,.F.);
#715 = FACE_BOUND('',#716,.T.);
#716 = EDGE_LOOP('',(#717,#718,#719,#720));
#717 = ORIENTED_EDGE('',*,*,#630,.F.);
#718 = ORIENTED_EDGE('',*,*,#277,.T.);
#719 = ORIENTED_EDGE('',*,*,#695,.F.);
#720 = ORIENTED_EDGE('',*,*,#721,.T.);
#721 = EDGE_CURVE('',#696,#631,#722,.T.);
#722 = LINE('',#723,#724);
#723 = CARTESIAN_POINT('',(17.6,25.0625,3.5));
#724 = VECTOR('',#725,1.);
#725 = DIRECTION('',(0.,-1.,0.));
#726 = PLANE('',#727);
#727 = AXIS2_PLACEMENT_3D('',#728,#729,#730);
#728 = CARTESIAN_POINT('',(17.6,21.5,3.));
#729 = DIRECTION('',(-1.,0.,0.));
#730 = DIRECTION('',(0.,1.,0.));
#731 = ADVANCED_FACE('',(#732),#758,.F.);
#732 = FACE_BOUND('',#733,.F.);
#733 = EDGE_LOOP('',(#734,#742,#743,#751));
#734 = ORIENTED_EDGE('',*,*,#735,.F.);
#735 = EDGE_CURVE('',#227,#736,#738,.T.);
#736 = VERTEX_POINT('',#737);
#737 = CARTESIAN_POINT('',(24.1,39.65,3.5));
#738 = LINE('',#739,#740);
#739 = CARTESIAN_POINT('',(24.1,39.65,3.));
#740 = VECTOR('',#741,1.);
#741 = DIRECTION('',(0.,0.,1.));
#742 = ORIENTED_EDGE('',*,*,#234,.F.);
#743 = ORIENTED_EDGE('',*,*,#744,.F.);
#744 = EDGE_CURVE('',#745,#235,#747,.T.);
#745 = VERTEX_POINT('',#746);
#746 = CARTESIAN_POINT('',(22.6,38.15,3.5));
#747 = LINE('',#748,#749);
#748 = CARTESIAN_POINT('',(22.6,38.15,3.));
#749 = VECTOR('',#750,1.);
#750 = DIRECTION('',(0.,0.,-1.));
#751 = ORIENTED_EDGE('',*,*,#752,.F.);
#752 = EDGE_CURVE('',#736,#745,#753,.T.);
#753 = CIRCLE('',#754,1.5);
#754 = AXIS2_PLACEMENT_3D('',#755,#756,#757);
#755 = CARTESIAN_POINT('',(24.1,38.15,3.5));
#756 = DIRECTION('',(0.,0.,1.));
#757 = DIRECTION('',(-0.707106781187,0.707106781187,0.));
#758 = CYLINDRICAL_SURFACE('',#759,1.5);
#759 = AXIS2_PLACEMENT_3D('',#760,#761,#762);
#760 = CARTESIAN_POINT('',(24.1,38.15,3.));
#761 = DIRECTION('',(0.,0.,-1.));
#762 = DIRECTION('',(-0.707106781187,0.707106781187,0.));
#763 = ADVANCED_FACE('',(#764),#782,.F.);
#764 = FACE_BOUND('',#765,.T.);
#765 = EDGE_LOOP('',(#766,#767,#775,#781));
#766 = ORIENTED_EDGE('',*,*,#744,.F.);
#767 = ORIENTED_EDGE('',*,*,#768,.T.);
#768 = EDGE_CURVE('',#745,#769,#771,.T.);
#769 = VERTEX_POINT('',#770);
#770 = CARTESIAN_POINT('',(22.6,36.15,3.5));
#771 = LINE('',#772,#773);
#772 = CARTESIAN_POINT('',(22.6,32.1875,3.5));
#773 = VECTOR('',#774,1.);
#774 = DIRECTION('',(0.,-1.,0.));
#775 = ORIENTED_EDGE('',*,*,#776,.F.);
#776 = EDGE_CURVE('',#244,#769,#777,.T.);
#777 = LINE('',#778,#779);
#778 = CARTESIAN_POINT('',(22.6,36.15,3.));
#779 = VECTOR('',#780,1.);
#780 = DIRECTION('',(0.,0.,1.));
#781 = ORIENTED_EDGE('',*,*,#243,.T.);
#782 = PLANE('',#783);
#783 = AXIS2_PLACEMENT_3D('',#784,#785,#786);
#784 = CARTESIAN_POINT('',(22.6,35.75,3.));
#785 = DIRECTION('',(-1.,0.,0.));
#786 = DIRECTION('',(0.,1.,0.));
#787 = ADVANCED_FACE('',(#788),#814,.F.);
#788 = FACE_BOUND('',#789,.F.);
#789 = EDGE_LOOP('',(#790,#798,#799,#807));
#790 = ORIENTED_EDGE('',*,*,#791,.F.);
#791 = EDGE_CURVE('',#210,#792,#794,.T.);
#792 = VERTEX_POINT('',#793);
#793 = CARTESIAN_POINT('',(36.400000566244,38.15,3.5));
#794 = LINE('',#795,#796);
#795 = CARTESIAN_POINT('',(36.400000566244,38.15,3.));
#796 = VECTOR('',#797,1.);
#797 = DIRECTION('',(0.,0.,1.));
#798 = ORIENTED_EDGE('',*,*,#217,.F.);
#799 = ORIENTED_EDGE('',*,*,#800,.F.);
#800 = EDGE_CURVE('',#801,#218,#803,.T.);
#801 = VERTEX_POINT('',#802);
#802 = CARTESIAN_POINT('',(34.900000566244,39.65,3.5));
#803 = LINE('',#804,#805);
#804 = CARTESIAN_POINT('',(34.900000566244,39.65,3.));
#805 = VECTOR('',#806,1.);
#806 = DIRECTION('',(0.,0.,-1.));
#807 = ORIENTED_EDGE('',*,*,#808,.F.);
#808 = EDGE_CURVE('',#792,#801,#809,.T.);
#809 = CIRCLE('',#810,1.5);
#810 = AXIS2_PLACEMENT_3D('',#811,#812,#813);
#811 = CARTESIAN_POINT('',(34.900000566244,38.15,3.5));
#812 = DIRECTION('',(0.,0.,1.));
#813 = DIRECTION('',(0.707106781187,0.707106781187,-0.));
#814 = CYLINDRICAL_SURFACE('',#815,1.5);
#815 = AXIS2_PLACEMENT_3D('',#816,#817,#818);
#816 = CARTESIAN_POINT('',(34.900000566244,38.15,3.));
#817 = DIRECTION('',(0.,0.,-1.));
#818 = DIRECTION('',(0.707106781187,0.707106781187,0.));
#819 = ADVANCED_FACE('',(#820),#831,.F.);
#820 = FACE_BOUND('',#821,.T.);
#821 = EDGE_LOOP('',(#822,#823,#824,#825));
#822 = ORIENTED_EDGE('',*,*,#735,.F.);
#823 = ORIENTED_EDGE('',*,*,#226,.T.);
#824 = ORIENTED_EDGE('',*,*,#800,.F.);
#825 = ORIENTED_EDGE('',*,*,#826,.T.);
#826 = EDGE_CURVE('',#801,#736,#827,.T.);
#827 = LINE('',#828,#829);
#828 = CARTESIAN_POINT('',(25.5,39.65,3.5));
#829 = VECTOR('',#830,1.);
#830 = DIRECTION('',(-1.,0.,0.));
#831 = PLANE('',#832);
#832 = AXIS2_PLACEMENT_3D('',#833,#834,#835);
#833 = CARTESIAN_POINT('',(21.5,39.65,3.));
#834 = DIRECTION('',(0.,1.,0.));
#835 = DIRECTION('',(1.,0.,0.));
#836 = ADVANCED_FACE('',(#837),#863,.F.);
#837 = FACE_BOUND('',#838,.F.);
#838 = EDGE_LOOP('',(#839,#847,#848,#856));
#839 = ORIENTED_EDGE('',*,*,#840,.F.);
#840 = EDGE_CURVE('',#176,#841,#843,.T.);
#841 = VERTEX_POINT('',#842);
#842 = CARTESIAN_POINT('',(41.4,33.15,3.5));
#843 = LINE('',#844,#845);
#844 = CARTESIAN_POINT('',(41.4,33.15,3.));
#845 = VECTOR('',#846,1.);
#846 = DIRECTION('',(0.,0.,1.));
#847 = ORIENTED_EDGE('',*,*,#183,.F.);
#848 = ORIENTED_EDGE('',*,*,#849,.F.);
#849 = EDGE_CURVE('',#850,#184,#852,.T.);
#850 = VERTEX_POINT('',#851);
#851 = CARTESIAN_POINT('',(39.9,34.65,3.5));
#852 = LINE('',#853,#854);
#853 = CARTESIAN_POINT('',(39.9,34.65,3.));
#854 = VECTOR('',#855,1.);
#855 = DIRECTION('',(0.,0.,-1.));
#856 = ORIENTED_EDGE('',*,*,#857,.F.);
#857 = EDGE_CURVE('',#841,#850,#858,.T.);
#858 = CIRCLE('',#859,1.5);
#859 = AXIS2_PLACEMENT_3D('',#860,#861,#862);
#860 = CARTESIAN_POINT('',(39.9,33.15,3.5));
#861 = DIRECTION('',(0.,0.,1.));
#862 = DIRECTION('',(0.707106781187,0.707106781187,-0.));
#863 = CYLINDRICAL_SURFACE('',#864,1.5);
#864 = AXIS2_PLACEMENT_3D('',#865,#866,#867);
#865 = CARTESIAN_POINT('',(39.9,33.15,3.));
#866 = DIRECTION('',(0.,0.,-1.));
#867 = DIRECTION('',(0.707106781187,0.707106781187,0.));
#868 = ADVANCED_FACE('',(#869),#887,.F.);
#869 = FACE_BOUND('',#870,.T.);
#870 = EDGE_LOOP('',(#871,#872,#880,#886));
#871 = ORIENTED_EDGE('',*,*,#849,.F.);
#872 = ORIENTED_EDGE('',*,*,#873,.T.);
#873 = EDGE_CURVE('',#850,#874,#876,.T.);
#874 = VERTEX_POINT('',#875);
#875 = CARTESIAN_POINT('',(37.900000566244,34.65,3.5));
#876 = LINE('',#877,#878);
#877 = CARTESIAN_POINT('',(33.750000283122,34.65,3.5));
#878 = VECTOR('',#879,1.);
#879 = DIRECTION('',(-1.,0.,0.));
#880 = ORIENTED_EDGE('',*,*,#881,.F.);
#881 = EDGE_CURVE('',#193,#874,#882,.T.);
#882 = LINE('',#883,#884);
#883 = CARTESIAN_POINT('',(37.900000566244,34.65,3.));
#884 = VECTOR('',#885,1.);
#885 = DIRECTION('',(0.,0.,1.));
#886 = ORIENTED_EDGE('',*,*,#192,.T.);
#887 = PLANE('',#888);
#888 = AXIS2_PLACEMENT_3D('',#889,#890,#891);
#889 = CARTESIAN_POINT('',(38.000000566244,34.65,3.));
#890 = DIRECTION('',(0.,1.,0.));
#891 = DIRECTION('',(1.,0.,0.));
#892 = ADVANCED_FACE('',(#893),#919,.F.);
#893 = FACE_BOUND('',#894,.F.);
#894 = EDGE_LOOP('',(#895,#903,#904,#912));
#895 = ORIENTED_EDGE('',*,*,#896,.F.);
#896 = EDGE_CURVE('',#159,#897,#899,.T.);
#897 = VERTEX_POINT('',#898);
#898 = CARTESIAN_POINT('',(39.9,22.6,3.5));
#899 = LINE('',#900,#901);
#900 = CARTESIAN_POINT('',(39.9,22.6,3.));
#901 = VECTOR('',#902,1.);
#902 = DIRECTION('',(0.,0.,1.));
#903 = ORIENTED_EDGE('',*,*,#166,.F.);
#904 = ORIENTED_EDGE('',*,*,#905,.F.);
#905 = EDGE_CURVE('',#906,#167,#908,.T.);
#906 = VERTEX_POINT('',#907);
#907 = CARTESIAN_POINT('',(41.4,24.1,3.5));
#908 = LINE('',#909,#910);
#909 = CARTESIAN_POINT('',(41.4,24.1,3.));
#910 = VECTOR('',#911,1.);
#911 = DIRECTION('',(0.,0.,-1.));
#912 = ORIENTED_EDGE('',*,*,#913,.F.);
#913 = EDGE_CURVE('',#897,#906,#914,.T.);
#914 = CIRCLE('',#915,1.5);
#915 = AXIS2_PLACEMENT_3D('',#916,#917,#918);
#916 = CARTESIAN_POINT('',(39.9,24.1,3.5));
#917 = DIRECTION('',(0.,0.,1.));
#918 = DIRECTION('',(0.707106781187,-0.707106781187,0.));
#919 = CYLINDRICAL_SURFACE('',#920,1.5);
#920 = AXIS2_PLACEMENT_3D('',#921,#922,#923);
#921 = CARTESIAN_POINT('',(39.9,24.1,3.));
#922 = DIRECTION('',(0.,0.,-1.));
#923 = DIRECTION('',(0.707106781187,-0.707106781187,0.));
#924 = ADVANCED_FACE('',(#925),#936,.F.);
#925 = FACE_BOUND('',#926,.T.);
#926 = EDGE_LOOP('',(#927,#928,#929,#930));
#927 = ORIENTED_EDGE('',*,*,#840,.F.);
#928 = ORIENTED_EDGE('',*,*,#175,.T.);
#929 = ORIENTED_EDGE('',*,*,#905,.F.);
#930 = ORIENTED_EDGE('',*,*,#931,.T.);
#931 = EDGE_CURVE('',#906,#841,#932,.T.);
#932 = LINE('',#933,#934);
#933 = CARTESIAN_POINT('',(41.4,32.1875,3.5));
#934 = VECTOR('',#935,1.);
#935 = DIRECTION('',(0.,1.,0.));
#936 = PLANE('',#937);
#937 = AXIS2_PLACEMENT_3D('',#938,#939,#940);
#938 = CARTESIAN_POINT('',(41.4,35.75,3.));
#939 = DIRECTION('',(1.,0.,0.));
#940 = DIRECTION('',(0.,-1.,0.));
#941 = ADVANCED_FACE('',(#942),#961,.T.);
#942 = FACE_BOUND('',#943,.T.);
#943 = EDGE_LOOP('',(#944,#945,#946,#955));
#944 = ORIENTED_EDGE('',*,*,#147,.T.);
#945 = ORIENTED_EDGE('',*,*,#566,.T.);
#946 = ORIENTED_EDGE('',*,*,#947,.T.);
#947 = EDGE_CURVE('',#559,#948,#950,.T.);
#948 = VERTEX_POINT('',#949);
#949 = CARTESIAN_POINT('',(37.9,22.6,3.5));
#950 = CIRCLE('',#951,1.5);
#951 = AXIS2_PLACEMENT_3D('',#952,#953,#954);
#952 = CARTESIAN_POINT('',(37.9,21.1,3.5));
#953 = DIRECTION('',(0.,0.,-1.));
#954 = DIRECTION('',(-0.707106781187,0.707106781187,0.));
#955 = ORIENTED_EDGE('',*,*,#956,.T.);
#956 = EDGE_CURVE('',#948,#148,#957,.T.);
#957 = LINE('',#958,#959);
#958 = CARTESIAN_POINT('',(37.9,22.6,3.));
#959 = VECTOR('',#960,1.);
#960 = DIRECTION('',(0.,0.,-1.));
#961 = CYLINDRICAL_SURFACE('',#962,1.5);
#962 = AXIS2_PLACEMENT_3D('',#963,#964,#965);
#963 = CARTESIAN_POINT('',(37.9,21.1,3.));
#964 = DIRECTION('',(0.,0.,-1.));
#965 = DIRECTION('',(-0.707106781187,0.707106781187,0.));
#966 = ADVANCED_FACE('',(#967),#986,.T.);
#967 = FACE_BOUND('',#968,.T.);
#968 = EDGE_LOOP('',(#969,#970,#971,#980));
#969 = ORIENTED_EDGE('',*,*,#302,.T.);
#970 = ORIENTED_EDGE('',*,*,#671,.T.);
#971 = ORIENTED_EDGE('',*,*,#972,.T.);
#972 = EDGE_CURVE('',#664,#973,#975,.T.);
#973 = VERTEX_POINT('',#974);
#974 = CARTESIAN_POINT('',(22.6,21.1,3.5));
#975 = CIRCLE('',#976,1.5);
#976 = AXIS2_PLACEMENT_3D('',#977,#978,#979);
#977 = CARTESIAN_POINT('',(21.1,21.1,3.5));
#978 = DIRECTION('',(0.,0.,-1.));
#979 = DIRECTION('',(0.707106781187,0.707106781187,0.));
#980 = ORIENTED_EDGE('',*,*,#981,.T.);
#981 = EDGE_CURVE('',#973,#303,#982,.T.);
#982 = LINE('',#983,#984);
#983 = CARTESIAN_POINT('',(22.6,21.1,3.));
#984 = VECTOR('',#985,1.);
#985 = DIRECTION('',(0.,0.,-1.));
#986 = CYLINDRICAL_SURFACE('',#987,1.5);
#987 = AXIS2_PLACEMENT_3D('',#988,#989,#990);
#988 = CARTESIAN_POINT('',(21.1,21.1,3.));
#989 = DIRECTION('',(0.,0.,-1.));
#990 = DIRECTION('',(0.707106781187,0.707106781187,0.));
#991 = ADVANCED_FACE('',(#992),#1011,.T.);
#992 = FACE_BOUND('',#993,.T.);
#993 = EDGE_LOOP('',(#994,#995,#996,#1005));
#994 = ORIENTED_EDGE('',*,*,#200,.T.);
#995 = ORIENTED_EDGE('',*,*,#881,.T.);
#996 = ORIENTED_EDGE('',*,*,#997,.T.);
#997 = EDGE_CURVE('',#874,#998,#1000,.T.);
#998 = VERTEX_POINT('',#999);
#999 = CARTESIAN_POINT('',(36.400000566244,36.15,3.5));
#1000 = CIRCLE('',#1001,1.5);
#1001 = AXIS2_PLACEMENT_3D('',#1002,#1003,#1004);
#1002 = CARTESIAN_POINT('',(37.900000566244,36.15,3.5));
#1003 = DIRECTION('',(0.,0.,-1.));
#1004 = DIRECTION('',(-0.707106781187,-0.707106781187,-0.));
#1005 = ORIENTED_EDGE('',*,*,#1006,.T.);
#1006 = EDGE_CURVE('',#998,#201,#1007,.T.);
#1007 = LINE('',#1008,#1009);
#1008 = CARTESIAN_POINT('',(36.400000566244,36.15,3.));
#1009 = VECTOR('',#1010,1.);
#1010 = DIRECTION('',(0.,0.,-1.));
#1011 = CYLINDRICAL_SURFACE('',#1012,1.5);
#1012 = AXIS2_PLACEMENT_3D('',#1013,#1014,#1015);
#1013 = CARTESIAN_POINT('',(37.900000566244,36.15,3.));
#1014 = DIRECTION('',(0.,0.,-1.));
#1015 = DIRECTION('',(-0.707106781187,-0.707106781187,-0.));
#1016 = ADVANCED_FACE('',(#1017),#1036,.T.);
#1017 = FACE_BOUND('',#1018,.T.);
#1018 = EDGE_LOOP('',(#1019,#1020,#1021,#1030));
#1019 = ORIENTED_EDGE('',*,*,#251,.T.);
#1020 = ORIENTED_EDGE('',*,*,#776,.T.);
#1021 = ORIENTED_EDGE('',*,*,#1022,.T.);
#1022 = EDGE_CURVE('',#769,#1023,#1025,.T.);
#1023 = VERTEX_POINT('',#1024);
#1024 = CARTESIAN_POINT('',(21.1,34.65,3.5));
#1025 = CIRCLE('',#1026,1.5);
#1026 = AXIS2_PLACEMENT_3D('',#1027,#1028,#1029);
#1027 = CARTESIAN_POINT('',(21.1,36.15,3.5));
#1028 = DIRECTION('',(0.,0.,-1.));
#1029 = DIRECTION('',(0.707106781187,-0.707106781187,0.));
#1030 = ORIENTED_EDGE('',*,*,#1031,.T.);
#1031 = EDGE_CURVE('',#1023,#252,#1032,.T.);
#1032 = LINE('',#1033,#1034);
#1033 = CARTESIAN_POINT('',(21.1,34.65,3.));
#1034 = VECTOR('',#1035,1.);
#1035 = DIRECTION('',(0.,0.,-1.));
#1036 = CYLINDRICAL_SURFACE('',#1037,1.5);
#1037 = AXIS2_PLACEMENT_3D('',#1038,#1039,#1040);
#1038 = CARTESIAN_POINT('',(21.1,36.15,3.));
#1039 = DIRECTION('',(0.,0.,-1.));
#1040 = DIRECTION('',(0.707106781187,-0.707106781187,0.));
#1041 = ADVANCED_FACE('',(#1042),#1053,.F.);
#1042 = FACE_BOUND('',#1043,.T.);
#1043 = EDGE_LOOP('',(#1044,#1045,#1046,#1047));
#1044 = ORIENTED_EDGE('',*,*,#686,.F.);
#1045 = ORIENTED_EDGE('',*,*,#260,.T.);
#1046 = ORIENTED_EDGE('',*,*,#1031,.F.);
#1047 = ORIENTED_EDGE('',*,*,#1048,.T.);
#1048 = EDGE_CURVE('',#1023,#687,#1049,.T.);
#1049 = LINE('',#1050,#1051);
#1050 = CARTESIAN_POINT('',(23.,34.65,3.5));
#1051 = VECTOR('',#1052,1.);
#1052 = DIRECTION('',(-1.,0.,0.));
#1053 = PLANE('',#1054);
#1054 = AXIS2_PLACEMENT_3D('',#1055,#1056,#1057);
#1055 = CARTESIAN_POINT('',(16.5,34.65,3.));
#1056 = DIRECTION('',(0.,1.,0.));
#1057 = DIRECTION('',(1.,0.,0.));
#1058 = ADVANCED_FACE('',(#1059),#1070,.F.);
#1059 = FACE_BOUND('',#1060,.T.);
#1060 = EDGE_LOOP('',(#1061,#1062,#1063,#1064));
#1061 = ORIENTED_EDGE('',*,*,#791,.F.);
#1062 = ORIENTED_EDGE('',*,*,#209,.T.);
#1063 = ORIENTED_EDGE('',*,*,#1006,.F.);
#1064 = ORIENTED_EDGE('',*,*,#1065,.T.);
#1065 = EDGE_CURVE('',#998,#792,#1066,.T.);
#1066 = LINE('',#1067,#1068);
#1067 = CARTESIAN_POINT('',(36.400000566244,34.6875,3.5));
#1068 = VECTOR('',#1069,1.);
#1069 = DIRECTION('',(0.,1.,0.));
#1070 = PLANE('',#1071);
#1071 = AXIS2_PLACEMENT_3D('',#1072,#1073,#1074);
#1072 = CARTESIAN_POINT('',(36.400000566244,40.75,3.));
#1073 = DIRECTION('',(1.,0.,0.));
#1074 = DIRECTION('',(0.,-1.,0.));
#1075 = ADVANCED_FACE('',(#1076),#1087,.F.);
#1076 = FACE_BOUND('',#1077,.T.);
#1077 = EDGE_LOOP('',(#1078,#1079,#1080,#1081));
#1078 = ORIENTED_EDGE('',*,*,#581,.F.);
#1079 = ORIENTED_EDGE('',*,*,#311,.T.);
#1080 = ORIENTED_EDGE('',*,*,#981,.F.);
#1081 = ORIENTED_EDGE('',*,*,#1082,.T.);
#1082 = EDGE_CURVE('',#973,#582,#1083,.T.);
#1083 = LINE('',#1084,#1085);
#1084 = CARTESIAN_POINT('',(22.6,22.5625,3.5));
#1085 = VECTOR('',#1086,1.);
#1086 = DIRECTION('',(0.,-1.,0.));
#1087 = PLANE('',#1088);
#1088 = AXIS2_PLACEMENT_3D('',#1089,#1090,#1091);
#1089 = CARTESIAN_POINT('',(22.6,16.5,3.));
#1090 = DIRECTION('',(-1.,0.,0.));
#1091 = DIRECTION('',(0.,1.,0.));
#1092 = ADVANCED_FACE('',(#1093),#1104,.F.);
#1093 = FACE_BOUND('',#1094,.T.);
#1094 = EDGE_LOOP('',(#1095,#1096,#1097,#1098));
#1095 = ORIENTED_EDGE('',*,*,#896,.F.);
#1096 = ORIENTED_EDGE('',*,*,#158,.T.);
#1097 = ORIENTED_EDGE('',*,*,#956,.F.);
#1098 = ORIENTED_EDGE('',*,*,#1099,.T.);
#1099 = EDGE_CURVE('',#948,#897,#1100,.T.);
#1100 = LINE('',#1101,#1102);
#1101 = CARTESIAN_POINT('',(36.,22.6,3.5));
#1102 = VECTOR('',#1103,1.);
#1103 = DIRECTION('',(1.,0.,0.));
#1104 = PLANE('',#1105);
#1105 = AXIS2_PLACEMENT_3D('',#1106,#1107,#1108);
#1106 = CARTESIAN_POINT('',(42.5,22.6,3.));
#1107 = DIRECTION('',(0.,-1.,0.));
#1108 = DIRECTION('',(-1.,0.,0.));
#1109 = ADVANCED_FACE('',(#1110),#1135,.T.);
#1110 = FACE_BOUND('',#1111,.T.);
#1111 = EDGE_LOOP('',(#1112,#1122,#1128,#1129));
#1112 = ORIENTED_EDGE('',*,*,#1113,.F.);
#1113 = EDGE_CURVE('',#1114,#1116,#1118,.T.);
#1114 = VERTEX_POINT('',#1115);
#1115 = CARTESIAN_POINT('',(16.55,16.55,3.5));
#1116 = VERTEX_POINT('',#1117);
#1117 = CARTESIAN_POINT('',(42.45,16.55,3.5));
#1118 = LINE('',#1119,#1120);
#1119 = CARTESIAN_POINT('',(23.,16.55,3.5));
#1120 = VECTOR('',#1121,1.);
#1121 = DIRECTION('',(1.,0.,0.));
#1122 = ORIENTED_EDGE('',*,*,#1123,.T.);
#1123 = EDGE_CURVE('',#1114,#504,#1124,.T.);
#1124 = LINE('',#1125,#1126);
#1125 = CARTESIAN_POINT('',(16.55,16.55,1.5));
#1126 = VECTOR('',#1127,1.);
#1127 = DIRECTION('',(0.,0.,-1.));
#1128 = ORIENTED_EDGE('',*,*,#503,.F.);
#1129 = ORIENTED_EDGE('',*,*,#1130,.T.);
#1130 = EDGE_CURVE('',#496,#1116,#1131,.T.);
#1131 = LINE('',#1132,#1133);
#1132 = CARTESIAN_POINT('',(42.45,16.55,1.5));
#1133 = VECTOR('',#1134,1.);
#1134 = DIRECTION('',(0.,0.,1.));
#1135 = PLANE('',#1136);
#1136 = AXIS2_PLACEMENT_3D('',#1137,#1138,#1139);
#1137 = CARTESIAN_POINT('',(16.5,16.55,1.5));
#1138 = DIRECTION('',(0.,-1.,0.));
#1139 = DIRECTION('',(1.,0.,0.));
#1140 = ADVANCED_FACE('',(#1141),#1159,.T.);
#1141 = FACE_BOUND('',#1142,.T.);
#1142 = EDGE_LOOP('',(#1143,#1144,#1152,#1158));
#1143 = ORIENTED_EDGE('',*,*,#495,.F.);
#1144 = ORIENTED_EDGE('',*,*,#1145,.F.);
#1145 = EDGE_CURVE('',#1146,#488,#1148,.T.);
#1146 = VERTEX_POINT('',#1147);
#1147 = CARTESIAN_POINT('',(42.45,40.7,3.5));
#1148 = LINE('',#1149,#1150);
#1149 = CARTESIAN_POINT('',(42.45,40.7,1.5));
#1150 = VECTOR('',#1151,1.);
#1151 = DIRECTION('',(0.,0.,-1.));
#1152 = ORIENTED_EDGE('',*,*,#1153,.F.);
#1153 = EDGE_CURVE('',#1116,#1146,#1154,.T.);
#1154 = LINE('',#1155,#1156);
#1155 = CARTESIAN_POINT('',(42.45,22.5625,3.5));
#1156 = VECTOR('',#1157,1.);
#1157 = DIRECTION('',(0.,1.,0.));
#1158 = ORIENTED_EDGE('',*,*,#1130,.F.);
#1159 = PLANE('',#1160);
#1160 = AXIS2_PLACEMENT_3D('',#1161,#1162,#1163);
#1161 = CARTESIAN_POINT('',(42.45,16.5,1.5));
#1162 = DIRECTION('',(1.,0.,0.));
#1163 = DIRECTION('',(-0.,1.,0.));
#1164 = ADVANCED_FACE('',(#1165,#1183),#1209,.T.);
#1165 = FACE_BOUND('',#1166,.T.);
#1166 = EDGE_LOOP('',(#1167,#1175,#1181,#1182));
#1167 = ORIENTED_EDGE('',*,*,#1168,.T.);
#1168 = EDGE_CURVE('',#1146,#1169,#1171,.T.);
#1169 = VERTEX_POINT('',#1170);
#1170 = CARTESIAN_POINT('',(16.55,40.7,3.5));
#1171 = LINE('',#1172,#1173);
#1172 = CARTESIAN_POINT('',(36.,40.7,3.5));
#1173 = VECTOR('',#1174,1.);
#1174 = DIRECTION('',(-1.,0.,0.));
#1175 = ORIENTED_EDGE('',*,*,#1176,.T.);
#1176 = EDGE_CURVE('',#1169,#1114,#1177,.T.);
#1177 = LINE('',#1178,#1179);
#1178 = CARTESIAN_POINT('',(16.55,34.6875,3.5));
#1179 = VECTOR('',#1180,1.);
#1180 = DIRECTION('',(0.,-1.,0.));
#1181 = ORIENTED_EDGE('',*,*,#1113,.T.);
#1182 = ORIENTED_EDGE('',*,*,#1153,.T.);
#1183 = FACE_BOUND('',#1184,.T.);
#1184 = EDGE_LOOP('',(#1185,#1186,#1187,#1188,#1189,#1190,#1191,#1192,
    #1193,#1194,#1195,#1196,#1197,#1198,#1199,#1200,#1201,#1202,#1203,
    #1204,#1205,#1206,#1207,#1208));
#1185 = ORIENTED_EDGE('',*,*,#947,.F.);
#1186 = ORIENTED_EDGE('',*,*,#558,.F.);
#1187 = ORIENTED_EDGE('',*,*,#542,.F.);
#1188 = ORIENTED_EDGE('',*,*,#616,.F.);
#1189 = ORIENTED_EDGE('',*,*,#598,.F.);
#1190 = ORIENTED_EDGE('',*,*,#1082,.F.);
#1191 = ORIENTED_EDGE('',*,*,#972,.F.);
#1192 = ORIENTED_EDGE('',*,*,#663,.F.);
#1193 = ORIENTED_EDGE('',*,*,#647,.F.);
#1194 = ORIENTED_EDGE('',*,*,#721,.F.);
#1195 = ORIENTED_EDGE('',*,*,#703,.F.);
#1196 = ORIENTED_EDGE('',*,*,#1048,.F.);
#1197 = ORIENTED_EDGE('',*,*,#1022,.F.);
#1198 = ORIENTED_EDGE('',*,*,#768,.F.);
#1199 = ORIENTED_EDGE('',*,*,#752,.F.);
#1200 = ORIENTED_EDGE('',*,*,#826,.F.);
#1201 = ORIENTED_EDGE('',*,*,#808,.F.);
#1202 = ORIENTED_EDGE('',*,*,#1065,.F.);
#1203 = ORIENTED_EDGE('',*,*,#997,.F.);
#1204 = ORIENTED_EDGE('',*,*,#873,.F.);
#1205 = ORIENTED_EDGE('',*,*,#857,.F.);
#1206 = ORIENTED_EDGE('',*,*,#931,.F.);
#1207 = ORIENTED_EDGE('',*,*,#913,.F.);
#1208 = ORIENTED_EDGE('',*,*,#1099,.F.);
#1209 = PLANE('',#1210);
#1210 = AXIS2_PLACEMENT_3D('',#1211,#1212,#1213);
#1211 = CARTESIAN_POINT('',(29.5,28.625,3.5));
#1212 = DIRECTION('',(0.,0.,1.));
#1213 = DIRECTION('',(1.,0.,-0.));
#1214 = ADVANCED_FACE('',(#1215),#1226,.T.);
#1215 = FACE_BOUND('',#1216,.T.);
#1216 = EDGE_LOOP('',(#1217,#1218,#1219,#1220));
#1217 = ORIENTED_EDGE('',*,*,#1168,.F.);
#1218 = ORIENTED_EDGE('',*,*,#1145,.T.);
#1219 = ORIENTED_EDGE('',*,*,#485,.F.);
#1220 = ORIENTED_EDGE('',*,*,#1221,.T.);
#1221 = EDGE_CURVE('',#486,#1169,#1222,.T.);
#1222 = LINE('',#1223,#1224);
#1223 = CARTESIAN_POINT('',(16.55,40.7,1.5));
#1224 = VECTOR('',#1225,1.);
#1225 = DIRECTION('',(0.,0.,1.));
#1226 = PLANE('',#1227);
#1227 = AXIS2_PLACEMENT_3D('',#1228,#1229,#1230);
#1228 = CARTESIAN_POINT('',(42.5,40.7,1.5));
#1229 = DIRECTION('',(0.,1.,0.));
#1230 = DIRECTION('',(-1.,0.,0.));
#1231 = ADVANCED_FACE('',(#1232),#1238,.T.);
#1232 = FACE_BOUND('',#1233,.T.);
#1233 = EDGE_LOOP('',(#1234,#1235,#1236,#1237));
#1234 = ORIENTED_EDGE('',*,*,#511,.F.);
#1235 = ORIENTED_EDGE('',*,*,#1123,.F.);
#1236 = ORIENTED_EDGE('',*,*,#1176,.F.);
#1237 = ORIENTED_EDGE('',*,*,#1221,.F.);
#1238 = PLANE('',#1239);
#1239 = AXIS2_PLACEMENT_3D('',#1240,#1241,#1242);
#1240 = CARTESIAN_POINT('',(16.55,40.75,1.5));
#1241 = DIRECTION('',(-1.,0.,0.));
#1242 = DIRECTION('',(0.,-1.,0.));
#1243 = ADVANCED_FACE('',(#1244),#1250,.T.);
#1244 = FACE_BOUND('',#1245,.T.);
#1245 = EDGE_LOOP('',(#1246,#1247,#1248,#1249));
#1246 = ORIENTED_EDGE('',*,*,#32,.F.);
#1247 = ORIENTED_EDGE('',*,*,#477,.F.);
#1248 = ORIENTED_EDGE('',*,*,#377,.F.);
#1249 = ORIENTED_EDGE('',*,*,#95,.T.);
#1250 = PLANE('',#1251);
#1251 = AXIS2_PLACEMENT_3D('',#1252,#1253,#1254);
#1252 = CARTESIAN_POINT('',(44.,42.25,0.));
#1253 = DIRECTION('',(0.,1.,0.));
#1254 = DIRECTION('',(-1.,0.,0.));
#1255 = ADVANCED_FACE('',(#1256),#1262,.T.);
#1256 = FACE_BOUND('',#1257,.T.);
#1257 = EDGE_LOOP('',(#1258,#1259,#1260,#1261));
#1258 = ORIENTED_EDGE('',*,*,#424,.F.);
#1259 = ORIENTED_EDGE('',*,*,#468,.F.);
#1260 = ORIENTED_EDGE('',*,*,#451,.F.);
#1261 = ORIENTED_EDGE('',*,*,#129,.T.);
#1262 = PLANE('',#1263);
#1263 = AXIS2_PLACEMENT_3D('',#1264,#1265,#1266);
#1264 = CARTESIAN_POINT('',(15.,15.,0.));
#1265 = DIRECTION('',(0.,-1.,0.));
#1266 = DIRECTION('',(1.,0.,0.));
#1267 = ( GEOMETRIC_REPRESENTATION_CONTEXT(3) 
GLOBAL_UNCERTAINTY_ASSIGNED_CONTEXT((#1271)) 
GLOBAL_UNIT_ASSIGNED_CONTEXT((#1268,#1269,#1270)) REPRESENTATION_CONTEXT
('Context #1','3D Context with UNIT and UNCERTAINTY') );
#1268 = ( LENGTH_UNIT() NAMED_UNIT(*) SI_UNIT(.MILLI.,.METRE.) );
#1269 = ( NAMED_UNIT(*) PLANE_ANGLE_UNIT() SI_UNIT($,.RADIAN.) );
#1270 = ( NAMED_UNIT(*) SI_UNIT($,.STERADIAN.) SOLID_ANGLE_UNIT() );
#1271 = UNCERTAINTY_MEASURE_WITH_UNIT(LENGTH_MEASURE(1.E-07),#1268,
  'distance_accuracy_value','confusion accuracy');
#1272 = PRODUCT_RELATED_PRODUCT_CATEGORY('part',$,(#7));
#1273 = MECHANICAL_DESIGN_GEOMETRIC_PRESENTATION_REPRESENTATION('',(
    #1274),#1267);
#1274 = STYLED_ITEM('color',(#1275),#15);
#1275 = PRESENTATION_STYLE_ASSIGNMENT((#1276,#1282));
#1276 = SURFACE_STYLE_USAGE(.BOTH.,#1277);
#1277 = SURFACE_SIDE_STYLE('',(#1278));
#1278 = SURFACE_STYLE_FILL_AREA(#1279);
#1279 = FILL_AREA_STYLE('',(#1280));
#1280 = FILL_AREA_STYLE_COLOUR('',#1281);
#1281 = COLOUR_RGB('',0.627451011593,0.627451011593,0.627451011593);
#1282 = CURVE_STYLE('',#1283,POSITIVE_LENGTH_MEASURE(0.1),#1284);
#1283 = DRAUGHTING_PRE_DEFINED_CURVE_FONT('continuous');
#1284 = COLOUR_RGB('',9.803921802644E-02,9.803921802644E-02,
  9.803921802644E-02);
ENDSEC;
END-ISO-10303-21;
