ISO-10303-21;
HEADER;
FILE_DESCRIPTION(('FreeCAD Model'),'2;1');
FILE_NAME('Open CASCADE Shape Model','2026-05-11T13:50:21',('Author'),(
    ''),'Open CASCADE STEP processor 7.8','FreeCAD','Unknown');
FILE_SCHEMA(('AUTOMOTIVE_DESIGN { 1 0 10303 214 1 1 1 1 }'));
ENDSEC;
DATA;
#1 = APPLICATION_PROTOCOL_DEFINITION('international standard',
  'automotive_design',2000,#2);
#2 = APPLICATION_CONTEXT(
  'core data for automotive mechanical design processes');
#3 = SHAPE_DEFINITION_REPRESENTATION(#4,#10);
#4 = PRODUCT_DEFINITION_SHAPE('','',#5);
#5 = PRODUCT_DEFINITION('design','',#6,#9);
#6 = PRODUCT_DEFINITION_FORMATION('','',#7);
#7 = PRODUCT('CamCaseBase','CamCaseBase','',(#8));
#8 = PRODUCT_CONTEXT('',#2,'mechanical');
#9 = PRODUCT_DEFINITION_CONTEXT('part definition',#2,'design');
#10 = ADVANCED_BREP_SHAPE_REPRESENTATION('',(#11,#15),#889);
#11 = AXIS2_PLACEMENT_3D('',#12,#13,#14);
#12 = CARTESIAN_POINT('',(0.,0.,0.));
#13 = DIRECTION('',(0.,0.,1.));
#14 = DIRECTION('',(1.,0.,-0.));
#15 = MANIFOLD_SOLID_BREP('',#16);
#16 = CLOSED_SHELL('',(#17,#59,#101,#160,#192,#227,#285,#310,#366,#384,
    #417,#426,#459,#468,#501,#513,#556,#587,#630,#647,#662,#693,#709,
    #733,#757,#781,#798,#823,#848,#880));
#17 = ADVANCED_FACE('',(#18),#54,.T.);
#18 = FACE_BOUND('',#19,.T.);
#19 = EDGE_LOOP('',(#20,#31,#39,#48));
#20 = ORIENTED_EDGE('',*,*,#21,.T.);
#21 = EDGE_CURVE('',#22,#24,#26,.T.);
#22 = VERTEX_POINT('',#23);
#23 = CARTESIAN_POINT('',(39.000000149012,11.250000149012,9.));
#24 = VERTEX_POINT('',#25);
#25 = CARTESIAN_POINT('',(37.500000149012,9.750000149012,9.));
#26 = CIRCLE('',#27,1.5);
#27 = AXIS2_PLACEMENT_3D('',#28,#29,#30);
#28 = CARTESIAN_POINT('',(37.500000149012,11.250000149012,9.));
#29 = DIRECTION('',(0.,0.,-1.));
#30 = DIRECTION('',(0.707106781187,-0.707106781187,0.));
#31 = ORIENTED_EDGE('',*,*,#32,.T.);
#32 = EDGE_CURVE('',#24,#33,#35,.T.);
#33 = VERTEX_POINT('',#34);
#34 = CARTESIAN_POINT('',(37.500000149012,9.750000149012,0.5));
#35 = LINE('',#36,#37);
#36 = CARTESIAN_POINT('',(37.500000149012,9.750000149012,0.));
#37 = VECTOR('',#38,1.);
#38 = DIRECTION('',(0.,0.,-1.));
#39 = ORIENTED_EDGE('',*,*,#40,.T.);
#40 = EDGE_CURVE('',#33,#41,#43,.T.);
#41 = VERTEX_POINT('',#42);
#42 = CARTESIAN_POINT('',(39.000000149012,11.250000149012,0.5));
#43 = CIRCLE('',#44,1.5);
#44 = AXIS2_PLACEMENT_3D('',#45,#46,#47);
#45 = CARTESIAN_POINT('',(37.500000149012,11.250000149012,0.5));
#46 = DIRECTION('',(0.,0.,1.));
#47 = DIRECTION('',(0.707106781187,-0.707106781187,0.));
#48 = ORIENTED_EDGE('',*,*,#49,.T.);
#49 = EDGE_CURVE('',#41,#22,#50,.T.);
#50 = LINE('',#51,#52);
#51 = CARTESIAN_POINT('',(39.000000149012,11.250000149012,0.));
#52 = VECTOR('',#53,1.);
#53 = DIRECTION('',(0.,0.,1.));
#54 = CYLINDRICAL_SURFACE('',#55,1.5);
#55 = AXIS2_PLACEMENT_3D('',#56,#57,#58);
#56 = CARTESIAN_POINT('',(37.500000149012,11.250000149012,0.));
#57 = DIRECTION('',(0.,0.,1.));
#58 = DIRECTION('',(0.707106781187,-0.707106781187,0.));
#59 = ADVANCED_FACE('',(#60,#85),#96,.T.);
#60 = FACE_BOUND('',#61,.T.);
#61 = EDGE_LOOP('',(#62,#63,#71,#79));
#62 = ORIENTED_EDGE('',*,*,#49,.F.);
#63 = ORIENTED_EDGE('',*,*,#64,.F.);
#64 = EDGE_CURVE('',#65,#41,#67,.T.);
#65 = VERTEX_POINT('',#66);
#66 = CARTESIAN_POINT('',(39.000000149012,35.500000149012,0.5));
#67 = LINE('',#68,#69);
#68 = CARTESIAN_POINT('',(39.000000149012,24.500000149012,0.5));
#69 = VECTOR('',#70,1.);
#70 = DIRECTION('',(0.,-1.,0.));
#71 = ORIENTED_EDGE('',*,*,#72,.F.);
#72 = EDGE_CURVE('',#73,#65,#75,.T.);
#73 = VERTEX_POINT('',#74);
#74 = CARTESIAN_POINT('',(39.000000149012,35.500000149012,9.));
#75 = LINE('',#76,#77);
#76 = CARTESIAN_POINT('',(39.000000149012,35.500000149012,1.));
#77 = VECTOR('',#78,1.);
#78 = DIRECTION('',(0.,0.,-1.));
#79 = ORIENTED_EDGE('',*,*,#80,.F.);
#80 = EDGE_CURVE('',#22,#73,#81,.T.);
#81 = LINE('',#82,#83);
#82 = CARTESIAN_POINT('',(39.000000149012,10.000000149012,9.));
#83 = VECTOR('',#84,1.);
#84 = DIRECTION('',(0.,1.,0.));
#85 = FACE_BOUND('',#86,.T.);
#86 = EDGE_LOOP('',(#87));
#87 = ORIENTED_EDGE('',*,*,#88,.T.);
#88 = EDGE_CURVE('',#89,#89,#91,.T.);
#89 = VERTEX_POINT('',#90);
#90 = CARTESIAN_POINT('',(39.000000149012,20.250000149012,6.25));
#91 = CIRCLE('',#92,2.);
#92 = AXIS2_PLACEMENT_3D('',#93,#94,#95);
#93 = CARTESIAN_POINT('',(39.000000149012,20.250000149012,4.25));
#94 = DIRECTION('',(-1.,0.,0.));
#95 = DIRECTION('',(0.,0.,-1.));
#96 = PLANE('',#97);
#97 = AXIS2_PLACEMENT_3D('',#98,#99,#100);
#98 = CARTESIAN_POINT('',(39.000000149012,10.000000149012,0.));
#99 = DIRECTION('',(1.,0.,0.));
#100 = DIRECTION('',(-0.,1.,0.));
#101 = ADVANCED_FACE('',(#102),#155,.F.);
#102 = FACE_BOUND('',#103,.T.);
#103 = EDGE_LOOP('',(#104,#105,#113,#122,#130,#139,#147,#154));
#104 = ORIENTED_EDGE('',*,*,#40,.F.);
#105 = ORIENTED_EDGE('',*,*,#106,.T.);
#106 = EDGE_CURVE('',#33,#107,#109,.T.);
#107 = VERTEX_POINT('',#108);
#108 = CARTESIAN_POINT('',(11.500000149012,9.750000149012,0.5));
#109 = LINE('',#110,#111);
#110 = CARTESIAN_POINT('',(17.250000149012,9.750000149012,0.5));
#111 = VECTOR('',#112,1.);
#112 = DIRECTION('',(-1.,0.,0.));
#113 = ORIENTED_EDGE('',*,*,#114,.F.);
#114 = EDGE_CURVE('',#115,#107,#117,.T.);
#115 = VERTEX_POINT('',#116);
#116 = CARTESIAN_POINT('',(10.000000149012,11.250000149012,0.5));
#117 = CIRCLE('',#118,1.5);
#118 = AXIS2_PLACEMENT_3D('',#119,#120,#121);
#119 = CARTESIAN_POINT('',(11.500000149012,11.250000149012,0.5));
#120 = DIRECTION('',(0.,0.,1.));
#121 = DIRECTION('',(-0.707106781187,-0.707106781187,0.));
#122 = ORIENTED_EDGE('',*,*,#123,.T.);
#123 = EDGE_CURVE('',#115,#124,#126,.T.);
#124 = VERTEX_POINT('',#125);
#125 = CARTESIAN_POINT('',(10.000000149012,35.500000149012,0.5));
#126 = LINE('',#127,#128);
#127 = CARTESIAN_POINT('',(10.000000149012,24.500000149012,0.5));
#128 = VECTOR('',#129,1.);
#129 = DIRECTION('',(0.,1.,0.));
#130 = ORIENTED_EDGE('',*,*,#131,.F.);
#131 = EDGE_CURVE('',#132,#124,#134,.T.);
#132 = VERTEX_POINT('',#133);
#133 = CARTESIAN_POINT('',(11.500000149012,37.000000149012,0.5));
#134 = CIRCLE('',#135,1.5);
#135 = AXIS2_PLACEMENT_3D('',#136,#137,#138);
#136 = CARTESIAN_POINT('',(11.500000149012,35.500000149012,0.5));
#137 = DIRECTION('',(0.,0.,1.));
#138 = DIRECTION('',(-0.707106781187,0.707106781187,0.));
#139 = ORIENTED_EDGE('',*,*,#140,.T.);
#140 = EDGE_CURVE('',#132,#141,#143,.T.);
#141 = VERTEX_POINT('',#142);
#142 = CARTESIAN_POINT('',(37.500000149012,37.000000149012,0.5));
#143 = LINE('',#144,#145);
#144 = CARTESIAN_POINT('',(31.750000149012,37.000000149012,0.5));
#145 = VECTOR('',#146,1.);
#146 = DIRECTION('',(1.,0.,0.));
#147 = ORIENTED_EDGE('',*,*,#148,.F.);
#148 = EDGE_CURVE('',#65,#141,#149,.T.);
#149 = CIRCLE('',#150,1.5);
#150 = AXIS2_PLACEMENT_3D('',#151,#152,#153);
#151 = CARTESIAN_POINT('',(37.500000149012,35.500000149012,0.5));
#152 = DIRECTION('',(0.,0.,1.));
#153 = DIRECTION('',(0.707106781187,0.707106781187,-0.));
#154 = ORIENTED_EDGE('',*,*,#64,.T.);
#155 = PLANE('',#156);
#156 = AXIS2_PLACEMENT_3D('',#157,#158,#159);
#157 = CARTESIAN_POINT('',(24.500000149012,24.500000149012,0.5));
#158 = DIRECTION('',(0.,0.,1.));
#159 = DIRECTION('',(1.,0.,-0.));
#160 = ADVANCED_FACE('',(#161),#187,.T.);
#161 = FACE_BOUND('',#162,.T.);
#162 = EDGE_LOOP('',(#163,#174,#180,#181));
#163 = ORIENTED_EDGE('',*,*,#164,.T.);
#164 = EDGE_CURVE('',#165,#167,#169,.T.);
#165 = VERTEX_POINT('',#166);
#166 = CARTESIAN_POINT('',(11.500000149012,9.750000149012,9.));
#167 = VERTEX_POINT('',#168);
#168 = CARTESIAN_POINT('',(10.000000149012,11.250000149012,9.));
#169 = CIRCLE('',#170,1.5);
#170 = AXIS2_PLACEMENT_3D('',#171,#172,#173);
#171 = CARTESIAN_POINT('',(11.500000149012,11.250000149012,9.));
#172 = DIRECTION('',(0.,0.,-1.));
#173 = DIRECTION('',(-0.707106781187,-0.707106781187,-0.));
#174 = ORIENTED_EDGE('',*,*,#175,.T.);
#175 = EDGE_CURVE('',#167,#115,#176,.T.);
#176 = LINE('',#177,#178);
#177 = CARTESIAN_POINT('',(10.000000149012,11.250000149012,0.));
#178 = VECTOR('',#179,1.);
#179 = DIRECTION('',(0.,0.,-1.));
#180 = ORIENTED_EDGE('',*,*,#114,.T.);
#181 = ORIENTED_EDGE('',*,*,#182,.T.);
#182 = EDGE_CURVE('',#107,#165,#183,.T.);
#183 = LINE('',#184,#185);
#184 = CARTESIAN_POINT('',(11.500000149012,9.750000149012,0.));
#185 = VECTOR('',#186,1.);
#186 = DIRECTION('',(0.,0.,1.));
#187 = CYLINDRICAL_SURFACE('',#188,1.5);
#188 = AXIS2_PLACEMENT_3D('',#189,#190,#191);
#189 = CARTESIAN_POINT('',(11.500000149012,11.250000149012,0.));
#190 = DIRECTION('',(0.,0.,1.));
#191 = DIRECTION('',(-0.707106781187,-0.707106781187,0.));
#192 = ADVANCED_FACE('',(#193,#211),#222,.T.);
#193 = FACE_BOUND('',#194,.T.);
#194 = EDGE_LOOP('',(#195,#196,#204,#210));
#195 = ORIENTED_EDGE('',*,*,#175,.F.);
#196 = ORIENTED_EDGE('',*,*,#197,.F.);
#197 = EDGE_CURVE('',#198,#167,#200,.T.);
#198 = VERTEX_POINT('',#199);
#199 = CARTESIAN_POINT('',(10.000000149012,35.500000149012,9.));
#200 = LINE('',#201,#202);
#201 = CARTESIAN_POINT('',(10.000000149012,39.000000149012,9.));
#202 = VECTOR('',#203,1.);
#203 = DIRECTION('',(0.,-1.,0.));
#204 = ORIENTED_EDGE('',*,*,#205,.F.);
#205 = EDGE_CURVE('',#124,#198,#206,.T.);
#206 = LINE('',#207,#208);
#207 = CARTESIAN_POINT('',(10.000000149012,35.500000149012,1.));
#208 = VECTOR('',#209,1.);
#209 = DIRECTION('',(0.,0.,1.));
#210 = ORIENTED_EDGE('',*,*,#123,.F.);
#211 = FACE_BOUND('',#212,.T.);
#212 = EDGE_LOOP('',(#213));
#213 = ORIENTED_EDGE('',*,*,#214,.T.);
#214 = EDGE_CURVE('',#215,#215,#217,.T.);
#215 = VERTEX_POINT('',#216);
#216 = CARTESIAN_POINT('',(10.000000149012,20.250000149012,2.25));
#217 = CIRCLE('',#218,2.);
#218 = AXIS2_PLACEMENT_3D('',#219,#220,#221);
#219 = CARTESIAN_POINT('',(10.000000149012,20.250000149012,4.25));
#220 = DIRECTION('',(1.,0.,-0.));
#221 = DIRECTION('',(0.,0.,1.));
#222 = PLANE('',#223);
#223 = AXIS2_PLACEMENT_3D('',#224,#225,#226);
#224 = CARTESIAN_POINT('',(10.000000149012,39.000000149012,0.));
#225 = DIRECTION('',(-1.,0.,0.));
#226 = DIRECTION('',(0.,-1.,0.));
#227 = ADVANCED_FACE('',(#228),#280,.T.);
#228 = FACE_BOUND('',#229,.T.);
#229 = EDGE_LOOP('',(#230,#231,#232,#241,#249,#257,#265,#272,#273,#274)
  );
#230 = ORIENTED_EDGE('',*,*,#21,.F.);
#231 = ORIENTED_EDGE('',*,*,#80,.T.);
#232 = ORIENTED_EDGE('',*,*,#233,.F.);
#233 = EDGE_CURVE('',#234,#73,#236,.T.);
#234 = VERTEX_POINT('',#235);
#235 = CARTESIAN_POINT('',(37.500000551343,37.000000349903,9.));
#236 = CIRCLE('',#237,1.5);
#237 = AXIS2_PLACEMENT_3D('',#238,#239,#240);
#238 = CARTESIAN_POINT('',(37.500000149012,35.500000149012,9.));
#239 = DIRECTION('',(0.,0.,-1.));
#240 = DIRECTION('',(0.707106781187,0.707106781187,0.));
#241 = ORIENTED_EDGE('',*,*,#242,.F.);
#242 = EDGE_CURVE('',#243,#234,#245,.T.);
#243 = VERTEX_POINT('',#244);
#244 = CARTESIAN_POINT('',(37.500000551343,11.250000178814,9.));
#245 = LINE('',#246,#247);
#246 = CARTESIAN_POINT('',(37.500000551343,30.750000350177,9.));
#247 = VECTOR('',#248,1.);
#248 = DIRECTION('',(0.,1.,0.));
#249 = ORIENTED_EDGE('',*,*,#250,.T.);
#250 = EDGE_CURVE('',#243,#251,#253,.T.);
#251 = VERTEX_POINT('',#252);
#252 = CARTESIAN_POINT('',(11.500000178814,11.250000178814,9.));
#253 = LINE('',#254,#255);
#254 = CARTESIAN_POINT('',(37.000000551343,11.250000178814,9.));
#255 = VECTOR('',#256,1.);
#256 = DIRECTION('',(-1.,0.,0.));
#257 = ORIENTED_EDGE('',*,*,#258,.F.);
#258 = EDGE_CURVE('',#259,#251,#261,.T.);
#259 = VERTEX_POINT('',#260);
#260 = CARTESIAN_POINT('',(11.500000178814,37.000000149528,9.));
#261 = LINE('',#262,#263);
#262 = CARTESIAN_POINT('',(11.500000178814,17.875000163913,9.));
#263 = VECTOR('',#264,1.);
#264 = DIRECTION('',(0.,-1.,0.));
#265 = ORIENTED_EDGE('',*,*,#266,.F.);
#266 = EDGE_CURVE('',#198,#259,#267,.T.);
#267 = CIRCLE('',#268,1.5);
#268 = AXIS2_PLACEMENT_3D('',#269,#270,#271);
#269 = CARTESIAN_POINT('',(11.500000149012,35.500000149012,9.));
#270 = DIRECTION('',(0.,0.,-1.));
#271 = DIRECTION('',(-0.707106781187,0.707106781187,0.));
#272 = ORIENTED_EDGE('',*,*,#197,.T.);
#273 = ORIENTED_EDGE('',*,*,#164,.F.);
#274 = ORIENTED_EDGE('',*,*,#275,.F.);
#275 = EDGE_CURVE('',#24,#165,#276,.T.);
#276 = LINE('',#277,#278);
#277 = CARTESIAN_POINT('',(17.250000149012,9.750000149012,9.));
#278 = VECTOR('',#279,1.);
#279 = DIRECTION('',(-1.,0.,0.));
#280 = PLANE('',#281);
#281 = AXIS2_PLACEMENT_3D('',#282,#283,#284);
#282 = CARTESIAN_POINT('',(24.500000149012,24.500000149012,9.));
#283 = DIRECTION('',(0.,0.,1.));
#284 = DIRECTION('',(1.,0.,-0.));
#285 = ADVANCED_FACE('',(#286),#305,.T.);
#286 = FACE_BOUND('',#287,.T.);
#287 = EDGE_LOOP('',(#288,#289,#290,#291,#299));
#288 = ORIENTED_EDGE('',*,*,#233,.T.);
#289 = ORIENTED_EDGE('',*,*,#72,.T.);
#290 = ORIENTED_EDGE('',*,*,#148,.T.);
#291 = ORIENTED_EDGE('',*,*,#292,.T.);
#292 = EDGE_CURVE('',#141,#293,#295,.T.);
#293 = VERTEX_POINT('',#294);
#294 = CARTESIAN_POINT('',(37.500000551343,37.00000047639,4.5));
#295 = LINE('',#296,#297);
#296 = CARTESIAN_POINT('',(37.500000149012,37.000000149012,1.));
#297 = VECTOR('',#298,1.);
#298 = DIRECTION('',(0.,0.,1.));
#299 = ORIENTED_EDGE('',*,*,#300,.T.);
#300 = EDGE_CURVE('',#293,#234,#301,.T.);
#301 = LINE('',#302,#303);
#302 = CARTESIAN_POINT('',(37.500000551343,37.000000551343,2.));
#303 = VECTOR('',#304,1.);
#304 = DIRECTION('',(0.,0.,1.));
#305 = CYLINDRICAL_SURFACE('',#306,1.5);
#306 = AXIS2_PLACEMENT_3D('',#307,#308,#309);
#307 = CARTESIAN_POINT('',(37.500000149012,35.500000149012,1.));
#308 = DIRECTION('',(0.,0.,1.));
#309 = DIRECTION('',(0.707106781187,0.707106781187,-0.));
#310 = ADVANCED_FACE('',(#311),#361,.T.);
#311 = FACE_BOUND('',#312,.T.);
#312 = EDGE_LOOP('',(#313,#314,#315,#323,#331,#339,#347,#355));
#313 = ORIENTED_EDGE('',*,*,#292,.F.);
#314 = ORIENTED_EDGE('',*,*,#140,.F.);
#315 = ORIENTED_EDGE('',*,*,#316,.F.);
#316 = EDGE_CURVE('',#317,#132,#319,.T.);
#317 = VERTEX_POINT('',#318);
#318 = CARTESIAN_POINT('',(11.500000178814,37.000000149012,4.5));
#319 = LINE('',#320,#321);
#320 = CARTESIAN_POINT('',(11.500000149012,37.000000149012,1.));
#321 = VECTOR('',#322,1.);
#322 = DIRECTION('',(0.,0.,-1.));
#323 = ORIENTED_EDGE('',*,*,#324,.T.);
#324 = EDGE_CURVE('',#317,#325,#327,.T.);
#325 = VERTEX_POINT('',#326);
#326 = CARTESIAN_POINT('',(13.750000178814,37.000000349901,4.5));
#327 = LINE('',#328,#329);
#328 = CARTESIAN_POINT('',(19.000000271946,37.000000149012,4.5));
#329 = VECTOR('',#330,1.);
#330 = DIRECTION('',(1.,0.,0.));
#331 = ORIENTED_EDGE('',*,*,#332,.T.);
#332 = EDGE_CURVE('',#325,#333,#335,.T.);
#333 = VERTEX_POINT('',#334);
#334 = CARTESIAN_POINT('',(13.750000178814,37.000000349903,2.5));
#335 = LINE('',#336,#337);
#336 = CARTESIAN_POINT('',(13.750000178814,37.000000551343,2.));
#337 = VECTOR('',#338,1.);
#338 = DIRECTION('',(0.,0.,-1.));
#339 = ORIENTED_EDGE('',*,*,#340,.F.);
#340 = EDGE_CURVE('',#341,#333,#343,.T.);
#341 = VERTEX_POINT('',#342);
#342 = CARTESIAN_POINT('',(35.250000551343,37.000000349903,2.5));
#343 = LINE('',#344,#345);
#344 = CARTESIAN_POINT('',(19.000000163913,37.000000149012,2.5));
#345 = VECTOR('',#346,1.);
#346 = DIRECTION('',(-1.,0.,0.));
#347 = ORIENTED_EDGE('',*,*,#348,.T.);
#348 = EDGE_CURVE('',#341,#349,#351,.T.);
#349 = VERTEX_POINT('',#350);
#350 = CARTESIAN_POINT('',(35.250000551343,37.00000047639,4.5));
#351 = LINE('',#352,#353);
#352 = CARTESIAN_POINT('',(35.250000551343,37.000000551343,2.));
#353 = VECTOR('',#354,1.);
#354 = DIRECTION('',(0.,0.,1.));
#355 = ORIENTED_EDGE('',*,*,#356,.T.);
#356 = EDGE_CURVE('',#349,#293,#357,.T.);
#357 = LINE('',#358,#359);
#358 = CARTESIAN_POINT('',(30.750000458211,37.000000402331,4.5));
#359 = VECTOR('',#360,1.);
#360 = DIRECTION('',(1.,0.,0.));
#361 = PLANE('',#362);
#362 = AXIS2_PLACEMENT_3D('',#363,#364,#365);
#363 = CARTESIAN_POINT('',(13.500000178814,37.000000149012,2.));
#364 = DIRECTION('',(0.,1.,0.));
#365 = DIRECTION('',(-1.,0.,0.));
#366 = ADVANCED_FACE('',(#367),#379,.T.);
#367 = FACE_BOUND('',#368,.T.);
#368 = EDGE_LOOP('',(#369,#370,#376,#377,#378));
#369 = ORIENTED_EDGE('',*,*,#266,.T.);
#370 = ORIENTED_EDGE('',*,*,#371,.T.);
#371 = EDGE_CURVE('',#259,#317,#372,.T.);
#372 = LINE('',#373,#374);
#373 = CARTESIAN_POINT('',(11.500000178814,37.000000149012,1.));
#374 = VECTOR('',#375,1.);
#375 = DIRECTION('',(0.,0.,-1.));
#376 = ORIENTED_EDGE('',*,*,#316,.T.);
#377 = ORIENTED_EDGE('',*,*,#131,.T.);
#378 = ORIENTED_EDGE('',*,*,#205,.T.);
#379 = CYLINDRICAL_SURFACE('',#380,1.5);
#380 = AXIS2_PLACEMENT_3D('',#381,#382,#383);
#381 = CARTESIAN_POINT('',(11.500000149012,35.500000149012,1.));
#382 = DIRECTION('',(0.,0.,1.));
#383 = DIRECTION('',(-0.707106781187,0.707106781187,0.));
#384 = ADVANCED_FACE('',(#385),#412,.T.);
#385 = FACE_BOUND('',#386,.T.);
#386 = EDGE_LOOP('',(#387,#396,#404,#411));
#387 = ORIENTED_EDGE('',*,*,#388,.F.);
#388 = EDGE_CURVE('',#389,#389,#391,.T.);
#389 = VERTEX_POINT('',#390);
#390 = CARTESIAN_POINT('',(34.250000551343,26.000000178814,6.5));
#391 = CIRCLE('',#392,0.75);
#392 = AXIS2_PLACEMENT_3D('',#393,#394,#395);
#393 = CARTESIAN_POINT('',(35.000000551343,26.000000178814,6.5));
#394 = DIRECTION('',(0.,0.,1.));
#395 = DIRECTION('',(1.,0.,-0.));
#396 = ORIENTED_EDGE('',*,*,#397,.T.);
#397 = EDGE_CURVE('',#389,#398,#400,.T.);
#398 = VERTEX_POINT('',#399);
#399 = CARTESIAN_POINT('',(34.250000551343,26.000000178814,4.5));
#400 = LINE('',#401,#402);
#401 = CARTESIAN_POINT('',(34.250000551343,26.000000178814,4.5));
#402 = VECTOR('',#403,1.);
#403 = DIRECTION('',(0.,0.,-1.));
#404 = ORIENTED_EDGE('',*,*,#405,.F.);
#405 = EDGE_CURVE('',#398,#398,#406,.T.);
#406 = CIRCLE('',#407,0.75);
#407 = AXIS2_PLACEMENT_3D('',#408,#409,#410);
#408 = CARTESIAN_POINT('',(35.000000551343,26.000000178814,4.5));
#409 = DIRECTION('',(0.,0.,-1.));
#410 = DIRECTION('',(1.,0.,0.));
#411 = ORIENTED_EDGE('',*,*,#397,.F.);
#412 = CYLINDRICAL_SURFACE('',#413,0.75);
#413 = AXIS2_PLACEMENT_3D('',#414,#415,#416);
#414 = CARTESIAN_POINT('',(35.000000551343,26.000000178814,4.5));
#415 = DIRECTION('',(0.,0.,1.));
#416 = DIRECTION('',(1.,0.,-0.));
#417 = ADVANCED_FACE('',(#418),#421,.T.);
#418 = FACE_BOUND('',#419,.T.);
#419 = EDGE_LOOP('',(#420));
#420 = ORIENTED_EDGE('',*,*,#388,.T.);
#421 = PLANE('',#422);
#422 = AXIS2_PLACEMENT_3D('',#423,#424,#425);
#423 = CARTESIAN_POINT('',(35.000000551343,26.000000178814,6.5));
#424 = DIRECTION('',(0.,0.,1.));
#425 = DIRECTION('',(1.,0.,-0.));
#426 = ADVANCED_FACE('',(#427),#454,.T.);
#427 = FACE_BOUND('',#428,.T.);
#428 = EDGE_LOOP('',(#429,#438,#446,#453));
#429 = ORIENTED_EDGE('',*,*,#430,.F.);
#430 = EDGE_CURVE('',#431,#431,#433,.T.);
#431 = VERTEX_POINT('',#432);
#432 = CARTESIAN_POINT('',(13.250000208616,26.000000178814,6.5));
#433 = CIRCLE('',#434,0.75);
#434 = AXIS2_PLACEMENT_3D('',#435,#436,#437);
#435 = CARTESIAN_POINT('',(14.000000208616,26.000000178814,6.5));
#436 = DIRECTION('',(0.,0.,1.));
#437 = DIRECTION('',(1.,0.,-0.));
#438 = ORIENTED_EDGE('',*,*,#439,.T.);
#439 = EDGE_CURVE('',#431,#440,#442,.T.);
#440 = VERTEX_POINT('',#441);
#441 = CARTESIAN_POINT('',(13.250000208616,26.000000178814,4.5));
#442 = LINE('',#443,#444);
#443 = CARTESIAN_POINT('',(13.250000208616,26.000000178814,4.5));
#444 = VECTOR('',#445,1.);
#445 = DIRECTION('',(0.,0.,-1.));
#446 = ORIENTED_EDGE('',*,*,#447,.F.);
#447 = EDGE_CURVE('',#440,#440,#448,.T.);
#448 = CIRCLE('',#449,0.75);
#449 = AXIS2_PLACEMENT_3D('',#450,#451,#452);
#450 = CARTESIAN_POINT('',(14.000000208616,26.000000178814,4.5));
#451 = DIRECTION('',(0.,0.,-1.));
#452 = DIRECTION('',(1.,0.,0.));
#453 = ORIENTED_EDGE('',*,*,#439,.F.);
#454 = CYLINDRICAL_SURFACE('',#455,0.75);
#455 = AXIS2_PLACEMENT_3D('',#456,#457,#458);
#456 = CARTESIAN_POINT('',(14.000000208616,26.000000178814,4.5));
#457 = DIRECTION('',(0.,0.,1.));
#458 = DIRECTION('',(1.,0.,-0.));
#459 = ADVANCED_FACE('',(#460),#463,.T.);
#460 = FACE_BOUND('',#461,.T.);
#461 = EDGE_LOOP('',(#462));
#462 = ORIENTED_EDGE('',*,*,#430,.T.);
#463 = PLANE('',#464);
#464 = AXIS2_PLACEMENT_3D('',#465,#466,#467);
#465 = CARTESIAN_POINT('',(14.000000208616,26.000000178814,6.5));
#466 = DIRECTION('',(0.,0.,1.));
#467 = DIRECTION('',(1.,0.,-0.));
#468 = ADVANCED_FACE('',(#469),#496,.T.);
#469 = FACE_BOUND('',#470,.T.);
#470 = EDGE_LOOP('',(#471,#480,#488,#495));
#471 = ORIENTED_EDGE('',*,*,#472,.F.);
#472 = EDGE_CURVE('',#473,#473,#475,.T.);
#473 = VERTEX_POINT('',#474);
#474 = CARTESIAN_POINT('',(34.250000551343,13.250000178814,6.5));
#475 = CIRCLE('',#476,0.75);
#476 = AXIS2_PLACEMENT_3D('',#477,#478,#479);
#477 = CARTESIAN_POINT('',(35.000000551343,13.250000178814,6.5));
#478 = DIRECTION('',(0.,0.,1.));
#479 = DIRECTION('',(1.,0.,-0.));
#480 = ORIENTED_EDGE('',*,*,#481,.T.);
#481 = EDGE_CURVE('',#473,#482,#484,.T.);
#482 = VERTEX_POINT('',#483);
#483 = CARTESIAN_POINT('',(34.250000551343,13.250000178814,4.5));
#484 = LINE('',#485,#486);
#485 = CARTESIAN_POINT('',(34.250000551343,13.250000178814,4.5));
#486 = VECTOR('',#487,1.);
#487 = DIRECTION('',(0.,0.,-1.));
#488 = ORIENTED_EDGE('',*,*,#489,.F.);
#489 = EDGE_CURVE('',#482,#482,#490,.T.);
#490 = CIRCLE('',#491,0.75);
#491 = AXIS2_PLACEMENT_3D('',#492,#493,#494);
#492 = CARTESIAN_POINT('',(35.000000551343,13.250000178814,4.5));
#493 = DIRECTION('',(0.,0.,-1.));
#494 = DIRECTION('',(1.,0.,0.));
#495 = ORIENTED_EDGE('',*,*,#481,.F.);
#496 = CYLINDRICAL_SURFACE('',#497,0.75);
#497 = AXIS2_PLACEMENT_3D('',#498,#499,#500);
#498 = CARTESIAN_POINT('',(35.000000551343,13.250000178814,4.5));
#499 = DIRECTION('',(0.,0.,1.));
#500 = DIRECTION('',(1.,0.,-0.));
#501 = ADVANCED_FACE('',(#502),#508,.T.);
#502 = FACE_BOUND('',#503,.T.);
#503 = EDGE_LOOP('',(#504,#505,#506,#507));
#504 = ORIENTED_EDGE('',*,*,#32,.F.);
#505 = ORIENTED_EDGE('',*,*,#275,.T.);
#506 = ORIENTED_EDGE('',*,*,#182,.F.);
#507 = ORIENTED_EDGE('',*,*,#106,.F.);
#508 = PLANE('',#509);
#509 = AXIS2_PLACEMENT_3D('',#510,#511,#512);
#510 = CARTESIAN_POINT('',(10.000000149012,9.750000149012,0.));
#511 = DIRECTION('',(0.,-1.,0.));
#512 = DIRECTION('',(1.,0.,0.));
#513 = ADVANCED_FACE('',(#514),#551,.F.);
#514 = FACE_BOUND('',#515,.F.);
#515 = EDGE_LOOP('',(#516,#524,#533,#542,#549,#550));
#516 = ORIENTED_EDGE('',*,*,#517,.T.);
#517 = EDGE_CURVE('',#215,#518,#520,.T.);
#518 = VERTEX_POINT('',#519);
#519 = CARTESIAN_POINT('',(11.500000178814,20.250000149012,2.25));
#520 = LINE('',#521,#522);
#521 = CARTESIAN_POINT('',(10.000000149012,20.250000149012,2.25));
#522 = VECTOR('',#523,1.);
#523 = DIRECTION('',(1.,0.,0.));
#524 = ORIENTED_EDGE('',*,*,#525,.F.);
#525 = EDGE_CURVE('',#526,#518,#528,.T.);
#526 = VERTEX_POINT('',#527);
#527 = CARTESIAN_POINT('',(11.500000164844,18.265686665713,4.5));
#528 = CIRCLE('',#529,2.);
#529 = AXIS2_PLACEMENT_3D('',#530,#531,#532);
#530 = CARTESIAN_POINT('',(11.500000149012,20.250000149012,4.25));
#531 = DIRECTION('',(1.,0.,-0.));
#532 = DIRECTION('',(0.,0.,1.));
#533 = ORIENTED_EDGE('',*,*,#534,.T.);
#534 = EDGE_CURVE('',#526,#535,#537,.T.);
#535 = VERTEX_POINT('',#536);
#536 = CARTESIAN_POINT('',(11.500000164844,22.23431363231,4.5));
#537 = CIRCLE('',#538,2.);
#538 = AXIS2_PLACEMENT_3D('',#539,#540,#541);
#539 = CARTESIAN_POINT('',(11.500000178814,20.250000149012,4.25));
#540 = DIRECTION('',(-1.,0.,0.));
#541 = DIRECTION('',(0.,0.,1.));
#542 = ORIENTED_EDGE('',*,*,#543,.F.);
#543 = EDGE_CURVE('',#518,#535,#544,.T.);
#544 = CIRCLE('',#545,2.);
#545 = AXIS2_PLACEMENT_3D('',#546,#547,#548);
#546 = CARTESIAN_POINT('',(11.500000149012,20.250000149012,4.25));
#547 = DIRECTION('',(1.,0.,-0.));
#548 = DIRECTION('',(0.,0.,1.));
#549 = ORIENTED_EDGE('',*,*,#517,.F.);
#550 = ORIENTED_EDGE('',*,*,#214,.T.);
#551 = CYLINDRICAL_SURFACE('',#552,2.);
#552 = AXIS2_PLACEMENT_3D('',#553,#554,#555);
#553 = CARTESIAN_POINT('',(10.000000149012,20.250000149012,4.25));
#554 = DIRECTION('',(1.,0.,0.));
#555 = DIRECTION('',(0.,0.,1.));
#556 = ADVANCED_FACE('',(#557),#582,.T.);
#557 = FACE_BOUND('',#558,.T.);
#558 = EDGE_LOOP('',(#559,#567,#568,#576));
#559 = ORIENTED_EDGE('',*,*,#560,.F.);
#560 = EDGE_CURVE('',#341,#561,#563,.T.);
#561 = VERTEX_POINT('',#562);
#562 = CARTESIAN_POINT('',(35.250000551343,28.250000402331,2.5));
#563 = LINE('',#564,#565);
#564 = CARTESIAN_POINT('',(35.250000551343,31.375000275671,2.5));
#565 = VECTOR('',#566,1.);
#566 = DIRECTION('',(0.,-1.,0.));
#567 = ORIENTED_EDGE('',*,*,#340,.T.);
#568 = ORIENTED_EDGE('',*,*,#569,.F.);
#569 = EDGE_CURVE('',#570,#333,#572,.T.);
#570 = VERTEX_POINT('',#571);
#571 = CARTESIAN_POINT('',(13.750000178814,28.250000402331,2.5));
#572 = LINE('',#573,#574);
#573 = CARTESIAN_POINT('',(13.750000178814,25.875000275671,2.5));
#574 = VECTOR('',#575,1.);
#575 = DIRECTION('',(0.,1.,0.));
#576 = ORIENTED_EDGE('',*,*,#577,.T.);
#577 = EDGE_CURVE('',#570,#561,#578,.T.);
#578 = LINE('',#579,#580);
#579 = CARTESIAN_POINT('',(30.750000350177,28.250000402331,2.5));
#580 = VECTOR('',#581,1.);
#581 = DIRECTION('',(1.,0.,0.));
#582 = PLANE('',#583);
#583 = AXIS2_PLACEMENT_3D('',#584,#585,#586);
#584 = CARTESIAN_POINT('',(24.500000149012,24.500000149012,2.5));
#585 = DIRECTION('',(0.,0.,1.));
#586 = DIRECTION('',(1.,0.,-0.));
#587 = ADVANCED_FACE('',(#588),#625,.F.);
#588 = FACE_BOUND('',#589,.F.);
#589 = EDGE_LOOP('',(#590,#598,#607,#616,#623,#624));
#590 = ORIENTED_EDGE('',*,*,#591,.T.);
#591 = EDGE_CURVE('',#89,#592,#594,.T.);
#592 = VERTEX_POINT('',#593);
#593 = CARTESIAN_POINT('',(37.500000149012,20.250000149012,6.25));
#594 = LINE('',#595,#596);
#595 = CARTESIAN_POINT('',(39.000000149012,20.250000149012,6.25));
#596 = VECTOR('',#597,1.);
#597 = DIRECTION('',(-1.,0.,0.));
#598 = ORIENTED_EDGE('',*,*,#599,.T.);
#599 = EDGE_CURVE('',#592,#600,#602,.T.);
#600 = VERTEX_POINT('',#601);
#601 = CARTESIAN_POINT('',(37.500000350963,18.265686665713,4.5));
#602 = CIRCLE('',#603,2.);
#603 = AXIS2_PLACEMENT_3D('',#604,#605,#606);
#604 = CARTESIAN_POINT('',(37.500000551343,20.250000149012,4.25));
#605 = DIRECTION('',(1.,0.,0.));
#606 = DIRECTION('',(0.,0.,-1.));
#607 = ORIENTED_EDGE('',*,*,#608,.F.);
#608 = EDGE_CURVE('',#609,#600,#611,.T.);
#609 = VERTEX_POINT('',#610);
#610 = CARTESIAN_POINT('',(37.500000350963,22.23431363231,4.5));
#611 = CIRCLE('',#612,2.);
#612 = AXIS2_PLACEMENT_3D('',#613,#614,#615);
#613 = CARTESIAN_POINT('',(37.500000149012,20.250000149012,4.25));
#614 = DIRECTION('',(-1.,0.,0.));
#615 = DIRECTION('',(0.,0.,-1.));
#616 = ORIENTED_EDGE('',*,*,#617,.T.);
#617 = EDGE_CURVE('',#609,#592,#618,.T.);
#618 = CIRCLE('',#619,2.);
#619 = AXIS2_PLACEMENT_3D('',#620,#621,#622);
#620 = CARTESIAN_POINT('',(37.500000551343,20.250000149012,4.25));
#621 = DIRECTION('',(1.,0.,0.));
#622 = DIRECTION('',(0.,0.,-1.));
#623 = ORIENTED_EDGE('',*,*,#591,.F.);
#624 = ORIENTED_EDGE('',*,*,#88,.T.);
#625 = CYLINDRICAL_SURFACE('',#626,2.);
#626 = AXIS2_PLACEMENT_3D('',#627,#628,#629);
#627 = CARTESIAN_POINT('',(39.000000149012,20.250000149012,4.25));
#628 = DIRECTION('',(-1.,0.,0.));
#629 = DIRECTION('',(0.,0.,-1.));
#630 = ADVANCED_FACE('',(#631),#642,.T.);
#631 = FACE_BOUND('',#632,.T.);
#632 = EDGE_LOOP('',(#633));
#633 = ORIENTED_EDGE('',*,*,#634,.T.);
#634 = EDGE_CURVE('',#635,#635,#637,.T.);
#635 = VERTEX_POINT('',#636);
#636 = CARTESIAN_POINT('',(13.250000208616,13.250000178814,6.5));
#637 = CIRCLE('',#638,0.75);
#638 = AXIS2_PLACEMENT_3D('',#639,#640,#641);
#639 = CARTESIAN_POINT('',(14.000000208616,13.250000178814,6.5));
#640 = DIRECTION('',(0.,0.,1.));
#641 = DIRECTION('',(1.,0.,-0.));
#642 = PLANE('',#643);
#643 = AXIS2_PLACEMENT_3D('',#644,#645,#646);
#644 = CARTESIAN_POINT('',(14.000000208616,13.250000178814,6.5));
#645 = DIRECTION('',(0.,0.,1.));
#646 = DIRECTION('',(1.,0.,-0.));
#647 = ADVANCED_FACE('',(#648),#657,.T.);
#648 = FACE_BOUND('',#649,.T.);
#649 = EDGE_LOOP('',(#650,#656));
#650 = ORIENTED_EDGE('',*,*,#651,.F.);
#651 = EDGE_CURVE('',#600,#609,#652,.T.);
#652 = LINE('',#653,#654);
#653 = CARTESIAN_POINT('',(37.500000551343,28.125000420958,4.5));
#654 = VECTOR('',#655,1.);
#655 = DIRECTION('',(0.,1.,0.));
#656 = ORIENTED_EDGE('',*,*,#608,.F.);
#657 = PLANE('',#658);
#658 = AXIS2_PLACEMENT_3D('',#659,#660,#661);
#659 = CARTESIAN_POINT('',(37.500000149012,20.250000149012,4.25));
#660 = DIRECTION('',(1.,0.,0.));
#661 = DIRECTION('',(0.,0.,-1.));
#662 = ADVANCED_FACE('',(#663),#688,.T.);
#663 = FACE_BOUND('',#664,.T.);
#664 = EDGE_LOOP('',(#665,#675,#681,#682));
#665 = ORIENTED_EDGE('',*,*,#666,.T.);
#666 = EDGE_CURVE('',#667,#669,#671,.T.);
#667 = VERTEX_POINT('',#668);
#668 = CARTESIAN_POINT('',(37.500000551343,11.250000178814,4.5));
#669 = VERTEX_POINT('',#670);
#670 = CARTESIAN_POINT('',(11.500000178814,11.250000178814,4.5));
#671 = LINE('',#672,#673);
#672 = CARTESIAN_POINT('',(30.750000458211,11.250000178814,4.5));
#673 = VECTOR('',#674,1.);
#674 = DIRECTION('',(-1.,0.,0.));
#675 = ORIENTED_EDGE('',*,*,#676,.T.);
#676 = EDGE_CURVE('',#669,#251,#677,.T.);
#677 = LINE('',#678,#679);
#678 = CARTESIAN_POINT('',(11.500000178814,11.250000178814,2.));
#679 = VECTOR('',#680,1.);
#680 = DIRECTION('',(0.,0.,1.));
#681 = ORIENTED_EDGE('',*,*,#250,.F.);
#682 = ORIENTED_EDGE('',*,*,#683,.T.);
#683 = EDGE_CURVE('',#243,#667,#684,.T.);
#684 = LINE('',#685,#686);
#685 = CARTESIAN_POINT('',(37.500000551343,11.250000178814,2.));
#686 = VECTOR('',#687,1.);
#687 = DIRECTION('',(0.,0.,-1.));
#688 = PLANE('',#689);
#689 = AXIS2_PLACEMENT_3D('',#690,#691,#692);
#690 = CARTESIAN_POINT('',(37.000000551343,11.250000178814,2.));
#691 = DIRECTION('',(0.,1.,0.));
#692 = DIRECTION('',(-1.,0.,0.));
#693 = ADVANCED_FACE('',(#694),#704,.T.);
#694 = FACE_BOUND('',#695,.T.);
#695 = EDGE_LOOP('',(#696,#702,#703));
#696 = ORIENTED_EDGE('',*,*,#697,.F.);
#697 = EDGE_CURVE('',#535,#526,#698,.T.);
#698 = LINE('',#699,#700);
#699 = CARTESIAN_POINT('',(11.500000178814,15.250000234693,4.5));
#700 = VECTOR('',#701,1.);
#701 = DIRECTION('',(0.,-1.,0.));
#702 = ORIENTED_EDGE('',*,*,#543,.F.);
#703 = ORIENTED_EDGE('',*,*,#525,.F.);
#704 = PLANE('',#705);
#705 = AXIS2_PLACEMENT_3D('',#706,#707,#708);
#706 = CARTESIAN_POINT('',(11.500000149012,20.250000149012,4.25));
#707 = DIRECTION('',(-1.,0.,0.));
#708 = DIRECTION('',(0.,0.,1.));
#709 = ADVANCED_FACE('',(#710),#728,.T.);
#710 = FACE_BOUND('',#711,.T.);
#711 = EDGE_LOOP('',(#712,#718,#719,#720,#721,#727));
#712 = ORIENTED_EDGE('',*,*,#713,.F.);
#713 = EDGE_CURVE('',#317,#535,#714,.T.);
#714 = LINE('',#715,#716);
#715 = CARTESIAN_POINT('',(11.500000178814,15.250000234693,4.5));
#716 = VECTOR('',#717,1.);
#717 = DIRECTION('',(0.,-1.,0.));
#718 = ORIENTED_EDGE('',*,*,#371,.F.);
#719 = ORIENTED_EDGE('',*,*,#258,.T.);
#720 = ORIENTED_EDGE('',*,*,#676,.F.);
#721 = ORIENTED_EDGE('',*,*,#722,.F.);
#722 = EDGE_CURVE('',#526,#669,#723,.T.);
#723 = LINE('',#724,#725);
#724 = CARTESIAN_POINT('',(11.500000178814,15.250000234693,4.5));
#725 = VECTOR('',#726,1.);
#726 = DIRECTION('',(0.,-1.,0.));
#727 = ORIENTED_EDGE('',*,*,#534,.T.);
#728 = PLANE('',#729);
#729 = AXIS2_PLACEMENT_3D('',#730,#731,#732);
#730 = CARTESIAN_POINT('',(11.500000178814,11.250000178814,2.));
#731 = DIRECTION('',(1.,0.,0.));
#732 = DIRECTION('',(-0.,1.,0.));
#733 = ADVANCED_FACE('',(#734),#752,.T.);
#734 = FACE_BOUND('',#735,.T.);
#735 = EDGE_LOOP('',(#736,#737,#745,#751));
#736 = ORIENTED_EDGE('',*,*,#332,.F.);
#737 = ORIENTED_EDGE('',*,*,#738,.T.);
#738 = EDGE_CURVE('',#325,#739,#741,.T.);
#739 = VERTEX_POINT('',#740);
#740 = CARTESIAN_POINT('',(13.750000178814,28.250000402331,4.5));
#741 = LINE('',#742,#743);
#742 = CARTESIAN_POINT('',(13.750000178814,23.250000346452,4.5));
#743 = VECTOR('',#744,1.);
#744 = DIRECTION('',(0.,-1.,0.));
#745 = ORIENTED_EDGE('',*,*,#746,.T.);
#746 = EDGE_CURVE('',#739,#570,#747,.T.);
#747 = LINE('',#748,#749);
#748 = CARTESIAN_POINT('',(13.750000178814,28.250000402331,2.));
#749 = VECTOR('',#750,1.);
#750 = DIRECTION('',(0.,0.,-1.));
#751 = ORIENTED_EDGE('',*,*,#569,.T.);
#752 = PLANE('',#753);
#753 = AXIS2_PLACEMENT_3D('',#754,#755,#756);
#754 = CARTESIAN_POINT('',(13.750000178814,27.250000402331,2.));
#755 = DIRECTION('',(1.,0.,0.));
#756 = DIRECTION('',(-0.,1.,0.));
#757 = ADVANCED_FACE('',(#758),#776,.T.);
#758 = FACE_BOUND('',#759,.T.);
#759 = EDGE_LOOP('',(#760,#768,#769,#770));
#760 = ORIENTED_EDGE('',*,*,#761,.F.);
#761 = EDGE_CURVE('',#561,#762,#764,.T.);
#762 = VERTEX_POINT('',#763);
#763 = CARTESIAN_POINT('',(35.250000551343,28.250000402331,4.5));
#764 = LINE('',#765,#766);
#765 = CARTESIAN_POINT('',(35.250000551343,28.250000402331,2.));
#766 = VECTOR('',#767,1.);
#767 = DIRECTION('',(0.,0.,1.));
#768 = ORIENTED_EDGE('',*,*,#577,.F.);
#769 = ORIENTED_EDGE('',*,*,#746,.F.);
#770 = ORIENTED_EDGE('',*,*,#771,.T.);
#771 = EDGE_CURVE('',#739,#762,#772,.T.);
#772 = LINE('',#773,#774);
#773 = CARTESIAN_POINT('',(30.750000458211,28.250000402331,4.5));
#774 = VECTOR('',#775,1.);
#775 = DIRECTION('',(1.,0.,0.));
#776 = PLANE('',#777);
#777 = AXIS2_PLACEMENT_3D('',#778,#779,#780);
#778 = CARTESIAN_POINT('',(37.000000551343,28.250000402331,2.));
#779 = DIRECTION('',(0.,1.,0.));
#780 = DIRECTION('',(-1.,0.,0.));
#781 = ADVANCED_FACE('',(#782),#793,.T.);
#782 = FACE_BOUND('',#783,.T.);
#783 = EDGE_LOOP('',(#784,#785,#786,#787));
#784 = ORIENTED_EDGE('',*,*,#348,.F.);
#785 = ORIENTED_EDGE('',*,*,#560,.T.);
#786 = ORIENTED_EDGE('',*,*,#761,.T.);
#787 = ORIENTED_EDGE('',*,*,#788,.T.);
#788 = EDGE_CURVE('',#762,#349,#789,.T.);
#789 = LINE('',#790,#791);
#790 = CARTESIAN_POINT('',(35.250000551343,28.750000346452,4.5));
#791 = VECTOR('',#792,1.);
#792 = DIRECTION('',(0.,1.,0.));
#793 = PLANE('',#794);
#794 = AXIS2_PLACEMENT_3D('',#795,#796,#797);
#795 = CARTESIAN_POINT('',(35.250000551343,38.250000402331,2.));
#796 = DIRECTION('',(-1.,0.,0.));
#797 = DIRECTION('',(0.,-1.,0.));
#798 = ADVANCED_FACE('',(#799),#818,.T.);
#799 = FACE_BOUND('',#800,.T.);
#800 = EDGE_LOOP('',(#801,#802,#808,#809,#810,#816,#817));
#801 = ORIENTED_EDGE('',*,*,#300,.F.);
#802 = ORIENTED_EDGE('',*,*,#803,.F.);
#803 = EDGE_CURVE('',#609,#293,#804,.T.);
#804 = LINE('',#805,#806);
#805 = CARTESIAN_POINT('',(37.500000551343,28.125000420958,4.5));
#806 = VECTOR('',#807,1.);
#807 = DIRECTION('',(0.,1.,0.));
#808 = ORIENTED_EDGE('',*,*,#617,.T.);
#809 = ORIENTED_EDGE('',*,*,#599,.T.);
#810 = ORIENTED_EDGE('',*,*,#811,.F.);
#811 = EDGE_CURVE('',#667,#600,#812,.T.);
#812 = LINE('',#813,#814);
#813 = CARTESIAN_POINT('',(37.500000551343,28.125000420958,4.5));
#814 = VECTOR('',#815,1.);
#815 = DIRECTION('',(0.,1.,0.));
#816 = ORIENTED_EDGE('',*,*,#683,.F.);
#817 = ORIENTED_EDGE('',*,*,#242,.T.);
#818 = PLANE('',#819);
#819 = AXIS2_PLACEMENT_3D('',#820,#821,#822);
#820 = CARTESIAN_POINT('',(37.500000551343,37.000000551343,2.));
#821 = DIRECTION('',(-1.,0.,0.));
#822 = DIRECTION('',(0.,-1.,0.));
#823 = ADVANCED_FACE('',(#824),#843,.T.);
#824 = FACE_BOUND('',#825,.T.);
#825 = EDGE_LOOP('',(#826,#827,#835,#842));
#826 = ORIENTED_EDGE('',*,*,#634,.F.);
#827 = ORIENTED_EDGE('',*,*,#828,.T.);
#828 = EDGE_CURVE('',#635,#829,#831,.T.);
#829 = VERTEX_POINT('',#830);
#830 = CARTESIAN_POINT('',(13.250000208616,13.250000178814,4.5));
#831 = LINE('',#832,#833);
#832 = CARTESIAN_POINT('',(13.250000208616,13.250000178814,4.5));
#833 = VECTOR('',#834,1.);
#834 = DIRECTION('',(0.,0.,-1.));
#835 = ORIENTED_EDGE('',*,*,#836,.F.);
#836 = EDGE_CURVE('',#829,#829,#837,.T.);
#837 = CIRCLE('',#838,0.75);
#838 = AXIS2_PLACEMENT_3D('',#839,#840,#841);
#839 = CARTESIAN_POINT('',(14.000000208616,13.250000178814,4.5));
#840 = DIRECTION('',(0.,0.,-1.));
#841 = DIRECTION('',(1.,0.,0.));
#842 = ORIENTED_EDGE('',*,*,#828,.F.);
#843 = CYLINDRICAL_SURFACE('',#844,0.75);
#844 = AXIS2_PLACEMENT_3D('',#845,#846,#847);
#845 = CARTESIAN_POINT('',(14.000000208616,13.250000178814,4.5));
#846 = DIRECTION('',(0.,0.,1.));
#847 = DIRECTION('',(1.,0.,-0.));
#848 = ADVANCED_FACE('',(#849,#863,#866,#869,#872),#875,.T.);
#849 = FACE_BOUND('',#850,.T.);
#850 = EDGE_LOOP('',(#851,#852,#853,#854,#855,#856,#857,#858,#859,#860,
    #861,#862));
#851 = ORIENTED_EDGE('',*,*,#803,.T.);
#852 = ORIENTED_EDGE('',*,*,#356,.F.);
#853 = ORIENTED_EDGE('',*,*,#788,.F.);
#854 = ORIENTED_EDGE('',*,*,#771,.F.);
#855 = ORIENTED_EDGE('',*,*,#738,.F.);
#856 = ORIENTED_EDGE('',*,*,#324,.F.);
#857 = ORIENTED_EDGE('',*,*,#713,.T.);
#858 = ORIENTED_EDGE('',*,*,#697,.T.);
#859 = ORIENTED_EDGE('',*,*,#722,.T.);
#860 = ORIENTED_EDGE('',*,*,#666,.F.);
#861 = ORIENTED_EDGE('',*,*,#811,.T.);
#862 = ORIENTED_EDGE('',*,*,#651,.T.);
#863 = FACE_BOUND('',#864,.T.);
#864 = EDGE_LOOP('',(#865));
#865 = ORIENTED_EDGE('',*,*,#405,.T.);
#866 = FACE_BOUND('',#867,.T.);
#867 = EDGE_LOOP('',(#868));
#868 = ORIENTED_EDGE('',*,*,#447,.T.);
#869 = FACE_BOUND('',#870,.T.);
#870 = EDGE_LOOP('',(#871));
#871 = ORIENTED_EDGE('',*,*,#489,.T.);
#872 = FACE_BOUND('',#873,.T.);
#873 = EDGE_LOOP('',(#874));
#874 = ORIENTED_EDGE('',*,*,#836,.T.);
#875 = PLANE('',#876);
#876 = AXIS2_PLACEMENT_3D('',#877,#878,#879);
#877 = CARTESIAN_POINT('',(24.500000365078,19.250000290573,4.5));
#878 = DIRECTION('',(0.,0.,1.));
#879 = DIRECTION('',(1.,0.,-0.));
#880 = ADVANCED_FACE('',(#881),#884,.T.);
#881 = FACE_BOUND('',#882,.T.);
#882 = EDGE_LOOP('',(#883));
#883 = ORIENTED_EDGE('',*,*,#472,.T.);
#884 = PLANE('',#885);
#885 = AXIS2_PLACEMENT_3D('',#886,#887,#888);
#886 = CARTESIAN_POINT('',(35.000000551343,13.250000178814,6.5));
#887 = DIRECTION('',(0.,0.,1.));
#888 = DIRECTION('',(1.,0.,-0.));
#889 = ( GEOMETRIC_REPRESENTATION_CONTEXT(3) 
GLOBAL_UNCERTAINTY_ASSIGNED_CONTEXT((#893)) GLOBAL_UNIT_ASSIGNED_CONTEXT
((#890,#891,#892)) REPRESENTATION_CONTEXT('Context #1',
  '3D Context with UNIT and UNCERTAINTY') );
#890 = ( LENGTH_UNIT() NAMED_UNIT(*) SI_UNIT(.MILLI.,.METRE.) );
#891 = ( NAMED_UNIT(*) PLANE_ANGLE_UNIT() SI_UNIT($,.RADIAN.) );
#892 = ( NAMED_UNIT(*) SI_UNIT($,.STERADIAN.) SOLID_ANGLE_UNIT() );
#893 = UNCERTAINTY_MEASURE_WITH_UNIT(LENGTH_MEASURE(2.E-07),#890,
  'distance_accuracy_value','confusion accuracy');
#894 = PRODUCT_RELATED_PRODUCT_CATEGORY('part',$,(#7));
#895 = MECHANICAL_DESIGN_GEOMETRIC_PRESENTATION_REPRESENTATION('',(#896)
  ,#889);
#896 = STYLED_ITEM('color',(#897),#15);
#897 = PRESENTATION_STYLE_ASSIGNMENT((#898,#904));
#898 = SURFACE_STYLE_USAGE(.BOTH.,#899);
#899 = SURFACE_SIDE_STYLE('',(#900));
#900 = SURFACE_STYLE_FILL_AREA(#901);
#901 = FILL_AREA_STYLE('',(#902));
#902 = FILL_AREA_STYLE_COLOUR('',#903);
#903 = COLOUR_RGB('',0.627451011593,0.627451011593,0.627451011593);
#904 = CURVE_STYLE('',#905,POSITIVE_LENGTH_MEASURE(0.1),#906);
#905 = DRAUGHTING_PRE_DEFINED_CURVE_FONT('continuous');
#906 = COLOUR_RGB('',9.803921802644E-02,9.803921802644E-02,
  9.803921802644E-02);
ENDSEC;
END-ISO-10303-21;
