ISO-10303-21;
HEADER;
/* Generated by software containing ST-Developer
 * from STEP Tools, Inc. (www.steptools.com) 
 */

FILE_DESCRIPTION(
/* description */ (''),
/* implementation_level */ '2;1');

FILE_NAME(
/* name */ 
'/var/folders/_l/pjyt202j6xn5l7jx__8v7kl80000gn/T/com.autodesk.mas.fus
ion360/Neutron/5920be1d-ad93-4225-b151-fdb8a8ae3b26.stp',
/* time_stamp */ '2018-08-01T13:56:16-04:00',
/* author */ ('LazaroFilm'),
/* organization */ (''),
/* preprocessor_version */ 'ST-DEVELOPER v17',
/* originating_system */ 'Autodesk Translation Framework v7.1.0.215',
/* authorisation */ '');

FILE_SCHEMA (('AUTOMOTIVE_DESIGN { 1 0 10303 214 3 1 1 }'));
ENDSEC;

DATA;
#10=MECHANICAL_DESIGN_GEOMETRIC_PRESENTATION_REPRESENTATION('',(#13),#1285);
#11=SHAPE_REPRESENTATION_RELATIONSHIP('SRR','None',#1292,#12);
#12=ADVANCED_BREP_SHAPE_REPRESENTATION('',(#14),#1284);
#13=STYLED_ITEM('',(#1302),#14);
#14=MANIFOLD_SOLID_BREP('Body1',#757);
#15=FACE_BOUND('',#83,.T.);
#16=FACE_BOUND('',#89,.T.);
#17=FACE_BOUND('',#117,.T.);
#18=PLANE('',#774);
#19=PLANE('',#775);
#20=PLANE('',#793);
#21=PLANE('',#798);
#22=PLANE('',#801);
#23=PLANE('',#804);
#24=PLANE('',#807);
#25=PLANE('',#810);
#26=PLANE('',#813);
#27=PLANE('',#816);
#28=PLANE('',#819);
#29=PLANE('',#822);
#30=PLANE('',#831);
#31=PLANE('',#832);
#32=PLANE('',#833);
#33=PLANE('',#834);
#34=PLANE('',#835);
#35=PLANE('',#836);
#36=PLANE('',#837);
#37=PLANE('',#838);
#38=PLANE('',#839);
#39=PLANE('',#840);
#40=PLANE('',#841);
#41=FACE_OUTER_BOUND('',#80,.T.);
#42=FACE_OUTER_BOUND('',#81,.T.);
#43=FACE_OUTER_BOUND('',#82,.T.);
#44=FACE_OUTER_BOUND('',#84,.T.);
#45=FACE_OUTER_BOUND('',#85,.T.);
#46=FACE_OUTER_BOUND('',#86,.T.);
#47=FACE_OUTER_BOUND('',#87,.T.);
#48=FACE_OUTER_BOUND('',#88,.T.);
#49=FACE_OUTER_BOUND('',#90,.T.);
#50=FACE_OUTER_BOUND('',#91,.T.);
#51=FACE_OUTER_BOUND('',#92,.T.);
#52=FACE_OUTER_BOUND('',#93,.T.);
#53=FACE_OUTER_BOUND('',#94,.T.);
#54=FACE_OUTER_BOUND('',#95,.T.);
#55=FACE_OUTER_BOUND('',#96,.T.);
#56=FACE_OUTER_BOUND('',#97,.T.);
#57=FACE_OUTER_BOUND('',#98,.T.);
#58=FACE_OUTER_BOUND('',#99,.T.);
#59=FACE_OUTER_BOUND('',#100,.T.);
#60=FACE_OUTER_BOUND('',#101,.T.);
#61=FACE_OUTER_BOUND('',#102,.T.);
#62=FACE_OUTER_BOUND('',#103,.T.);
#63=FACE_OUTER_BOUND('',#104,.T.);
#64=FACE_OUTER_BOUND('',#105,.T.);
#65=FACE_OUTER_BOUND('',#106,.T.);
#66=FACE_OUTER_BOUND('',#107,.T.);
#67=FACE_OUTER_BOUND('',#108,.T.);
#68=FACE_OUTER_BOUND('',#109,.T.);
#69=FACE_OUTER_BOUND('',#110,.T.);
#70=FACE_OUTER_BOUND('',#111,.T.);
#71=FACE_OUTER_BOUND('',#112,.T.);
#72=FACE_OUTER_BOUND('',#113,.T.);
#73=FACE_OUTER_BOUND('',#114,.T.);
#74=FACE_OUTER_BOUND('',#115,.T.);
#75=FACE_OUTER_BOUND('',#116,.T.);
#76=FACE_OUTER_BOUND('',#118,.T.);
#77=FACE_OUTER_BOUND('',#119,.T.);
#78=FACE_OUTER_BOUND('',#120,.T.);
#79=FACE_OUTER_BOUND('',#121,.T.);
#80=EDGE_LOOP('',(#486,#487,#488,#489));
#81=EDGE_LOOP('',(#490,#491,#492,#493));
#82=EDGE_LOOP('',(#494,#495,#496,#497,#498,#499,#500,#501));
#83=EDGE_LOOP('',(#502,#503,#504,#505,#506,#507,#508,#509,#510,#511,#512,
#513,#514,#515,#516,#517,#518,#519,#520,#521,#522,#523,#524,#525));
#84=EDGE_LOOP('',(#526,#527,#528,#529));
#85=EDGE_LOOP('',(#530,#531,#532,#533));
#86=EDGE_LOOP('',(#534,#535,#536,#537));
#87=EDGE_LOOP('',(#538,#539,#540,#541));
#88=EDGE_LOOP('',(#542,#543,#544,#545,#546,#547,#548,#549));
#89=EDGE_LOOP('',(#550,#551,#552,#553));
#90=EDGE_LOOP('',(#554,#555,#556,#557));
#91=EDGE_LOOP('',(#558,#559,#560,#561));
#92=EDGE_LOOP('',(#562,#563,#564,#565));
#93=EDGE_LOOP('',(#566,#567,#568,#569));
#94=EDGE_LOOP('',(#570,#571,#572,#573));
#95=EDGE_LOOP('',(#574,#575,#576,#577));
#96=EDGE_LOOP('',(#578,#579,#580,#581));
#97=EDGE_LOOP('',(#582,#583,#584,#585));
#98=EDGE_LOOP('',(#586,#587,#588,#589));
#99=EDGE_LOOP('',(#590,#591,#592,#593));
#100=EDGE_LOOP('',(#594,#595,#596,#597));
#101=EDGE_LOOP('',(#598,#599,#600,#601));
#102=EDGE_LOOP('',(#602,#603,#604,#605));
#103=EDGE_LOOP('',(#606,#607,#608,#609));
#104=EDGE_LOOP('',(#610,#611,#612,#613));
#105=EDGE_LOOP('',(#614,#615,#616,#617));
#106=EDGE_LOOP('',(#618,#619,#620,#621));
#107=EDGE_LOOP('',(#622,#623,#624,#625));
#108=EDGE_LOOP('',(#626,#627,#628,#629));
#109=EDGE_LOOP('',(#630,#631,#632,#633));
#110=EDGE_LOOP('',(#634,#635,#636,#637));
#111=EDGE_LOOP('',(#638,#639,#640,#641));
#112=EDGE_LOOP('',(#642,#643,#644,#645));
#113=EDGE_LOOP('',(#646,#647,#648,#649));
#114=EDGE_LOOP('',(#650,#651,#652,#653));
#115=EDGE_LOOP('',(#654,#655,#656,#657));
#116=EDGE_LOOP('',(#658,#659,#660,#661));
#117=EDGE_LOOP('',(#662,#663,#664,#665,#666,#667,#668,#669,#670,#671,#672,
#673,#674,#675,#676,#677,#678,#679,#680,#681,#682,#683,#684,#685));
#118=EDGE_LOOP('',(#686,#687,#688,#689));
#119=EDGE_LOOP('',(#690,#691,#692,#693));
#120=EDGE_LOOP('',(#694,#695,#696,#697));
#121=EDGE_LOOP('',(#698,#699,#700,#701));
#122=LINE('',#1068,#198);
#123=LINE('',#1071,#199);
#124=LINE('',#1074,#200);
#125=LINE('',#1076,#201);
#126=LINE('',#1077,#202);
#127=LINE('',#1080,#203);
#128=LINE('',#1084,#204);
#129=LINE('',#1088,#205);
#130=LINE('',#1094,#206);
#131=LINE('',#1098,#207);
#132=LINE('',#1102,#208);
#133=LINE('',#1106,#209);
#134=LINE('',#1110,#210);
#135=LINE('',#1114,#211);
#136=LINE('',#1118,#212);
#137=LINE('',#1122,#213);
#138=LINE('',#1126,#214);
#139=LINE('',#1130,#215);
#140=LINE('',#1134,#216);
#141=LINE('',#1137,#217);
#142=LINE('',#1142,#218);
#143=LINE('',#1143,#219);
#144=LINE('',#1146,#220);
#145=LINE('',#1147,#221);
#146=LINE('',#1151,#222);
#147=LINE('',#1155,#223);
#148=LINE('',#1157,#224);
#149=LINE('',#1158,#225);
#150=LINE('',#1161,#226);
#151=LINE('',#1163,#227);
#152=LINE('',#1165,#228);
#153=LINE('',#1166,#229);
#154=LINE('',#1171,#230);
#155=LINE('',#1172,#231);
#156=LINE('',#1175,#232);
#157=LINE('',#1176,#233);
#158=LINE('',#1181,#234);
#159=LINE('',#1182,#235);
#160=LINE('',#1184,#236);
#161=LINE('',#1189,#237);
#162=LINE('',#1190,#238);
#163=LINE('',#1193,#239);
#164=LINE('',#1194,#240);
#165=LINE('',#1199,#241);
#166=LINE('',#1200,#242);
#167=LINE('',#1202,#243);
#168=LINE('',#1207,#244);
#169=LINE('',#1208,#245);
#170=LINE('',#1211,#246);
#171=LINE('',#1212,#247);
#172=LINE('',#1217,#248);
#173=LINE('',#1218,#249);
#174=LINE('',#1220,#250);
#175=LINE('',#1225,#251);
#176=LINE('',#1226,#252);
#177=LINE('',#1229,#253);
#178=LINE('',#1230,#254);
#179=LINE('',#1235,#255);
#180=LINE('',#1236,#256);
#181=LINE('',#1238,#257);
#182=LINE('',#1242,#258);
#183=LINE('',#1246,#259);
#184=LINE('',#1250,#260);
#185=LINE('',#1254,#261);
#186=LINE('',#1256,#262);
#187=LINE('',#1258,#263);
#188=LINE('',#1260,#264);
#189=LINE('',#1262,#265);
#190=LINE('',#1266,#266);
#191=LINE('',#1267,#267);
#192=LINE('',#1268,#268);
#193=LINE('',#1271,#269);
#194=LINE('',#1272,#270);
#195=LINE('',#1275,#271);
#196=LINE('',#1276,#272);
#197=LINE('',#1278,#273);
#198=VECTOR('',#848,10.);
#199=VECTOR('',#851,10.);
#200=VECTOR('',#854,10.);
#201=VECTOR('',#855,10.);
#202=VECTOR('',#856,10.);
#203=VECTOR('',#859,10.);
#204=VECTOR('',#862,10.);
#205=VECTOR('',#865,10.);
#206=VECTOR('',#870,10.);
#207=VECTOR('',#873,10.);
#208=VECTOR('',#876,10.);
#209=VECTOR('',#879,10.);
#210=VECTOR('',#882,10.);
#211=VECTOR('',#885,10.);
#212=VECTOR('',#888,10.);
#213=VECTOR('',#891,10.);
#214=VECTOR('',#894,10.);
#215=VECTOR('',#897,10.);
#216=VECTOR('',#900,10.);
#217=VECTOR('',#903,10.);
#218=VECTOR('',#908,10.);
#219=VECTOR('',#909,10.);
#220=VECTOR('',#912,10.);
#221=VECTOR('',#913,10.);
#222=VECTOR('',#918,10.);
#223=VECTOR('',#923,10.);
#224=VECTOR('',#926,10.);
#225=VECTOR('',#927,10.);
#226=VECTOR('',#928,10.);
#227=VECTOR('',#929,10.);
#228=VECTOR('',#930,10.);
#229=VECTOR('',#931,10.);
#230=VECTOR('',#936,10.);
#231=VECTOR('',#937,10.);
#232=VECTOR('',#940,10.);
#233=VECTOR('',#941,10.);
#234=VECTOR('',#946,10.);
#235=VECTOR('',#947,10.);
#236=VECTOR('',#950,10.);
#237=VECTOR('',#955,10.);
#238=VECTOR('',#956,10.);
#239=VECTOR('',#959,10.);
#240=VECTOR('',#960,10.);
#241=VECTOR('',#965,10.);
#242=VECTOR('',#966,10.);
#243=VECTOR('',#969,10.);
#244=VECTOR('',#974,10.);
#245=VECTOR('',#975,10.);
#246=VECTOR('',#978,10.);
#247=VECTOR('',#979,10.);
#248=VECTOR('',#984,10.);
#249=VECTOR('',#985,10.);
#250=VECTOR('',#988,10.);
#251=VECTOR('',#993,10.);
#252=VECTOR('',#994,10.);
#253=VECTOR('',#997,10.);
#254=VECTOR('',#998,10.);
#255=VECTOR('',#1003,10.);
#256=VECTOR('',#1004,10.);
#257=VECTOR('',#1007,10.);
#258=VECTOR('',#1012,10.);
#259=VECTOR('',#1017,10.);
#260=VECTOR('',#1022,10.);
#261=VECTOR('',#1027,10.);
#262=VECTOR('',#1030,10.);
#263=VECTOR('',#1033,10.);
#264=VECTOR('',#1036,10.);
#265=VECTOR('',#1039,10.);
#266=VECTOR('',#1042,10.);
#267=VECTOR('',#1043,10.);
#268=VECTOR('',#1044,10.);
#269=VECTOR('',#1047,10.);
#270=VECTOR('',#1048,10.);
#271=VECTOR('',#1051,10.);
#272=VECTOR('',#1052,10.);
#273=VECTOR('',#1055,10.);
#274=CIRCLE('',#772,1.5);
#275=CIRCLE('',#773,1.5);
#276=CIRCLE('',#776,1.5);
#277=CIRCLE('',#777,1.5);
#278=CIRCLE('',#778,1.5);
#279=CIRCLE('',#779,1.5);
#280=CIRCLE('',#780,1.5);
#281=CIRCLE('',#781,1.5);
#282=CIRCLE('',#782,1.5);
#283=CIRCLE('',#783,1.5);
#284=CIRCLE('',#784,1.5);
#285=CIRCLE('',#785,1.5);
#286=CIRCLE('',#786,1.5);
#287=CIRCLE('',#787,1.5);
#288=CIRCLE('',#788,1.5);
#289=CIRCLE('',#789,1.5);
#290=CIRCLE('',#790,1.5);
#291=CIRCLE('',#792,1.5);
#292=CIRCLE('',#795,1.5);
#293=CIRCLE('',#797,1.5);
#294=CIRCLE('',#800,1.5);
#295=CIRCLE('',#803,1.5);
#296=CIRCLE('',#806,1.5);
#297=CIRCLE('',#809,1.5);
#298=CIRCLE('',#812,1.5);
#299=CIRCLE('',#815,1.5);
#300=CIRCLE('',#818,1.5);
#301=CIRCLE('',#821,1.5);
#302=CIRCLE('',#824,1.5);
#303=CIRCLE('',#826,1.5);
#304=CIRCLE('',#828,1.5);
#305=CIRCLE('',#830,1.5);
#306=VERTEX_POINT('',#1064);
#307=VERTEX_POINT('',#1065);
#308=VERTEX_POINT('',#1067);
#309=VERTEX_POINT('',#1069);
#310=VERTEX_POINT('',#1073);
#311=VERTEX_POINT('',#1075);
#312=VERTEX_POINT('',#1079);
#313=VERTEX_POINT('',#1081);
#314=VERTEX_POINT('',#1083);
#315=VERTEX_POINT('',#1085);
#316=VERTEX_POINT('',#1087);
#317=VERTEX_POINT('',#1090);
#318=VERTEX_POINT('',#1091);
#319=VERTEX_POINT('',#1093);
#320=VERTEX_POINT('',#1095);
#321=VERTEX_POINT('',#1097);
#322=VERTEX_POINT('',#1099);
#323=VERTEX_POINT('',#1101);
#324=VERTEX_POINT('',#1103);
#325=VERTEX_POINT('',#1105);
#326=VERTEX_POINT('',#1107);
#327=VERTEX_POINT('',#1109);
#328=VERTEX_POINT('',#1111);
#329=VERTEX_POINT('',#1113);
#330=VERTEX_POINT('',#1115);
#331=VERTEX_POINT('',#1117);
#332=VERTEX_POINT('',#1119);
#333=VERTEX_POINT('',#1121);
#334=VERTEX_POINT('',#1123);
#335=VERTEX_POINT('',#1125);
#336=VERTEX_POINT('',#1127);
#337=VERTEX_POINT('',#1129);
#338=VERTEX_POINT('',#1131);
#339=VERTEX_POINT('',#1133);
#340=VERTEX_POINT('',#1135);
#341=VERTEX_POINT('',#1139);
#342=VERTEX_POINT('',#1140);
#343=VERTEX_POINT('',#1145);
#344=VERTEX_POINT('',#1149);
#345=VERTEX_POINT('',#1153);
#346=VERTEX_POINT('',#1159);
#347=VERTEX_POINT('',#1160);
#348=VERTEX_POINT('',#1162);
#349=VERTEX_POINT('',#1164);
#350=VERTEX_POINT('',#1168);
#351=VERTEX_POINT('',#1169);
#352=VERTEX_POINT('',#1174);
#353=VERTEX_POINT('',#1178);
#354=VERTEX_POINT('',#1179);
#355=VERTEX_POINT('',#1186);
#356=VERTEX_POINT('',#1187);
#357=VERTEX_POINT('',#1192);
#358=VERTEX_POINT('',#1196);
#359=VERTEX_POINT('',#1197);
#360=VERTEX_POINT('',#1204);
#361=VERTEX_POINT('',#1205);
#362=VERTEX_POINT('',#1210);
#363=VERTEX_POINT('',#1214);
#364=VERTEX_POINT('',#1215);
#365=VERTEX_POINT('',#1222);
#366=VERTEX_POINT('',#1223);
#367=VERTEX_POINT('',#1228);
#368=VERTEX_POINT('',#1232);
#369=VERTEX_POINT('',#1233);
#370=VERTEX_POINT('',#1240);
#371=VERTEX_POINT('',#1244);
#372=VERTEX_POINT('',#1248);
#373=VERTEX_POINT('',#1252);
#374=VERTEX_POINT('',#1264);
#375=VERTEX_POINT('',#1265);
#376=VERTEX_POINT('',#1270);
#377=VERTEX_POINT('',#1274);
#378=EDGE_CURVE('',#306,#307,#274,.T.);
#379=EDGE_CURVE('',#307,#308,#122,.T.);
#380=EDGE_CURVE('',#308,#309,#275,.T.);
#381=EDGE_CURVE('',#309,#306,#123,.T.);
#382=EDGE_CURVE('',#309,#310,#124,.T.);
#383=EDGE_CURVE('',#311,#310,#125,.T.);
#384=EDGE_CURVE('',#306,#311,#126,.T.);
#385=EDGE_CURVE('',#312,#308,#127,.T.);
#386=EDGE_CURVE('',#313,#312,#276,.T.);
#387=EDGE_CURVE('',#314,#313,#128,.T.);
#388=EDGE_CURVE('',#315,#314,#277,.T.);
#389=EDGE_CURVE('',#316,#315,#129,.T.);
#390=EDGE_CURVE('',#310,#316,#278,.T.);
#391=EDGE_CURVE('',#317,#318,#279,.T.);
#392=EDGE_CURVE('',#317,#319,#130,.F.);
#393=EDGE_CURVE('',#320,#319,#280,.T.);
#394=EDGE_CURVE('',#320,#321,#131,.F.);
#395=EDGE_CURVE('',#322,#321,#281,.T.);
#396=EDGE_CURVE('',#322,#323,#132,.F.);
#397=EDGE_CURVE('',#324,#323,#282,.T.);
#398=EDGE_CURVE('',#324,#325,#133,.F.);
#399=EDGE_CURVE('',#326,#325,#283,.T.);
#400=EDGE_CURVE('',#326,#327,#134,.F.);
#401=EDGE_CURVE('',#328,#327,#284,.T.);
#402=EDGE_CURVE('',#328,#329,#135,.F.);
#403=EDGE_CURVE('',#330,#329,#285,.T.);
#404=EDGE_CURVE('',#330,#331,#136,.F.);
#405=EDGE_CURVE('',#332,#331,#286,.T.);
#406=EDGE_CURVE('',#332,#333,#137,.F.);
#407=EDGE_CURVE('',#334,#333,#287,.T.);
#408=EDGE_CURVE('',#334,#335,#138,.F.);
#409=EDGE_CURVE('',#336,#335,#288,.T.);
#410=EDGE_CURVE('',#336,#337,#139,.F.);
#411=EDGE_CURVE('',#338,#337,#289,.T.);
#412=EDGE_CURVE('',#338,#339,#140,.F.);
#413=EDGE_CURVE('',#340,#339,#290,.T.);
#414=EDGE_CURVE('',#340,#318,#141,.F.);
#415=EDGE_CURVE('',#341,#342,#291,.T.);
#416=EDGE_CURVE('',#342,#313,#142,.T.);
#417=EDGE_CURVE('',#312,#341,#143,.T.);
#418=EDGE_CURVE('',#343,#342,#144,.T.);
#419=EDGE_CURVE('',#314,#343,#145,.T.);
#420=EDGE_CURVE('',#343,#344,#292,.T.);
#421=EDGE_CURVE('',#344,#315,#146,.T.);
#422=EDGE_CURVE('',#345,#311,#293,.T.);
#423=EDGE_CURVE('',#316,#345,#147,.T.);
#424=EDGE_CURVE('',#345,#344,#148,.T.);
#425=EDGE_CURVE('',#341,#307,#149,.T.);
#426=EDGE_CURVE('',#346,#347,#150,.T.);
#427=EDGE_CURVE('',#347,#348,#151,.T.);
#428=EDGE_CURVE('',#348,#349,#152,.T.);
#429=EDGE_CURVE('',#349,#346,#153,.T.);
#430=EDGE_CURVE('',#350,#351,#294,.T.);
#431=EDGE_CURVE('',#351,#340,#154,.T.);
#432=EDGE_CURVE('',#339,#350,#155,.T.);
#433=EDGE_CURVE('',#352,#351,#156,.F.);
#434=EDGE_CURVE('',#318,#352,#157,.T.);
#435=EDGE_CURVE('',#353,#354,#295,.T.);
#436=EDGE_CURVE('',#354,#338,#158,.T.);
#437=EDGE_CURVE('',#337,#353,#159,.T.);
#438=EDGE_CURVE('',#350,#354,#160,.F.);
#439=EDGE_CURVE('',#355,#356,#296,.T.);
#440=EDGE_CURVE('',#356,#334,#161,.T.);
#441=EDGE_CURVE('',#333,#355,#162,.T.);
#442=EDGE_CURVE('',#357,#356,#163,.F.);
#443=EDGE_CURVE('',#335,#357,#164,.T.);
#444=EDGE_CURVE('',#358,#359,#297,.T.);
#445=EDGE_CURVE('',#359,#332,#165,.T.);
#446=EDGE_CURVE('',#331,#358,#166,.T.);
#447=EDGE_CURVE('',#355,#359,#167,.F.);
#448=EDGE_CURVE('',#360,#361,#298,.T.);
#449=EDGE_CURVE('',#361,#328,#168,.T.);
#450=EDGE_CURVE('',#327,#360,#169,.T.);
#451=EDGE_CURVE('',#362,#361,#170,.F.);
#452=EDGE_CURVE('',#329,#362,#171,.T.);
#453=EDGE_CURVE('',#363,#364,#299,.T.);
#454=EDGE_CURVE('',#364,#326,#172,.T.);
#455=EDGE_CURVE('',#325,#363,#173,.T.);
#456=EDGE_CURVE('',#360,#364,#174,.F.);
#457=EDGE_CURVE('',#365,#366,#300,.T.);
#458=EDGE_CURVE('',#366,#322,#175,.T.);
#459=EDGE_CURVE('',#321,#365,#176,.T.);
#460=EDGE_CURVE('',#367,#366,#177,.F.);
#461=EDGE_CURVE('',#323,#367,#178,.T.);
#462=EDGE_CURVE('',#368,#369,#301,.T.);
#463=EDGE_CURVE('',#369,#320,#179,.T.);
#464=EDGE_CURVE('',#319,#368,#180,.T.);
#465=EDGE_CURVE('',#365,#369,#181,.F.);
#466=EDGE_CURVE('',#352,#370,#302,.T.);
#467=EDGE_CURVE('',#370,#317,#182,.T.);
#468=EDGE_CURVE('',#357,#371,#303,.T.);
#469=EDGE_CURVE('',#371,#336,#183,.T.);
#470=EDGE_CURVE('',#367,#372,#304,.T.);
#471=EDGE_CURVE('',#372,#324,#184,.T.);
#472=EDGE_CURVE('',#362,#373,#305,.T.);
#473=EDGE_CURVE('',#373,#330,#185,.T.);
#474=EDGE_CURVE('',#358,#373,#186,.F.);
#475=EDGE_CURVE('',#363,#372,#187,.F.);
#476=EDGE_CURVE('',#353,#371,#188,.F.);
#477=EDGE_CURVE('',#368,#370,#189,.F.);
#478=EDGE_CURVE('',#374,#375,#190,.T.);
#479=EDGE_CURVE('',#349,#374,#191,.F.);
#480=EDGE_CURVE('',#348,#375,#192,.T.);
#481=EDGE_CURVE('',#347,#376,#193,.F.);
#482=EDGE_CURVE('',#375,#376,#194,.T.);
#483=EDGE_CURVE('',#376,#377,#195,.T.);
#484=EDGE_CURVE('',#377,#374,#196,.T.);
#485=EDGE_CURVE('',#346,#377,#197,.T.);
#486=ORIENTED_EDGE('',*,*,#378,.T.);
#487=ORIENTED_EDGE('',*,*,#379,.T.);
#488=ORIENTED_EDGE('',*,*,#380,.T.);
#489=ORIENTED_EDGE('',*,*,#381,.T.);
#490=ORIENTED_EDGE('',*,*,#381,.F.);
#491=ORIENTED_EDGE('',*,*,#382,.T.);
#492=ORIENTED_EDGE('',*,*,#383,.F.);
#493=ORIENTED_EDGE('',*,*,#384,.F.);
#494=ORIENTED_EDGE('',*,*,#380,.F.);
#495=ORIENTED_EDGE('',*,*,#385,.F.);
#496=ORIENTED_EDGE('',*,*,#386,.F.);
#497=ORIENTED_EDGE('',*,*,#387,.F.);
#498=ORIENTED_EDGE('',*,*,#388,.F.);
#499=ORIENTED_EDGE('',*,*,#389,.F.);
#500=ORIENTED_EDGE('',*,*,#390,.F.);
#501=ORIENTED_EDGE('',*,*,#382,.F.);
#502=ORIENTED_EDGE('',*,*,#391,.F.);
#503=ORIENTED_EDGE('',*,*,#392,.T.);
#504=ORIENTED_EDGE('',*,*,#393,.F.);
#505=ORIENTED_EDGE('',*,*,#394,.T.);
#506=ORIENTED_EDGE('',*,*,#395,.F.);
#507=ORIENTED_EDGE('',*,*,#396,.T.);
#508=ORIENTED_EDGE('',*,*,#397,.F.);
#509=ORIENTED_EDGE('',*,*,#398,.T.);
#510=ORIENTED_EDGE('',*,*,#399,.F.);
#511=ORIENTED_EDGE('',*,*,#400,.T.);
#512=ORIENTED_EDGE('',*,*,#401,.F.);
#513=ORIENTED_EDGE('',*,*,#402,.T.);
#514=ORIENTED_EDGE('',*,*,#403,.F.);
#515=ORIENTED_EDGE('',*,*,#404,.T.);
#516=ORIENTED_EDGE('',*,*,#405,.F.);
#517=ORIENTED_EDGE('',*,*,#406,.T.);
#518=ORIENTED_EDGE('',*,*,#407,.F.);
#519=ORIENTED_EDGE('',*,*,#408,.T.);
#520=ORIENTED_EDGE('',*,*,#409,.F.);
#521=ORIENTED_EDGE('',*,*,#410,.T.);
#522=ORIENTED_EDGE('',*,*,#411,.F.);
#523=ORIENTED_EDGE('',*,*,#412,.T.);
#524=ORIENTED_EDGE('',*,*,#413,.F.);
#525=ORIENTED_EDGE('',*,*,#414,.T.);
#526=ORIENTED_EDGE('',*,*,#415,.T.);
#527=ORIENTED_EDGE('',*,*,#416,.T.);
#528=ORIENTED_EDGE('',*,*,#386,.T.);
#529=ORIENTED_EDGE('',*,*,#417,.T.);
#530=ORIENTED_EDGE('',*,*,#416,.F.);
#531=ORIENTED_EDGE('',*,*,#418,.F.);
#532=ORIENTED_EDGE('',*,*,#419,.F.);
#533=ORIENTED_EDGE('',*,*,#387,.T.);
#534=ORIENTED_EDGE('',*,*,#420,.T.);
#535=ORIENTED_EDGE('',*,*,#421,.T.);
#536=ORIENTED_EDGE('',*,*,#388,.T.);
#537=ORIENTED_EDGE('',*,*,#419,.T.);
#538=ORIENTED_EDGE('',*,*,#422,.T.);
#539=ORIENTED_EDGE('',*,*,#383,.T.);
#540=ORIENTED_EDGE('',*,*,#390,.T.);
#541=ORIENTED_EDGE('',*,*,#423,.T.);
#542=ORIENTED_EDGE('',*,*,#378,.F.);
#543=ORIENTED_EDGE('',*,*,#384,.T.);
#544=ORIENTED_EDGE('',*,*,#422,.F.);
#545=ORIENTED_EDGE('',*,*,#424,.T.);
#546=ORIENTED_EDGE('',*,*,#420,.F.);
#547=ORIENTED_EDGE('',*,*,#418,.T.);
#548=ORIENTED_EDGE('',*,*,#415,.F.);
#549=ORIENTED_EDGE('',*,*,#425,.T.);
#550=ORIENTED_EDGE('',*,*,#426,.T.);
#551=ORIENTED_EDGE('',*,*,#427,.T.);
#552=ORIENTED_EDGE('',*,*,#428,.T.);
#553=ORIENTED_EDGE('',*,*,#429,.T.);
#554=ORIENTED_EDGE('',*,*,#430,.T.);
#555=ORIENTED_EDGE('',*,*,#431,.T.);
#556=ORIENTED_EDGE('',*,*,#413,.T.);
#557=ORIENTED_EDGE('',*,*,#432,.T.);
#558=ORIENTED_EDGE('',*,*,#431,.F.);
#559=ORIENTED_EDGE('',*,*,#433,.F.);
#560=ORIENTED_EDGE('',*,*,#434,.F.);
#561=ORIENTED_EDGE('',*,*,#414,.F.);
#562=ORIENTED_EDGE('',*,*,#435,.T.);
#563=ORIENTED_EDGE('',*,*,#436,.T.);
#564=ORIENTED_EDGE('',*,*,#411,.T.);
#565=ORIENTED_EDGE('',*,*,#437,.T.);
#566=ORIENTED_EDGE('',*,*,#432,.F.);
#567=ORIENTED_EDGE('',*,*,#412,.F.);
#568=ORIENTED_EDGE('',*,*,#436,.F.);
#569=ORIENTED_EDGE('',*,*,#438,.F.);
#570=ORIENTED_EDGE('',*,*,#439,.T.);
#571=ORIENTED_EDGE('',*,*,#440,.T.);
#572=ORIENTED_EDGE('',*,*,#407,.T.);
#573=ORIENTED_EDGE('',*,*,#441,.T.);
#574=ORIENTED_EDGE('',*,*,#440,.F.);
#575=ORIENTED_EDGE('',*,*,#442,.F.);
#576=ORIENTED_EDGE('',*,*,#443,.F.);
#577=ORIENTED_EDGE('',*,*,#408,.F.);
#578=ORIENTED_EDGE('',*,*,#444,.T.);
#579=ORIENTED_EDGE('',*,*,#445,.T.);
#580=ORIENTED_EDGE('',*,*,#405,.T.);
#581=ORIENTED_EDGE('',*,*,#446,.T.);
#582=ORIENTED_EDGE('',*,*,#441,.F.);
#583=ORIENTED_EDGE('',*,*,#406,.F.);
#584=ORIENTED_EDGE('',*,*,#445,.F.);
#585=ORIENTED_EDGE('',*,*,#447,.F.);
#586=ORIENTED_EDGE('',*,*,#448,.T.);
#587=ORIENTED_EDGE('',*,*,#449,.T.);
#588=ORIENTED_EDGE('',*,*,#401,.T.);
#589=ORIENTED_EDGE('',*,*,#450,.T.);
#590=ORIENTED_EDGE('',*,*,#449,.F.);
#591=ORIENTED_EDGE('',*,*,#451,.F.);
#592=ORIENTED_EDGE('',*,*,#452,.F.);
#593=ORIENTED_EDGE('',*,*,#402,.F.);
#594=ORIENTED_EDGE('',*,*,#453,.T.);
#595=ORIENTED_EDGE('',*,*,#454,.T.);
#596=ORIENTED_EDGE('',*,*,#399,.T.);
#597=ORIENTED_EDGE('',*,*,#455,.T.);
#598=ORIENTED_EDGE('',*,*,#450,.F.);
#599=ORIENTED_EDGE('',*,*,#400,.F.);
#600=ORIENTED_EDGE('',*,*,#454,.F.);
#601=ORIENTED_EDGE('',*,*,#456,.F.);
#602=ORIENTED_EDGE('',*,*,#457,.T.);
#603=ORIENTED_EDGE('',*,*,#458,.T.);
#604=ORIENTED_EDGE('',*,*,#395,.T.);
#605=ORIENTED_EDGE('',*,*,#459,.T.);
#606=ORIENTED_EDGE('',*,*,#458,.F.);
#607=ORIENTED_EDGE('',*,*,#460,.F.);
#608=ORIENTED_EDGE('',*,*,#461,.F.);
#609=ORIENTED_EDGE('',*,*,#396,.F.);
#610=ORIENTED_EDGE('',*,*,#462,.T.);
#611=ORIENTED_EDGE('',*,*,#463,.T.);
#612=ORIENTED_EDGE('',*,*,#393,.T.);
#613=ORIENTED_EDGE('',*,*,#464,.T.);
#614=ORIENTED_EDGE('',*,*,#459,.F.);
#615=ORIENTED_EDGE('',*,*,#394,.F.);
#616=ORIENTED_EDGE('',*,*,#463,.F.);
#617=ORIENTED_EDGE('',*,*,#465,.F.);
#618=ORIENTED_EDGE('',*,*,#391,.T.);
#619=ORIENTED_EDGE('',*,*,#434,.T.);
#620=ORIENTED_EDGE('',*,*,#466,.T.);
#621=ORIENTED_EDGE('',*,*,#467,.T.);
#622=ORIENTED_EDGE('',*,*,#409,.T.);
#623=ORIENTED_EDGE('',*,*,#443,.T.);
#624=ORIENTED_EDGE('',*,*,#468,.T.);
#625=ORIENTED_EDGE('',*,*,#469,.T.);
#626=ORIENTED_EDGE('',*,*,#397,.T.);
#627=ORIENTED_EDGE('',*,*,#461,.T.);
#628=ORIENTED_EDGE('',*,*,#470,.T.);
#629=ORIENTED_EDGE('',*,*,#471,.T.);
#630=ORIENTED_EDGE('',*,*,#403,.T.);
#631=ORIENTED_EDGE('',*,*,#452,.T.);
#632=ORIENTED_EDGE('',*,*,#472,.T.);
#633=ORIENTED_EDGE('',*,*,#473,.T.);
#634=ORIENTED_EDGE('',*,*,#446,.F.);
#635=ORIENTED_EDGE('',*,*,#404,.F.);
#636=ORIENTED_EDGE('',*,*,#473,.F.);
#637=ORIENTED_EDGE('',*,*,#474,.F.);
#638=ORIENTED_EDGE('',*,*,#455,.F.);
#639=ORIENTED_EDGE('',*,*,#398,.F.);
#640=ORIENTED_EDGE('',*,*,#471,.F.);
#641=ORIENTED_EDGE('',*,*,#475,.F.);
#642=ORIENTED_EDGE('',*,*,#437,.F.);
#643=ORIENTED_EDGE('',*,*,#410,.F.);
#644=ORIENTED_EDGE('',*,*,#469,.F.);
#645=ORIENTED_EDGE('',*,*,#476,.F.);
#646=ORIENTED_EDGE('',*,*,#464,.F.);
#647=ORIENTED_EDGE('',*,*,#392,.F.);
#648=ORIENTED_EDGE('',*,*,#467,.F.);
#649=ORIENTED_EDGE('',*,*,#477,.F.);
#650=ORIENTED_EDGE('',*,*,#478,.F.);
#651=ORIENTED_EDGE('',*,*,#479,.F.);
#652=ORIENTED_EDGE('',*,*,#428,.F.);
#653=ORIENTED_EDGE('',*,*,#480,.T.);
#654=ORIENTED_EDGE('',*,*,#427,.F.);
#655=ORIENTED_EDGE('',*,*,#481,.T.);
#656=ORIENTED_EDGE('',*,*,#482,.F.);
#657=ORIENTED_EDGE('',*,*,#480,.F.);
#658=ORIENTED_EDGE('',*,*,#483,.T.);
#659=ORIENTED_EDGE('',*,*,#484,.T.);
#660=ORIENTED_EDGE('',*,*,#478,.T.);
#661=ORIENTED_EDGE('',*,*,#482,.T.);
#662=ORIENTED_EDGE('',*,*,#466,.F.);
#663=ORIENTED_EDGE('',*,*,#433,.T.);
#664=ORIENTED_EDGE('',*,*,#430,.F.);
#665=ORIENTED_EDGE('',*,*,#438,.T.);
#666=ORIENTED_EDGE('',*,*,#435,.F.);
#667=ORIENTED_EDGE('',*,*,#476,.T.);
#668=ORIENTED_EDGE('',*,*,#468,.F.);
#669=ORIENTED_EDGE('',*,*,#442,.T.);
#670=ORIENTED_EDGE('',*,*,#439,.F.);
#671=ORIENTED_EDGE('',*,*,#447,.T.);
#672=ORIENTED_EDGE('',*,*,#444,.F.);
#673=ORIENTED_EDGE('',*,*,#474,.T.);
#674=ORIENTED_EDGE('',*,*,#472,.F.);
#675=ORIENTED_EDGE('',*,*,#451,.T.);
#676=ORIENTED_EDGE('',*,*,#448,.F.);
#677=ORIENTED_EDGE('',*,*,#456,.T.);
#678=ORIENTED_EDGE('',*,*,#453,.F.);
#679=ORIENTED_EDGE('',*,*,#475,.T.);
#680=ORIENTED_EDGE('',*,*,#470,.F.);
#681=ORIENTED_EDGE('',*,*,#460,.T.);
#682=ORIENTED_EDGE('',*,*,#457,.F.);
#683=ORIENTED_EDGE('',*,*,#465,.T.);
#684=ORIENTED_EDGE('',*,*,#462,.F.);
#685=ORIENTED_EDGE('',*,*,#477,.T.);
#686=ORIENTED_EDGE('',*,*,#483,.F.);
#687=ORIENTED_EDGE('',*,*,#481,.F.);
#688=ORIENTED_EDGE('',*,*,#426,.F.);
#689=ORIENTED_EDGE('',*,*,#485,.T.);
#690=ORIENTED_EDGE('',*,*,#429,.F.);
#691=ORIENTED_EDGE('',*,*,#479,.T.);
#692=ORIENTED_EDGE('',*,*,#484,.F.);
#693=ORIENTED_EDGE('',*,*,#485,.F.);
#694=ORIENTED_EDGE('',*,*,#379,.F.);
#695=ORIENTED_EDGE('',*,*,#425,.F.);
#696=ORIENTED_EDGE('',*,*,#417,.F.);
#697=ORIENTED_EDGE('',*,*,#385,.T.);
#698=ORIENTED_EDGE('',*,*,#421,.F.);
#699=ORIENTED_EDGE('',*,*,#424,.F.);
#700=ORIENTED_EDGE('',*,*,#423,.F.);
#701=ORIENTED_EDGE('',*,*,#389,.T.);
#702=CYLINDRICAL_SURFACE('',#771,1.5);
#703=CYLINDRICAL_SURFACE('',#791,1.5);
#704=CYLINDRICAL_SURFACE('',#794,1.5);
#705=CYLINDRICAL_SURFACE('',#796,1.5);
#706=CYLINDRICAL_SURFACE('',#799,1.5);
#707=CYLINDRICAL_SURFACE('',#802,1.5);
#708=CYLINDRICAL_SURFACE('',#805,1.5);
#709=CYLINDRICAL_SURFACE('',#808,1.5);
#710=CYLINDRICAL_SURFACE('',#811,1.5);
#711=CYLINDRICAL_SURFACE('',#814,1.5);
#712=CYLINDRICAL_SURFACE('',#817,1.5);
#713=CYLINDRICAL_SURFACE('',#820,1.5);
#714=CYLINDRICAL_SURFACE('',#823,1.5);
#715=CYLINDRICAL_SURFACE('',#825,1.5);
#716=CYLINDRICAL_SURFACE('',#827,1.5);
#717=CYLINDRICAL_SURFACE('',#829,1.5);
#718=ADVANCED_FACE('',(#41),#702,.T.);
#719=ADVANCED_FACE('',(#42),#18,.T.);
#720=ADVANCED_FACE('',(#43,#15),#19,.F.);
#721=ADVANCED_FACE('',(#44),#703,.T.);
#722=ADVANCED_FACE('',(#45),#20,.T.);
#723=ADVANCED_FACE('',(#46),#704,.T.);
#724=ADVANCED_FACE('',(#47),#705,.T.);
#725=ADVANCED_FACE('',(#48,#16),#21,.T.);
#726=ADVANCED_FACE('',(#49),#706,.F.);
#727=ADVANCED_FACE('',(#50),#22,.F.);
#728=ADVANCED_FACE('',(#51),#707,.F.);
#729=ADVANCED_FACE('',(#52),#23,.F.);
#730=ADVANCED_FACE('',(#53),#708,.F.);
#731=ADVANCED_FACE('',(#54),#24,.F.);
#732=ADVANCED_FACE('',(#55),#709,.F.);
#733=ADVANCED_FACE('',(#56),#25,.F.);
#734=ADVANCED_FACE('',(#57),#710,.F.);
#735=ADVANCED_FACE('',(#58),#26,.F.);
#736=ADVANCED_FACE('',(#59),#711,.F.);
#737=ADVANCED_FACE('',(#60),#27,.F.);
#738=ADVANCED_FACE('',(#61),#712,.F.);
#739=ADVANCED_FACE('',(#62),#28,.F.);
#740=ADVANCED_FACE('',(#63),#713,.F.);
#741=ADVANCED_FACE('',(#64),#29,.F.);
#742=ADVANCED_FACE('',(#65),#714,.T.);
#743=ADVANCED_FACE('',(#66),#715,.T.);
#744=ADVANCED_FACE('',(#67),#716,.T.);
#745=ADVANCED_FACE('',(#68),#717,.T.);
#746=ADVANCED_FACE('',(#69),#30,.F.);
#747=ADVANCED_FACE('',(#70),#31,.F.);
#748=ADVANCED_FACE('',(#71),#32,.F.);
#749=ADVANCED_FACE('',(#72),#33,.F.);
#750=ADVANCED_FACE('',(#73),#34,.T.);
#751=ADVANCED_FACE('',(#74),#35,.T.);
#752=ADVANCED_FACE('',(#75,#17),#36,.T.);
#753=ADVANCED_FACE('',(#76),#37,.T.);
#754=ADVANCED_FACE('',(#77),#38,.T.);
#755=ADVANCED_FACE('',(#78),#39,.T.);
#756=ADVANCED_FACE('',(#79),#40,.T.);
#757=CLOSED_SHELL('',(#718,#719,#720,#721,#722,#723,#724,#725,#726,#727,
#728,#729,#730,#731,#732,#733,#734,#735,#736,#737,#738,#739,#740,#741,#742,
#743,#744,#745,#746,#747,#748,#749,#750,#751,#752,#753,#754,#755,#756));
#758=DERIVED_UNIT_ELEMENT(#760,1.);
#759=DERIVED_UNIT_ELEMENT(#1289,3.);
#760=(
MASS_UNIT()
NAMED_UNIT(*)
SI_UNIT(.KILO.,.GRAM.)
);
#761=DERIVED_UNIT((#758,#759));
#762=MEASURE_REPRESENTATION_ITEM('density measure',
POSITIVE_RATIO_MEASURE(7850.),#761);
#763=PROPERTY_DEFINITION_REPRESENTATION(#768,#765);
#764=PROPERTY_DEFINITION_REPRESENTATION(#769,#766);
#765=REPRESENTATION('material name',(#767),#1284);
#766=REPRESENTATION('density',(#762),#1284);
#767=DESCRIPTIVE_REPRESENTATION_ITEM('Steel','Steel');
#768=PROPERTY_DEFINITION('material property','material name',#1294);
#769=PROPERTY_DEFINITION('material property','density of part',#1294);
#770=AXIS2_PLACEMENT_3D('placement',#1062,#842,#843);
#771=AXIS2_PLACEMENT_3D('',#1063,#844,#845);
#772=AXIS2_PLACEMENT_3D('',#1066,#846,#847);
#773=AXIS2_PLACEMENT_3D('',#1070,#849,#850);
#774=AXIS2_PLACEMENT_3D('',#1072,#852,#853);
#775=AXIS2_PLACEMENT_3D('',#1078,#857,#858);
#776=AXIS2_PLACEMENT_3D('',#1082,#860,#861);
#777=AXIS2_PLACEMENT_3D('',#1086,#863,#864);
#778=AXIS2_PLACEMENT_3D('',#1089,#866,#867);
#779=AXIS2_PLACEMENT_3D('',#1092,#868,#869);
#780=AXIS2_PLACEMENT_3D('',#1096,#871,#872);
#781=AXIS2_PLACEMENT_3D('',#1100,#874,#875);
#782=AXIS2_PLACEMENT_3D('',#1104,#877,#878);
#783=AXIS2_PLACEMENT_3D('',#1108,#880,#881);
#784=AXIS2_PLACEMENT_3D('',#1112,#883,#884);
#785=AXIS2_PLACEMENT_3D('',#1116,#886,#887);
#786=AXIS2_PLACEMENT_3D('',#1120,#889,#890);
#787=AXIS2_PLACEMENT_3D('',#1124,#892,#893);
#788=AXIS2_PLACEMENT_3D('',#1128,#895,#896);
#789=AXIS2_PLACEMENT_3D('',#1132,#898,#899);
#790=AXIS2_PLACEMENT_3D('',#1136,#901,#902);
#791=AXIS2_PLACEMENT_3D('',#1138,#904,#905);
#792=AXIS2_PLACEMENT_3D('',#1141,#906,#907);
#793=AXIS2_PLACEMENT_3D('',#1144,#910,#911);
#794=AXIS2_PLACEMENT_3D('',#1148,#914,#915);
#795=AXIS2_PLACEMENT_3D('',#1150,#916,#917);
#796=AXIS2_PLACEMENT_3D('',#1152,#919,#920);
#797=AXIS2_PLACEMENT_3D('',#1154,#921,#922);
#798=AXIS2_PLACEMENT_3D('',#1156,#924,#925);
#799=AXIS2_PLACEMENT_3D('',#1167,#932,#933);
#800=AXIS2_PLACEMENT_3D('',#1170,#934,#935);
#801=AXIS2_PLACEMENT_3D('',#1173,#938,#939);
#802=AXIS2_PLACEMENT_3D('',#1177,#942,#943);
#803=AXIS2_PLACEMENT_3D('',#1180,#944,#945);
#804=AXIS2_PLACEMENT_3D('',#1183,#948,#949);
#805=AXIS2_PLACEMENT_3D('',#1185,#951,#952);
#806=AXIS2_PLACEMENT_3D('',#1188,#953,#954);
#807=AXIS2_PLACEMENT_3D('',#1191,#957,#958);
#808=AXIS2_PLACEMENT_3D('',#1195,#961,#962);
#809=AXIS2_PLACEMENT_3D('',#1198,#963,#964);
#810=AXIS2_PLACEMENT_3D('',#1201,#967,#968);
#811=AXIS2_PLACEMENT_3D('',#1203,#970,#971);
#812=AXIS2_PLACEMENT_3D('',#1206,#972,#973);
#813=AXIS2_PLACEMENT_3D('',#1209,#976,#977);
#814=AXIS2_PLACEMENT_3D('',#1213,#980,#981);
#815=AXIS2_PLACEMENT_3D('',#1216,#982,#983);
#816=AXIS2_PLACEMENT_3D('',#1219,#986,#987);
#817=AXIS2_PLACEMENT_3D('',#1221,#989,#990);
#818=AXIS2_PLACEMENT_3D('',#1224,#991,#992);
#819=AXIS2_PLACEMENT_3D('',#1227,#995,#996);
#820=AXIS2_PLACEMENT_3D('',#1231,#999,#1000);
#821=AXIS2_PLACEMENT_3D('',#1234,#1001,#1002);
#822=AXIS2_PLACEMENT_3D('',#1237,#1005,#1006);
#823=AXIS2_PLACEMENT_3D('',#1239,#1008,#1009);
#824=AXIS2_PLACEMENT_3D('',#1241,#1010,#1011);
#825=AXIS2_PLACEMENT_3D('',#1243,#1013,#1014);
#826=AXIS2_PLACEMENT_3D('',#1245,#1015,#1016);
#827=AXIS2_PLACEMENT_3D('',#1247,#1018,#1019);
#828=AXIS2_PLACEMENT_3D('',#1249,#1020,#1021);
#829=AXIS2_PLACEMENT_3D('',#1251,#1023,#1024);
#830=AXIS2_PLACEMENT_3D('',#1253,#1025,#1026);
#831=AXIS2_PLACEMENT_3D('',#1255,#1028,#1029);
#832=AXIS2_PLACEMENT_3D('',#1257,#1031,#1032);
#833=AXIS2_PLACEMENT_3D('',#1259,#1034,#1035);
#834=AXIS2_PLACEMENT_3D('',#1261,#1037,#1038);
#835=AXIS2_PLACEMENT_3D('',#1263,#1040,#1041);
#836=AXIS2_PLACEMENT_3D('',#1269,#1045,#1046);
#837=AXIS2_PLACEMENT_3D('',#1273,#1049,#1050);
#838=AXIS2_PLACEMENT_3D('',#1277,#1053,#1054);
#839=AXIS2_PLACEMENT_3D('',#1279,#1056,#1057);
#840=AXIS2_PLACEMENT_3D('',#1280,#1058,#1059);
#841=AXIS2_PLACEMENT_3D('',#1281,#1060,#1061);
#842=DIRECTION('axis',(0.,0.,1.));
#843=DIRECTION('refdir',(1.,0.,0.));
#844=DIRECTION('center_axis',(0.,0.,1.));
#845=DIRECTION('ref_axis',(-0.707106781186546,0.707106781186549,0.));
#846=DIRECTION('center_axis',(0.,0.,-1.));
#847=DIRECTION('ref_axis',(-0.707106781186546,0.707106781186549,0.));
#848=DIRECTION('',(0.,0.,-1.));
#849=DIRECTION('center_axis',(0.,0.,1.));
#850=DIRECTION('ref_axis',(-0.707106781186546,0.707106781186549,0.));
#851=DIRECTION('',(0.,0.,1.));
#852=DIRECTION('center_axis',(-1.,0.,0.));
#853=DIRECTION('ref_axis',(0.,-1.,0.));
#854=DIRECTION('',(0.,-1.,0.));
#855=DIRECTION('',(0.,0.,-1.));
#856=DIRECTION('',(0.,-1.,0.));
#857=DIRECTION('center_axis',(0.,0.,1.));
#858=DIRECTION('ref_axis',(1.,0.,0.));
#859=DIRECTION('',(-1.,0.,0.));
#860=DIRECTION('center_axis',(0.,0.,1.));
#861=DIRECTION('ref_axis',(0.707106781186548,0.707106781186548,0.));
#862=DIRECTION('',(0.,1.,0.));
#863=DIRECTION('center_axis',(0.,0.,1.));
#864=DIRECTION('ref_axis',(0.707106781186549,-0.707106781186546,0.));
#865=DIRECTION('',(1.,0.,0.));
#866=DIRECTION('center_axis',(0.,0.,1.));
#867=DIRECTION('ref_axis',(-0.707106781186547,-0.707106781186547,0.));
#868=DIRECTION('center_axis',(0.,0.,1.));
#869=DIRECTION('ref_axis',(-0.707106781186548,0.707106781186548,0.));
#870=DIRECTION('',(-1.,0.,0.));
#871=DIRECTION('center_axis',(0.,0.,-1.));
#872=DIRECTION('ref_axis',(0.707106781186548,-0.707106781186548,0.));
#873=DIRECTION('',(0.,-1.,0.));
#874=DIRECTION('center_axis',(0.,0.,-1.));
#875=DIRECTION('ref_axis',(0.70710678118655,0.707106781186545,0.));
#876=DIRECTION('',(1.,0.,0.));
#877=DIRECTION('center_axis',(0.,0.,1.));
#878=DIRECTION('ref_axis',(-0.70710678118655,-0.707106781186545,0.));
#879=DIRECTION('',(0.,-1.,0.));
#880=DIRECTION('center_axis',(0.,0.,-1.));
#881=DIRECTION('ref_axis',(0.70710678118655,0.707106781186545,0.));
#882=DIRECTION('',(1.,0.,0.));
#883=DIRECTION('center_axis',(0.,0.,-1.));
#884=DIRECTION('ref_axis',(-0.707106781186548,0.707106781186548,0.));
#885=DIRECTION('',(0.,1.,0.));
#886=DIRECTION('center_axis',(0.,0.,1.));
#887=DIRECTION('ref_axis',(0.707106781186548,-0.707106781186548,0.));
#888=DIRECTION('',(1.,0.,0.));
#889=DIRECTION('center_axis',(0.,0.,-1.));
#890=DIRECTION('ref_axis',(-0.70710678118655,0.707106781186545,0.));
#891=DIRECTION('',(0.,1.,0.));
#892=DIRECTION('center_axis',(0.,0.,-1.));
#893=DIRECTION('ref_axis',(-0.70710678118655,-0.707106781186545,0.));
#894=DIRECTION('',(-1.,0.,0.));
#895=DIRECTION('center_axis',(0.,0.,1.));
#896=DIRECTION('ref_axis',(0.707106781186548,0.707106781186548,0.));
#897=DIRECTION('',(0.,1.,0.));
#898=DIRECTION('center_axis',(0.,0.,-1.));
#899=DIRECTION('ref_axis',(-0.707106781186548,-0.707106781186548,0.));
#900=DIRECTION('',(-1.,0.,0.));
#901=DIRECTION('center_axis',(0.,0.,-1.));
#902=DIRECTION('ref_axis',(0.707106781186548,-0.707106781186548,0.));
#903=DIRECTION('',(0.,-1.,0.));
#904=DIRECTION('center_axis',(0.,0.,1.));
#905=DIRECTION('ref_axis',(0.707106781186548,0.707106781186548,0.));
#906=DIRECTION('center_axis',(0.,0.,-1.));
#907=DIRECTION('ref_axis',(0.707106781186548,0.707106781186548,0.));
#908=DIRECTION('',(0.,0.,-1.));
#909=DIRECTION('',(0.,0.,1.));
#910=DIRECTION('center_axis',(1.,0.,0.));
#911=DIRECTION('ref_axis',(0.,1.,0.));
#912=DIRECTION('',(0.,1.,0.));
#913=DIRECTION('',(0.,0.,1.));
#914=DIRECTION('center_axis',(0.,0.,1.));
#915=DIRECTION('ref_axis',(0.707106781186549,-0.707106781186546,0.));
#916=DIRECTION('center_axis',(0.,0.,-1.));
#917=DIRECTION('ref_axis',(0.707106781186549,-0.707106781186546,0.));
#918=DIRECTION('',(0.,0.,-1.));
#919=DIRECTION('center_axis',(0.,0.,1.));
#920=DIRECTION('ref_axis',(-0.707106781186547,-0.707106781186547,0.));
#921=DIRECTION('center_axis',(0.,0.,-1.));
#922=DIRECTION('ref_axis',(-0.707106781186547,-0.707106781186547,0.));
#923=DIRECTION('',(0.,0.,1.));
#924=DIRECTION('center_axis',(0.,0.,1.));
#925=DIRECTION('ref_axis',(1.,0.,0.));
#926=DIRECTION('',(1.,0.,0.));
#927=DIRECTION('',(-1.,0.,0.));
#928=DIRECTION('',(1.,0.,0.));
#929=DIRECTION('',(0.,-1.,0.));
#930=DIRECTION('',(-1.,0.,0.));
#931=DIRECTION('',(0.,1.,0.));
#932=DIRECTION('center_axis',(0.,0.,-1.));
#933=DIRECTION('ref_axis',(0.707106781186548,-0.707106781186548,0.));
#934=DIRECTION('center_axis',(0.,0.,1.));
#935=DIRECTION('ref_axis',(0.707106781186548,-0.707106781186548,0.));
#936=DIRECTION('',(0.,0.,-1.));
#937=DIRECTION('',(0.,0.,1.));
#938=DIRECTION('center_axis',(1.,0.,0.));
#939=DIRECTION('ref_axis',(0.,-1.,0.));
#940=DIRECTION('',(0.,1.,0.));
#941=DIRECTION('',(0.,0.,1.));
#942=DIRECTION('center_axis',(0.,0.,-1.));
#943=DIRECTION('ref_axis',(-0.707106781186548,-0.707106781186548,0.));
#944=DIRECTION('center_axis',(0.,0.,1.));
#945=DIRECTION('ref_axis',(-0.707106781186548,-0.707106781186548,0.));
#946=DIRECTION('',(0.,0.,-1.));
#947=DIRECTION('',(0.,0.,1.));
#948=DIRECTION('center_axis',(0.,-1.,0.));
#949=DIRECTION('ref_axis',(-1.,0.,0.));
#950=DIRECTION('',(1.,0.,0.));
#951=DIRECTION('center_axis',(0.,0.,-1.));
#952=DIRECTION('ref_axis',(-0.70710678118655,-0.707106781186545,0.));
#953=DIRECTION('center_axis',(0.,0.,1.));
#954=DIRECTION('ref_axis',(-0.70710678118655,-0.707106781186545,0.));
#955=DIRECTION('',(0.,0.,-1.));
#956=DIRECTION('',(0.,0.,1.));
#957=DIRECTION('center_axis',(0.,-1.,0.));
#958=DIRECTION('ref_axis',(-1.,0.,0.));
#959=DIRECTION('',(1.,0.,0.));
#960=DIRECTION('',(0.,0.,1.));
#961=DIRECTION('center_axis',(0.,0.,-1.));
#962=DIRECTION('ref_axis',(-0.70710678118655,0.707106781186545,0.));
#963=DIRECTION('center_axis',(0.,0.,1.));
#964=DIRECTION('ref_axis',(-0.70710678118655,0.707106781186545,0.));
#965=DIRECTION('',(0.,0.,-1.));
#966=DIRECTION('',(0.,0.,1.));
#967=DIRECTION('center_axis',(-1.,0.,0.));
#968=DIRECTION('ref_axis',(0.,1.,0.));
#969=DIRECTION('',(0.,-1.,0.));
#970=DIRECTION('center_axis',(0.,0.,-1.));
#971=DIRECTION('ref_axis',(-0.707106781186548,0.707106781186548,0.));
#972=DIRECTION('center_axis',(0.,0.,1.));
#973=DIRECTION('ref_axis',(-0.707106781186548,0.707106781186548,0.));
#974=DIRECTION('',(0.,0.,-1.));
#975=DIRECTION('',(0.,0.,1.));
#976=DIRECTION('center_axis',(-1.,0.,0.));
#977=DIRECTION('ref_axis',(0.,1.,0.));
#978=DIRECTION('',(0.,-1.,0.));
#979=DIRECTION('',(0.,0.,1.));
#980=DIRECTION('center_axis',(0.,0.,-1.));
#981=DIRECTION('ref_axis',(0.70710678118655,0.707106781186545,0.));
#982=DIRECTION('center_axis',(0.,0.,1.));
#983=DIRECTION('ref_axis',(0.70710678118655,0.707106781186545,0.));
#984=DIRECTION('',(0.,0.,-1.));
#985=DIRECTION('',(0.,0.,1.));
#986=DIRECTION('center_axis',(0.,1.,0.));
#987=DIRECTION('ref_axis',(1.,0.,0.));
#988=DIRECTION('',(-1.,0.,0.));
#989=DIRECTION('center_axis',(0.,0.,-1.));
#990=DIRECTION('ref_axis',(0.70710678118655,0.707106781186545,0.));
#991=DIRECTION('center_axis',(0.,0.,1.));
#992=DIRECTION('ref_axis',(0.70710678118655,0.707106781186545,0.));
#993=DIRECTION('',(0.,0.,-1.));
#994=DIRECTION('',(0.,0.,1.));
#995=DIRECTION('center_axis',(0.,1.,0.));
#996=DIRECTION('ref_axis',(1.,0.,0.));
#997=DIRECTION('',(-1.,0.,0.));
#998=DIRECTION('',(0.,0.,1.));
#999=DIRECTION('center_axis',(0.,0.,-1.));
#1000=DIRECTION('ref_axis',(0.707106781186548,-0.707106781186548,0.));
#1001=DIRECTION('center_axis',(0.,0.,1.));
#1002=DIRECTION('ref_axis',(0.707106781186548,-0.707106781186548,0.));
#1003=DIRECTION('',(0.,0.,-1.));
#1004=DIRECTION('',(0.,0.,1.));
#1005=DIRECTION('center_axis',(1.,0.,0.));
#1006=DIRECTION('ref_axis',(0.,-1.,0.));
#1007=DIRECTION('',(0.,1.,0.));
#1008=DIRECTION('center_axis',(0.,0.,-1.));
#1009=DIRECTION('ref_axis',(-0.707106781186548,0.707106781186548,0.));
#1010=DIRECTION('center_axis',(0.,0.,-1.));
#1011=DIRECTION('ref_axis',(-0.707106781186548,0.707106781186548,0.));
#1012=DIRECTION('',(0.,0.,-1.));
#1013=DIRECTION('center_axis',(0.,0.,-1.));
#1014=DIRECTION('ref_axis',(0.707106781186548,0.707106781186548,0.));
#1015=DIRECTION('center_axis',(0.,0.,-1.));
#1016=DIRECTION('ref_axis',(0.707106781186548,0.707106781186548,0.));
#1017=DIRECTION('',(0.,0.,-1.));
#1018=DIRECTION('center_axis',(0.,0.,-1.));
#1019=DIRECTION('ref_axis',(-0.70710678118655,-0.707106781186545,0.));
#1020=DIRECTION('center_axis',(0.,0.,-1.));
#1021=DIRECTION('ref_axis',(-0.70710678118655,-0.707106781186545,0.));
#1022=DIRECTION('',(0.,0.,-1.));
#1023=DIRECTION('center_axis',(0.,0.,-1.));
#1024=DIRECTION('ref_axis',(0.707106781186548,-0.707106781186548,0.));
#1025=DIRECTION('center_axis',(0.,0.,-1.));
#1026=DIRECTION('ref_axis',(0.707106781186548,-0.707106781186548,0.));
#1027=DIRECTION('',(0.,0.,-1.));
#1028=DIRECTION('center_axis',(0.,1.,0.));
#1029=DIRECTION('ref_axis',(1.,0.,0.));
#1030=DIRECTION('',(-1.,0.,0.));
#1031=DIRECTION('center_axis',(1.,0.,0.));
#1032=DIRECTION('ref_axis',(0.,-1.,0.));
#1033=DIRECTION('',(0.,1.,0.));
#1034=DIRECTION('center_axis',(-1.,0.,0.));
#1035=DIRECTION('ref_axis',(0.,1.,0.));
#1036=DIRECTION('',(0.,-1.,0.));
#1037=DIRECTION('center_axis',(0.,-1.,0.));
#1038=DIRECTION('ref_axis',(-1.,0.,0.));
#1039=DIRECTION('',(1.,0.,0.));
#1040=DIRECTION('center_axis',(0.,-1.,0.));
#1041=DIRECTION('ref_axis',(1.,0.,0.));
#1042=DIRECTION('',(1.,0.,0.));
#1043=DIRECTION('',(0.,0.,-1.));
#1044=DIRECTION('',(0.,0.,1.));
#1045=DIRECTION('center_axis',(1.,0.,0.));
#1046=DIRECTION('ref_axis',(0.,1.,0.));
#1047=DIRECTION('',(0.,0.,-1.));
#1048=DIRECTION('',(0.,1.,0.));
#1049=DIRECTION('center_axis',(0.,0.,1.));
#1050=DIRECTION('ref_axis',(1.,0.,0.));
#1051=DIRECTION('',(-1.,0.,0.));
#1052=DIRECTION('',(0.,-1.,0.));
#1053=DIRECTION('center_axis',(0.,1.,0.));
#1054=DIRECTION('ref_axis',(-1.,0.,0.));
#1055=DIRECTION('',(0.,0.,1.));
#1056=DIRECTION('center_axis',(-1.,0.,0.));
#1057=DIRECTION('ref_axis',(0.,-1.,0.));
#1058=DIRECTION('center_axis',(0.,1.,0.));
#1059=DIRECTION('ref_axis',(-1.,0.,0.));
#1060=DIRECTION('center_axis',(0.,-1.,0.));
#1061=DIRECTION('ref_axis',(1.,0.,0.));
#1062=CARTESIAN_POINT('',(0.,0.,0.));
#1063=CARTESIAN_POINT('Origin',(16.5,40.75,0.));
#1064=CARTESIAN_POINT('',(15.,40.75,1.5));
#1065=CARTESIAN_POINT('',(16.5,42.25,1.5));
#1066=CARTESIAN_POINT('Origin',(16.5,40.75,1.5));
#1067=CARTESIAN_POINT('',(16.5,42.25,0.));
#1068=CARTESIAN_POINT('',(16.5,42.25,0.));
#1069=CARTESIAN_POINT('',(15.,40.75,0.));
#1070=CARTESIAN_POINT('Origin',(16.5,40.75,0.));
#1071=CARTESIAN_POINT('',(15.,40.75,0.));
#1072=CARTESIAN_POINT('Origin',(15.,42.25,0.));
#1073=CARTESIAN_POINT('',(15.,16.5,0.));
#1074=CARTESIAN_POINT('',(15.,42.25,0.));
#1075=CARTESIAN_POINT('',(15.,16.5,1.5));
#1076=CARTESIAN_POINT('',(15.,16.5,0.));
#1077=CARTESIAN_POINT('',(15.,42.25,1.5));
#1078=CARTESIAN_POINT('Origin',(29.5,28.625,0.));
#1079=CARTESIAN_POINT('',(42.5,42.25,0.));
#1080=CARTESIAN_POINT('',(44.,42.25,0.));
#1081=CARTESIAN_POINT('',(44.,40.75,0.));
#1082=CARTESIAN_POINT('Origin',(42.5,40.75,0.));
#1083=CARTESIAN_POINT('',(44.,16.5,0.));
#1084=CARTESIAN_POINT('',(44.,15.,0.));
#1085=CARTESIAN_POINT('',(42.5,15.,0.));
#1086=CARTESIAN_POINT('Origin',(42.5,16.5,0.));
#1087=CARTESIAN_POINT('',(16.5,15.,0.));
#1088=CARTESIAN_POINT('',(15.,15.,0.));
#1089=CARTESIAN_POINT('Origin',(16.5,16.5,0.));
#1090=CARTESIAN_POINT('',(37.9,22.6,0.));
#1091=CARTESIAN_POINT('',(36.4,21.1,0.));
#1092=CARTESIAN_POINT('Origin',(37.9,21.1,0.));
#1093=CARTESIAN_POINT('',(39.9,22.6,0.));
#1094=CARTESIAN_POINT('',(36.,22.6,0.));
#1095=CARTESIAN_POINT('',(41.4,24.1,0.));
#1096=CARTESIAN_POINT('Origin',(39.9,24.1,0.));
#1097=CARTESIAN_POINT('',(41.4,33.15,0.));
#1098=CARTESIAN_POINT('',(41.4,32.1875,0.));
#1099=CARTESIAN_POINT('',(39.9,34.65,0.));
#1100=CARTESIAN_POINT('Origin',(39.9,33.15,0.));
#1101=CARTESIAN_POINT('',(37.9000005662441,34.65,0.));
#1102=CARTESIAN_POINT('',(33.7500002831221,34.65,0.));
#1103=CARTESIAN_POINT('',(36.4000005662441,36.15,0.));
#1104=CARTESIAN_POINT('Origin',(37.9000005662441,36.15,0.));
#1105=CARTESIAN_POINT('',(36.4000005662441,38.15,0.));
#1106=CARTESIAN_POINT('',(36.4000005662441,34.6875,0.));
#1107=CARTESIAN_POINT('',(34.9000005662441,39.65,0.));
#1108=CARTESIAN_POINT('Origin',(34.9000005662441,38.15,0.));
#1109=CARTESIAN_POINT('',(24.1,39.65,0.));
#1110=CARTESIAN_POINT('',(25.5,39.65,0.));
#1111=CARTESIAN_POINT('',(22.6,38.15,0.));
#1112=CARTESIAN_POINT('Origin',(24.1,38.15,0.));
#1113=CARTESIAN_POINT('',(22.6,36.15,0.));
#1114=CARTESIAN_POINT('',(22.6,32.1875,0.));
#1115=CARTESIAN_POINT('',(21.1,34.65,0.));
#1116=CARTESIAN_POINT('Origin',(21.1,36.15,0.));
#1117=CARTESIAN_POINT('',(19.1,34.65,0.));
#1118=CARTESIAN_POINT('',(23.,34.65,0.));
#1119=CARTESIAN_POINT('',(17.6,33.15,0.));
#1120=CARTESIAN_POINT('Origin',(19.1,33.15,0.));
#1121=CARTESIAN_POINT('',(17.6,24.1,0.));
#1122=CARTESIAN_POINT('',(17.6,25.0625,0.));
#1123=CARTESIAN_POINT('',(19.1,22.6,0.));
#1124=CARTESIAN_POINT('Origin',(19.1,24.1,0.));
#1125=CARTESIAN_POINT('',(21.1,22.6,0.));
#1126=CARTESIAN_POINT('',(25.5,22.6,0.));
#1127=CARTESIAN_POINT('',(22.6,21.1,0.));
#1128=CARTESIAN_POINT('Origin',(21.1,21.1,0.));
#1129=CARTESIAN_POINT('',(22.6,19.1,0.));
#1130=CARTESIAN_POINT('',(22.6,22.5625,0.));
#1131=CARTESIAN_POINT('',(24.1,17.6,0.));
#1132=CARTESIAN_POINT('Origin',(24.1,19.1,0.));
#1133=CARTESIAN_POINT('',(34.9,17.6,0.));
#1134=CARTESIAN_POINT('',(33.5,17.6,0.));
#1135=CARTESIAN_POINT('',(36.4,19.1,0.));
#1136=CARTESIAN_POINT('Origin',(34.9,19.1,0.));
#1137=CARTESIAN_POINT('',(36.4,25.0625,0.));
#1138=CARTESIAN_POINT('Origin',(42.5,40.75,0.));
#1139=CARTESIAN_POINT('',(42.5,42.25,1.5));
#1140=CARTESIAN_POINT('',(44.,40.75,1.5));
#1141=CARTESIAN_POINT('Origin',(42.5,40.75,1.5));
#1142=CARTESIAN_POINT('',(44.,40.75,0.));
#1143=CARTESIAN_POINT('',(42.5,42.25,0.));
#1144=CARTESIAN_POINT('Origin',(44.,15.,0.));
#1145=CARTESIAN_POINT('',(44.,16.5,1.5));
#1146=CARTESIAN_POINT('',(44.,15.,1.5));
#1147=CARTESIAN_POINT('',(44.,16.5,0.));
#1148=CARTESIAN_POINT('Origin',(42.5,16.5,0.));
#1149=CARTESIAN_POINT('',(42.5,15.,1.5));
#1150=CARTESIAN_POINT('Origin',(42.5,16.5,1.5));
#1151=CARTESIAN_POINT('',(42.5,15.,0.));
#1152=CARTESIAN_POINT('Origin',(16.5,16.5,0.));
#1153=CARTESIAN_POINT('',(16.5,15.,1.5));
#1154=CARTESIAN_POINT('Origin',(16.5,16.5,1.5));
#1155=CARTESIAN_POINT('',(16.5,15.,0.));
#1156=CARTESIAN_POINT('Origin',(29.5,28.625,1.5));
#1157=CARTESIAN_POINT('',(15.,15.,1.5));
#1158=CARTESIAN_POINT('',(44.,42.25,1.5));
#1159=CARTESIAN_POINT('',(16.55,40.7,1.5));
#1160=CARTESIAN_POINT('',(42.45,40.7,1.5));
#1161=CARTESIAN_POINT('',(36.,40.7,1.5));
#1162=CARTESIAN_POINT('',(42.45,16.55,1.5));
#1163=CARTESIAN_POINT('',(42.45,22.5625,1.5));
#1164=CARTESIAN_POINT('',(16.55,16.55,1.5));
#1165=CARTESIAN_POINT('',(23.,16.55,1.5));
#1166=CARTESIAN_POINT('',(16.55,34.6875,1.5));
#1167=CARTESIAN_POINT('Origin',(34.9,19.1,3.));
#1168=CARTESIAN_POINT('',(34.9,17.6,3.5));
#1169=CARTESIAN_POINT('',(36.4,19.1,3.5));
#1170=CARTESIAN_POINT('Origin',(34.9,19.1,3.5));
#1171=CARTESIAN_POINT('',(36.4,19.1,3.));
#1172=CARTESIAN_POINT('',(34.9,17.6,3.));
#1173=CARTESIAN_POINT('Origin',(36.4,21.5,3.));
#1174=CARTESIAN_POINT('',(36.4,21.1,3.5));
#1175=CARTESIAN_POINT('',(36.4,25.0625,3.5));
#1176=CARTESIAN_POINT('',(36.4,21.1,3.));
#1177=CARTESIAN_POINT('Origin',(24.1,19.1,3.));
#1178=CARTESIAN_POINT('',(22.6,19.1,3.5));
#1179=CARTESIAN_POINT('',(24.1,17.6,3.5));
#1180=CARTESIAN_POINT('Origin',(24.1,19.1,3.5));
#1181=CARTESIAN_POINT('',(24.1,17.6,3.));
#1182=CARTESIAN_POINT('',(22.6,19.1,3.));
#1183=CARTESIAN_POINT('Origin',(37.5,17.6,3.));
#1184=CARTESIAN_POINT('',(33.5,17.6,3.5));
#1185=CARTESIAN_POINT('Origin',(19.1,24.1,3.));
#1186=CARTESIAN_POINT('',(17.6,24.1,3.5));
#1187=CARTESIAN_POINT('',(19.1,22.6,3.5));
#1188=CARTESIAN_POINT('Origin',(19.1,24.1,3.5));
#1189=CARTESIAN_POINT('',(19.1,22.6,3.));
#1190=CARTESIAN_POINT('',(17.6,24.1,3.));
#1191=CARTESIAN_POINT('Origin',(21.5,22.6,3.));
#1192=CARTESIAN_POINT('',(21.1,22.6,3.5));
#1193=CARTESIAN_POINT('',(25.5,22.6,3.5));
#1194=CARTESIAN_POINT('',(21.1,22.6,3.));
#1195=CARTESIAN_POINT('Origin',(19.1,33.15,3.));
#1196=CARTESIAN_POINT('',(19.1,34.65,3.5));
#1197=CARTESIAN_POINT('',(17.6,33.15,3.5));
#1198=CARTESIAN_POINT('Origin',(19.1,33.15,3.5));
#1199=CARTESIAN_POINT('',(17.6,33.15,3.));
#1200=CARTESIAN_POINT('',(19.1,34.65,3.));
#1201=CARTESIAN_POINT('Origin',(17.6,21.5,3.));
#1202=CARTESIAN_POINT('',(17.6,25.0625,3.5));
#1203=CARTESIAN_POINT('Origin',(24.1,38.15,3.));
#1204=CARTESIAN_POINT('',(24.1,39.65,3.5));
#1205=CARTESIAN_POINT('',(22.6,38.15,3.5));
#1206=CARTESIAN_POINT('Origin',(24.1,38.15,3.5));
#1207=CARTESIAN_POINT('',(22.6,38.15,3.));
#1208=CARTESIAN_POINT('',(24.1,39.65,3.));
#1209=CARTESIAN_POINT('Origin',(22.6,35.75,3.));
#1210=CARTESIAN_POINT('',(22.6,36.15,3.5));
#1211=CARTESIAN_POINT('',(22.6,32.1875,3.5));
#1212=CARTESIAN_POINT('',(22.6,36.15,3.));
#1213=CARTESIAN_POINT('Origin',(34.9000005662441,38.15,3.));
#1214=CARTESIAN_POINT('',(36.4000005662441,38.15,3.5));
#1215=CARTESIAN_POINT('',(34.9000005662441,39.65,3.5));
#1216=CARTESIAN_POINT('Origin',(34.9000005662441,38.15,3.5));
#1217=CARTESIAN_POINT('',(34.9000005662441,39.65,3.));
#1218=CARTESIAN_POINT('',(36.4000005662441,38.15,3.));
#1219=CARTESIAN_POINT('Origin',(21.5,39.65,3.));
#1220=CARTESIAN_POINT('',(25.5,39.65,3.5));
#1221=CARTESIAN_POINT('Origin',(39.9,33.15,3.));
#1222=CARTESIAN_POINT('',(41.4,33.15,3.5));
#1223=CARTESIAN_POINT('',(39.9,34.65,3.5));
#1224=CARTESIAN_POINT('Origin',(39.9,33.15,3.5));
#1225=CARTESIAN_POINT('',(39.9,34.65,3.));
#1226=CARTESIAN_POINT('',(41.4,33.15,3.));
#1227=CARTESIAN_POINT('Origin',(38.0000005662441,34.65,3.));
#1228=CARTESIAN_POINT('',(37.9000005662441,34.65,3.5));
#1229=CARTESIAN_POINT('',(33.7500002831221,34.65,3.5));
#1230=CARTESIAN_POINT('',(37.9000005662441,34.65,3.));
#1231=CARTESIAN_POINT('Origin',(39.9,24.1,3.));
#1232=CARTESIAN_POINT('',(39.9,22.6,3.5));
#1233=CARTESIAN_POINT('',(41.4,24.1,3.5));
#1234=CARTESIAN_POINT('Origin',(39.9,24.1,3.5));
#1235=CARTESIAN_POINT('',(41.4,24.1,3.));
#1236=CARTESIAN_POINT('',(39.9,22.6,3.));
#1237=CARTESIAN_POINT('Origin',(41.4,35.75,3.));
#1238=CARTESIAN_POINT('',(41.4,32.1875,3.5));
#1239=CARTESIAN_POINT('Origin',(37.9,21.1,3.));
#1240=CARTESIAN_POINT('',(37.9,22.6,3.5));
#1241=CARTESIAN_POINT('Origin',(37.9,21.1,3.5));
#1242=CARTESIAN_POINT('',(37.9,22.6,3.));
#1243=CARTESIAN_POINT('Origin',(21.1,21.1,3.));
#1244=CARTESIAN_POINT('',(22.6,21.1,3.5));
#1245=CARTESIAN_POINT('Origin',(21.1,21.1,3.5));
#1246=CARTESIAN_POINT('',(22.6,21.1,3.));
#1247=CARTESIAN_POINT('Origin',(37.9000005662441,36.15,3.));
#1248=CARTESIAN_POINT('',(36.4000005662441,36.15,3.5));
#1249=CARTESIAN_POINT('Origin',(37.9000005662441,36.15,3.5));
#1250=CARTESIAN_POINT('',(36.4000005662441,36.15,3.));
#1251=CARTESIAN_POINT('Origin',(21.1,36.15,3.));
#1252=CARTESIAN_POINT('',(21.1,34.65,3.5));
#1253=CARTESIAN_POINT('Origin',(21.1,36.15,3.5));
#1254=CARTESIAN_POINT('',(21.1,34.65,3.));
#1255=CARTESIAN_POINT('Origin',(16.5,34.65,3.));
#1256=CARTESIAN_POINT('',(23.,34.65,3.5));
#1257=CARTESIAN_POINT('Origin',(36.4000005662441,40.75,3.));
#1258=CARTESIAN_POINT('',(36.4000005662441,34.6875,3.5));
#1259=CARTESIAN_POINT('Origin',(22.6,16.5,3.));
#1260=CARTESIAN_POINT('',(22.6,22.5625,3.5));
#1261=CARTESIAN_POINT('Origin',(42.5,22.6,3.));
#1262=CARTESIAN_POINT('',(36.,22.6,3.5));
#1263=CARTESIAN_POINT('Origin',(16.5,16.55,1.5));
#1264=CARTESIAN_POINT('',(16.55,16.55,3.5));
#1265=CARTESIAN_POINT('',(42.45,16.55,3.5));
#1266=CARTESIAN_POINT('',(23.,16.55,3.5));
#1267=CARTESIAN_POINT('',(16.55,16.55,1.5));
#1268=CARTESIAN_POINT('',(42.45,16.55,1.5));
#1269=CARTESIAN_POINT('Origin',(42.45,16.5,1.5));
#1270=CARTESIAN_POINT('',(42.45,40.7,3.5));
#1271=CARTESIAN_POINT('',(42.45,40.7,1.5));
#1272=CARTESIAN_POINT('',(42.45,22.5625,3.5));
#1273=CARTESIAN_POINT('Origin',(29.5,28.625,3.5));
#1274=CARTESIAN_POINT('',(16.55,40.7,3.5));
#1275=CARTESIAN_POINT('',(36.,40.7,3.5));
#1276=CARTESIAN_POINT('',(16.55,34.6875,3.5));
#1277=CARTESIAN_POINT('Origin',(42.5,40.7,1.5));
#1278=CARTESIAN_POINT('',(16.55,40.7,1.5));
#1279=CARTESIAN_POINT('Origin',(16.55,40.75,1.5));
#1280=CARTESIAN_POINT('Origin',(44.,42.25,0.));
#1281=CARTESIAN_POINT('Origin',(15.,15.,0.));
#1282=UNCERTAINTY_MEASURE_WITH_UNIT(LENGTH_MEASURE(0.01),#1288,
'DISTANCE_ACCURACY_VALUE',
'Maximum model space distance between geometric entities at asserted c
onnectivities');
#1283=UNCERTAINTY_MEASURE_WITH_UNIT(LENGTH_MEASURE(0.01),#1288,
'DISTANCE_ACCURACY_VALUE',
'Maximum model space distance between geometric entities at asserted c
onnectivities');
#1284=(
GEOMETRIC_REPRESENTATION_CONTEXT(3)
GLOBAL_UNCERTAINTY_ASSIGNED_CONTEXT((#1282))
GLOBAL_UNIT_ASSIGNED_CONTEXT((#1288,#1287,#1286))
REPRESENTATION_CONTEXT('','3D')
);
#1285=(
GEOMETRIC_REPRESENTATION_CONTEXT(3)
GLOBAL_UNCERTAINTY_ASSIGNED_CONTEXT((#1283))
GLOBAL_UNIT_ASSIGNED_CONTEXT((#1288,#1287,#1286))
REPRESENTATION_CONTEXT('','3D')
);
#1286=(
NAMED_UNIT(*)
SI_UNIT($,.STERADIAN.)
SOLID_ANGLE_UNIT()
);
#1287=(
NAMED_UNIT(*)
PLANE_ANGLE_UNIT()
SI_UNIT($,.RADIAN.)
);
#1288=(
LENGTH_UNIT()
NAMED_UNIT(*)
SI_UNIT(.MILLI.,.METRE.)
);
#1289=(
LENGTH_UNIT()
NAMED_UNIT(*)
SI_UNIT($,.METRE.)
);
#1290=SHAPE_DEFINITION_REPRESENTATION(#1291,#1292);
#1291=PRODUCT_DEFINITION_SHAPE('',$,#1294);
#1292=SHAPE_REPRESENTATION('',(#770),#1284);
#1293=PRODUCT_DEFINITION_CONTEXT('part definition',#1298,'design');
#1294=PRODUCT_DEFINITION('CameraFront','CameraFront v3',#1295,#1293);
#1295=PRODUCT_DEFINITION_FORMATION('',$,#1300);
#1296=PRODUCT_RELATED_PRODUCT_CATEGORY('CameraFront v3',
'CameraFront v3',(#1300));
#1297=APPLICATION_PROTOCOL_DEFINITION('international standard',
'automotive_design',2009,#1298);
#1298=APPLICATION_CONTEXT(
'Core Data for Automotive Mechanical Design Process');
#1299=PRODUCT_CONTEXT('part definition',#1298,'mechanical');
#1300=PRODUCT('CameraFront','CameraFront v3',$,(#1299));
#1301=PRESENTATION_STYLE_ASSIGNMENT((#1303));
#1302=PRESENTATION_STYLE_ASSIGNMENT((#1304));
#1303=SURFACE_STYLE_USAGE(.BOTH.,#1305);
#1304=SURFACE_STYLE_USAGE(.BOTH.,#1306);
#1305=SURFACE_SIDE_STYLE('',(#1307));
#1306=SURFACE_SIDE_STYLE('',(#1308));
#1307=SURFACE_STYLE_FILL_AREA(#1309);
#1308=SURFACE_STYLE_FILL_AREA(#1310);
#1309=FILL_AREA_STYLE('Steel - Satin',(#1311));
#1310=FILL_AREA_STYLE('Opaque(160,160,160)',(#1312));
#1311=FILL_AREA_STYLE_COLOUR('Steel - Satin',#1313);
#1312=FILL_AREA_STYLE_COLOUR('Opaque(160,160,160)',#1314);
#1313=COLOUR_RGB('Steel - Satin',0.627450980392157,0.627450980392157,0.627450980392157);
#1314=COLOUR_RGB('Opaque(160,160,160)',0.627450980392157,0.627450980392157,
0.627450980392157);
ENDSEC;
END-ISO-10303-21;
