ISO-10303-21;
HEADER;
/* Generated by software containing ST-Developer
 * from STEP Tools, Inc. (www.steptools.com) 
 */

FILE_DESCRIPTION(
/* description */ (''),
/* implementation_level */ '2;1');

FILE_NAME(
/* name */ 
'/var/folders/_l/pjyt202j6xn5l7jx__8v7kl80000gn/T/com.autodesk.mas.fus
ion360/Neutron/68dc6e69-7db0-49ba-bdd4-acbf33f3bbdf.stp',
/* time_stamp */ '2018-08-01T13:54:49-04:00',
/* author */ ('LazaroFilm'),
/* organization */ (''),
/* preprocessor_version */ 'ST-DEVELOPER v17',
/* originating_system */ 'Autodesk Translation Framework v7.1.0.215',
/* authorisation */ '');

FILE_SCHEMA (('AUTOMOTIVE_DESIGN { 1 0 10303 214 3 1 1 }'));
ENDSEC;

DATA;
#10=MECHANICAL_DESIGN_GEOMETRIC_PRESENTATION_REPRESENTATION('',(#13),#907);
#11=SHAPE_REPRESENTATION_RELATIONSHIP('SRR','None',#914,#12);
#12=ADVANCED_BREP_SHAPE_REPRESENTATION('',(#14),#906);
#13=STYLED_ITEM('',(#924),#14);
#14=MANIFOLD_SOLID_BREP('Body1',#529);
#15=FACE_BOUND('',#73,.T.);
#16=FACE_BOUND('',#77,.T.);
#17=FACE_BOUND('',#102,.T.);
#18=FACE_BOUND('',#103,.T.);
#19=FACE_BOUND('',#104,.T.);
#20=FACE_BOUND('',#105,.T.);
#21=PLANE('',#546);
#22=PLANE('',#548);
#23=PLANE('',#554);
#24=PLANE('',#556);
#25=PLANE('',#560);
#26=PLANE('',#565);
#27=PLANE('',#569);
#28=PLANE('',#573);
#29=PLANE('',#578);
#30=PLANE('',#583);
#31=PLANE('',#585);
#32=PLANE('',#586);
#33=PLANE('',#587);
#34=PLANE('',#588);
#35=PLANE('',#589);
#36=PLANE('',#590);
#37=PLANE('',#591);
#38=PLANE('',#592);
#39=PLANE('',#595);
#40=PLANE('',#596);
#41=FACE_OUTER_BOUND('',#71,.T.);
#42=FACE_OUTER_BOUND('',#72,.T.);
#43=FACE_OUTER_BOUND('',#74,.T.);
#44=FACE_OUTER_BOUND('',#75,.T.);
#45=FACE_OUTER_BOUND('',#76,.T.);
#46=FACE_OUTER_BOUND('',#78,.T.);
#47=FACE_OUTER_BOUND('',#79,.T.);
#48=FACE_OUTER_BOUND('',#80,.T.);
#49=FACE_OUTER_BOUND('',#81,.T.);
#50=FACE_OUTER_BOUND('',#82,.T.);
#51=FACE_OUTER_BOUND('',#83,.T.);
#52=FACE_OUTER_BOUND('',#84,.T.);
#53=FACE_OUTER_BOUND('',#85,.T.);
#54=FACE_OUTER_BOUND('',#86,.T.);
#55=FACE_OUTER_BOUND('',#87,.T.);
#56=FACE_OUTER_BOUND('',#88,.T.);
#57=FACE_OUTER_BOUND('',#89,.T.);
#58=FACE_OUTER_BOUND('',#90,.T.);
#59=FACE_OUTER_BOUND('',#91,.T.);
#60=FACE_OUTER_BOUND('',#92,.T.);
#61=FACE_OUTER_BOUND('',#93,.T.);
#62=FACE_OUTER_BOUND('',#94,.T.);
#63=FACE_OUTER_BOUND('',#95,.T.);
#64=FACE_OUTER_BOUND('',#96,.T.);
#65=FACE_OUTER_BOUND('',#97,.T.);
#66=FACE_OUTER_BOUND('',#98,.T.);
#67=FACE_OUTER_BOUND('',#99,.T.);
#68=FACE_OUTER_BOUND('',#100,.T.);
#69=FACE_OUTER_BOUND('',#101,.T.);
#70=FACE_OUTER_BOUND('',#106,.T.);
#71=EDGE_LOOP('',(#345,#346,#347,#348));
#72=EDGE_LOOP('',(#349,#350,#351,#352));
#73=EDGE_LOOP('',(#353));
#74=EDGE_LOOP('',(#354,#355,#356,#357,#358,#359,#360,#361));
#75=EDGE_LOOP('',(#362,#363,#364,#365));
#76=EDGE_LOOP('',(#366,#367,#368,#369));
#77=EDGE_LOOP('',(#370));
#78=EDGE_LOOP('',(#371,#372,#373,#374,#375,#376,#377,#378,#379,#380));
#79=EDGE_LOOP('',(#381,#382,#383,#384,#385));
#80=EDGE_LOOP('',(#386,#387,#388,#389,#390,#391,#392,#393));
#81=EDGE_LOOP('',(#394,#395,#396,#397,#398));
#82=EDGE_LOOP('',(#399,#400,#401,#402));
#83=EDGE_LOOP('',(#403));
#84=EDGE_LOOP('',(#404,#405,#406,#407));
#85=EDGE_LOOP('',(#408));
#86=EDGE_LOOP('',(#409,#410,#411,#412));
#87=EDGE_LOOP('',(#413,#414,#415,#416));
#88=EDGE_LOOP('',(#417,#418,#419,#420,#421,#422));
#89=EDGE_LOOP('',(#423,#424,#425,#426));
#90=EDGE_LOOP('',(#427,#428,#429,#430,#431,#432));
#91=EDGE_LOOP('',(#433));
#92=EDGE_LOOP('',(#434,#435));
#93=EDGE_LOOP('',(#436,#437,#438,#439));
#94=EDGE_LOOP('',(#440,#441,#442));
#95=EDGE_LOOP('',(#443,#444,#445,#446,#447,#448));
#96=EDGE_LOOP('',(#449,#450,#451,#452));
#97=EDGE_LOOP('',(#453,#454,#455,#456));
#98=EDGE_LOOP('',(#457,#458,#459,#460));
#99=EDGE_LOOP('',(#461,#462,#463,#464,#465,#466,#467));
#100=EDGE_LOOP('',(#468,#469,#470,#471));
#101=EDGE_LOOP('',(#472,#473,#474,#475,#476,#477,#478,#479,#480,#481,#482,
#483));
#102=EDGE_LOOP('',(#484));
#103=EDGE_LOOP('',(#485));
#104=EDGE_LOOP('',(#486));
#105=EDGE_LOOP('',(#487));
#106=EDGE_LOOP('',(#488));
#107=LINE('',#761,#155);
#108=LINE('',#764,#156);
#109=LINE('',#767,#157);
#110=LINE('',#769,#158);
#111=LINE('',#770,#159);
#112=LINE('',#775,#160);
#113=LINE('',#779,#161);
#114=LINE('',#783,#162);
#115=LINE('',#789,#163);
#116=LINE('',#790,#164);
#117=LINE('',#793,#165);
#118=LINE('',#794,#166);
#119=LINE('',#801,#167);
#120=LINE('',#803,#168);
#121=LINE('',#805,#169);
#122=LINE('',#807,#170);
#123=LINE('',#810,#171);
#124=LINE('',#811,#172);
#125=LINE('',#814,#173);
#126=LINE('',#816,#174);
#127=LINE('',#818,#175);
#128=LINE('',#820,#176);
#129=LINE('',#822,#177);
#130=LINE('',#823,#178);
#131=LINE('',#825,#179);
#132=LINE('',#830,#180);
#133=LINE('',#837,#181);
#134=LINE('',#844,#182);
#135=LINE('',#849,#183);
#136=LINE('',#857,#184);
#137=LINE('',#859,#185);
#138=LINE('',#860,#186);
#139=LINE('',#863,#187);
#140=LINE('',#873,#188);
#141=LINE('',#877,#189);
#142=LINE('',#878,#190);
#143=LINE('',#879,#191);
#144=LINE('',#881,#192);
#145=LINE('',#883,#193);
#146=LINE('',#884,#194);
#147=LINE('',#887,#195);
#148=LINE('',#888,#196);
#149=LINE('',#891,#197);
#150=LINE('',#892,#198);
#151=LINE('',#894,#199);
#152=LINE('',#896,#200);
#153=LINE('',#897,#201);
#154=LINE('',#900,#202);
#155=VECTOR('',#603,10.);
#156=VECTOR('',#606,10.);
#157=VECTOR('',#609,10.);
#158=VECTOR('',#610,10.);
#159=VECTOR('',#611,10.);
#160=VECTOR('',#616,10.);
#161=VECTOR('',#619,10.);
#162=VECTOR('',#622,10.);
#163=VECTOR('',#629,10.);
#164=VECTOR('',#630,10.);
#165=VECTOR('',#633,10.);
#166=VECTOR('',#634,10.);
#167=VECTOR('',#641,10.);
#168=VECTOR('',#642,10.);
#169=VECTOR('',#643,10.);
#170=VECTOR('',#646,10.);
#171=VECTOR('',#649,10.);
#172=VECTOR('',#650,10.);
#173=VECTOR('',#653,10.);
#174=VECTOR('',#654,10.);
#175=VECTOR('',#655,10.);
#176=VECTOR('',#656,10.);
#177=VECTOR('',#657,10.);
#178=VECTOR('',#658,10.);
#179=VECTOR('',#661,10.);
#180=VECTOR('',#666,0.750000000000002);
#181=VECTOR('',#675,0.750000000000002);
#182=VECTOR('',#684,0.750000000000002);
#183=VECTOR('',#691,2.);
#184=VECTOR('',#700,10.);
#185=VECTOR('',#701,10.);
#186=VECTOR('',#702,10.);
#187=VECTOR('',#705,2.);
#188=VECTOR('',#718,10.);
#189=VECTOR('',#721,10.);
#190=VECTOR('',#722,10.);
#191=VECTOR('',#723,10.);
#192=VECTOR('',#726,10.);
#193=VECTOR('',#729,10.);
#194=VECTOR('',#730,10.);
#195=VECTOR('',#733,10.);
#196=VECTOR('',#734,10.);
#197=VECTOR('',#737,10.);
#198=VECTOR('',#738,10.);
#199=VECTOR('',#741,10.);
#200=VECTOR('',#744,10.);
#201=VECTOR('',#745,10.);
#202=VECTOR('',#748,0.750000000000002);
#203=CIRCLE('',#544,1.5);
#204=CIRCLE('',#545,1.5);
#205=CIRCLE('',#547,2.);
#206=CIRCLE('',#549,1.5);
#207=CIRCLE('',#550,1.5);
#208=CIRCLE('',#551,1.5);
#209=CIRCLE('',#553,1.5);
#210=CIRCLE('',#555,2.);
#211=CIRCLE('',#557,1.5);
#212=CIRCLE('',#558,1.5);
#213=CIRCLE('',#563,0.750000000000002);
#214=CIRCLE('',#564,0.750000000000002);
#215=CIRCLE('',#567,0.750000000000002);
#216=CIRCLE('',#568,0.750000000000002);
#217=CIRCLE('',#571,0.750000000000002);
#218=CIRCLE('',#572,0.750000000000002);
#219=CIRCLE('',#575,2.);
#220=CIRCLE('',#576,2.);
#221=CIRCLE('',#577,2.);
#222=CIRCLE('',#580,2.);
#223=CIRCLE('',#581,2.);
#224=CIRCLE('',#582,2.);
#225=CIRCLE('',#584,0.750000000000002);
#226=CIRCLE('',#594,0.750000000000002);
#227=VERTEX_POINT('',#757);
#228=VERTEX_POINT('',#758);
#229=VERTEX_POINT('',#760);
#230=VERTEX_POINT('',#762);
#231=VERTEX_POINT('',#766);
#232=VERTEX_POINT('',#768);
#233=VERTEX_POINT('',#771);
#234=VERTEX_POINT('',#774);
#235=VERTEX_POINT('',#776);
#236=VERTEX_POINT('',#778);
#237=VERTEX_POINT('',#780);
#238=VERTEX_POINT('',#782);
#239=VERTEX_POINT('',#786);
#240=VERTEX_POINT('',#787);
#241=VERTEX_POINT('',#792);
#242=VERTEX_POINT('',#795);
#243=VERTEX_POINT('',#798);
#244=VERTEX_POINT('',#800);
#245=VERTEX_POINT('',#802);
#246=VERTEX_POINT('',#804);
#247=VERTEX_POINT('',#809);
#248=VERTEX_POINT('',#813);
#249=VERTEX_POINT('',#815);
#250=VERTEX_POINT('',#817);
#251=VERTEX_POINT('',#819);
#252=VERTEX_POINT('',#821);
#253=VERTEX_POINT('',#827);
#254=VERTEX_POINT('',#829);
#255=VERTEX_POINT('',#834);
#256=VERTEX_POINT('',#836);
#257=VERTEX_POINT('',#841);
#258=VERTEX_POINT('',#843);
#259=VERTEX_POINT('',#848);
#260=VERTEX_POINT('',#850);
#261=VERTEX_POINT('',#852);
#262=VERTEX_POINT('',#856);
#263=VERTEX_POINT('',#858);
#264=VERTEX_POINT('',#862);
#265=VERTEX_POINT('',#864);
#266=VERTEX_POINT('',#866);
#267=VERTEX_POINT('',#870);
#268=VERTEX_POINT('',#875);
#269=VERTEX_POINT('',#876);
#270=VERTEX_POINT('',#886);
#271=VERTEX_POINT('',#890);
#272=VERTEX_POINT('',#899);
#273=EDGE_CURVE('',#227,#228,#203,.T.);
#274=EDGE_CURVE('',#228,#229,#107,.T.);
#275=EDGE_CURVE('',#229,#230,#204,.T.);
#276=EDGE_CURVE('',#230,#227,#108,.T.);
#277=EDGE_CURVE('',#231,#230,#109,.T.);
#278=EDGE_CURVE('',#232,#231,#110,.T.);
#279=EDGE_CURVE('',#227,#232,#111,.T.);
#280=EDGE_CURVE('',#233,#233,#205,.T.);
#281=EDGE_CURVE('',#234,#229,#112,.F.);
#282=EDGE_CURVE('',#235,#234,#206,.T.);
#283=EDGE_CURVE('',#235,#236,#113,.T.);
#284=EDGE_CURVE('',#237,#236,#207,.T.);
#285=EDGE_CURVE('',#238,#237,#114,.F.);
#286=EDGE_CURVE('',#231,#238,#208,.T.);
#287=EDGE_CURVE('',#239,#240,#209,.T.);
#288=EDGE_CURVE('',#240,#235,#115,.T.);
#289=EDGE_CURVE('',#234,#239,#116,.T.);
#290=EDGE_CURVE('',#241,#240,#117,.T.);
#291=EDGE_CURVE('',#236,#241,#118,.T.);
#292=EDGE_CURVE('',#242,#242,#210,.T.);
#293=EDGE_CURVE('',#243,#232,#211,.T.);
#294=EDGE_CURVE('',#243,#244,#119,.F.);
#295=EDGE_CURVE('',#244,#245,#120,.T.);
#296=EDGE_CURVE('',#245,#246,#121,.F.);
#297=EDGE_CURVE('',#241,#246,#212,.T.);
#298=EDGE_CURVE('',#239,#228,#122,.F.);
#299=EDGE_CURVE('',#238,#247,#123,.T.);
#300=EDGE_CURVE('',#247,#243,#124,.T.);
#301=EDGE_CURVE('',#248,#237,#125,.T.);
#302=EDGE_CURVE('',#249,#248,#126,.F.);
#303=EDGE_CURVE('',#249,#250,#127,.T.);
#304=EDGE_CURVE('',#251,#250,#128,.T.);
#305=EDGE_CURVE('',#251,#252,#129,.T.);
#306=EDGE_CURVE('',#247,#252,#130,.F.);
#307=EDGE_CURVE('',#246,#248,#131,.T.);
#308=EDGE_CURVE('',#253,#253,#213,.T.);
#309=EDGE_CURVE('',#253,#254,#132,.T.);
#310=EDGE_CURVE('',#254,#254,#214,.T.);
#311=EDGE_CURVE('',#255,#255,#215,.T.);
#312=EDGE_CURVE('',#255,#256,#133,.T.);
#313=EDGE_CURVE('',#256,#256,#216,.T.);
#314=EDGE_CURVE('',#257,#257,#217,.T.);
#315=EDGE_CURVE('',#257,#258,#134,.T.);
#316=EDGE_CURVE('',#258,#258,#218,.T.);
#317=EDGE_CURVE('',#242,#259,#135,.T.);
#318=EDGE_CURVE('',#259,#260,#219,.T.);
#319=EDGE_CURVE('',#261,#260,#220,.T.);
#320=EDGE_CURVE('',#261,#259,#221,.T.);
#321=EDGE_CURVE('',#262,#251,#136,.F.);
#322=EDGE_CURVE('',#250,#263,#137,.F.);
#323=EDGE_CURVE('',#263,#262,#138,.T.);
#324=EDGE_CURVE('',#233,#264,#139,.T.);
#325=EDGE_CURVE('',#265,#264,#222,.T.);
#326=EDGE_CURVE('',#265,#266,#223,.T.);
#327=EDGE_CURVE('',#264,#266,#224,.T.);
#328=EDGE_CURVE('',#267,#267,#225,.T.);
#329=EDGE_CURVE('',#265,#266,#140,.F.);
#330=EDGE_CURVE('',#268,#269,#141,.T.);
#331=EDGE_CURVE('',#269,#245,#142,.T.);
#332=EDGE_CURVE('',#268,#244,#143,.F.);
#333=EDGE_CURVE('',#261,#260,#144,.F.);
#334=EDGE_CURVE('',#260,#248,#145,.F.);
#335=EDGE_CURVE('',#269,#261,#146,.F.);
#336=EDGE_CURVE('',#270,#249,#147,.F.);
#337=EDGE_CURVE('',#263,#270,#148,.F.);
#338=EDGE_CURVE('',#271,#262,#149,.F.);
#339=EDGE_CURVE('',#271,#270,#150,.F.);
#340=EDGE_CURVE('',#252,#271,#151,.F.);
#341=EDGE_CURVE('',#247,#265,#152,.F.);
#342=EDGE_CURVE('',#266,#268,#153,.F.);
#343=EDGE_CURVE('',#267,#272,#154,.T.);
#344=EDGE_CURVE('',#272,#272,#226,.T.);
#345=ORIENTED_EDGE('',*,*,#273,.T.);
#346=ORIENTED_EDGE('',*,*,#274,.T.);
#347=ORIENTED_EDGE('',*,*,#275,.T.);
#348=ORIENTED_EDGE('',*,*,#276,.T.);
#349=ORIENTED_EDGE('',*,*,#276,.F.);
#350=ORIENTED_EDGE('',*,*,#277,.F.);
#351=ORIENTED_EDGE('',*,*,#278,.F.);
#352=ORIENTED_EDGE('',*,*,#279,.F.);
#353=ORIENTED_EDGE('',*,*,#280,.T.);
#354=ORIENTED_EDGE('',*,*,#275,.F.);
#355=ORIENTED_EDGE('',*,*,#281,.F.);
#356=ORIENTED_EDGE('',*,*,#282,.F.);
#357=ORIENTED_EDGE('',*,*,#283,.T.);
#358=ORIENTED_EDGE('',*,*,#284,.F.);
#359=ORIENTED_EDGE('',*,*,#285,.F.);
#360=ORIENTED_EDGE('',*,*,#286,.F.);
#361=ORIENTED_EDGE('',*,*,#277,.T.);
#362=ORIENTED_EDGE('',*,*,#287,.T.);
#363=ORIENTED_EDGE('',*,*,#288,.T.);
#364=ORIENTED_EDGE('',*,*,#282,.T.);
#365=ORIENTED_EDGE('',*,*,#289,.T.);
#366=ORIENTED_EDGE('',*,*,#288,.F.);
#367=ORIENTED_EDGE('',*,*,#290,.F.);
#368=ORIENTED_EDGE('',*,*,#291,.F.);
#369=ORIENTED_EDGE('',*,*,#283,.F.);
#370=ORIENTED_EDGE('',*,*,#292,.T.);
#371=ORIENTED_EDGE('',*,*,#273,.F.);
#372=ORIENTED_EDGE('',*,*,#279,.T.);
#373=ORIENTED_EDGE('',*,*,#293,.F.);
#374=ORIENTED_EDGE('',*,*,#294,.T.);
#375=ORIENTED_EDGE('',*,*,#295,.T.);
#376=ORIENTED_EDGE('',*,*,#296,.T.);
#377=ORIENTED_EDGE('',*,*,#297,.F.);
#378=ORIENTED_EDGE('',*,*,#290,.T.);
#379=ORIENTED_EDGE('',*,*,#287,.F.);
#380=ORIENTED_EDGE('',*,*,#298,.T.);
#381=ORIENTED_EDGE('',*,*,#293,.T.);
#382=ORIENTED_EDGE('',*,*,#278,.T.);
#383=ORIENTED_EDGE('',*,*,#286,.T.);
#384=ORIENTED_EDGE('',*,*,#299,.T.);
#385=ORIENTED_EDGE('',*,*,#300,.T.);
#386=ORIENTED_EDGE('',*,*,#299,.F.);
#387=ORIENTED_EDGE('',*,*,#285,.T.);
#388=ORIENTED_EDGE('',*,*,#301,.F.);
#389=ORIENTED_EDGE('',*,*,#302,.F.);
#390=ORIENTED_EDGE('',*,*,#303,.T.);
#391=ORIENTED_EDGE('',*,*,#304,.F.);
#392=ORIENTED_EDGE('',*,*,#305,.T.);
#393=ORIENTED_EDGE('',*,*,#306,.F.);
#394=ORIENTED_EDGE('',*,*,#297,.T.);
#395=ORIENTED_EDGE('',*,*,#307,.T.);
#396=ORIENTED_EDGE('',*,*,#301,.T.);
#397=ORIENTED_EDGE('',*,*,#284,.T.);
#398=ORIENTED_EDGE('',*,*,#291,.T.);
#399=ORIENTED_EDGE('',*,*,#308,.F.);
#400=ORIENTED_EDGE('',*,*,#309,.T.);
#401=ORIENTED_EDGE('',*,*,#310,.F.);
#402=ORIENTED_EDGE('',*,*,#309,.F.);
#403=ORIENTED_EDGE('',*,*,#308,.T.);
#404=ORIENTED_EDGE('',*,*,#311,.F.);
#405=ORIENTED_EDGE('',*,*,#312,.T.);
#406=ORIENTED_EDGE('',*,*,#313,.F.);
#407=ORIENTED_EDGE('',*,*,#312,.F.);
#408=ORIENTED_EDGE('',*,*,#311,.T.);
#409=ORIENTED_EDGE('',*,*,#314,.F.);
#410=ORIENTED_EDGE('',*,*,#315,.T.);
#411=ORIENTED_EDGE('',*,*,#316,.F.);
#412=ORIENTED_EDGE('',*,*,#315,.F.);
#413=ORIENTED_EDGE('',*,*,#274,.F.);
#414=ORIENTED_EDGE('',*,*,#298,.F.);
#415=ORIENTED_EDGE('',*,*,#289,.F.);
#416=ORIENTED_EDGE('',*,*,#281,.T.);
#417=ORIENTED_EDGE('',*,*,#292,.F.);
#418=ORIENTED_EDGE('',*,*,#317,.T.);
#419=ORIENTED_EDGE('',*,*,#318,.T.);
#420=ORIENTED_EDGE('',*,*,#319,.F.);
#421=ORIENTED_EDGE('',*,*,#320,.T.);
#422=ORIENTED_EDGE('',*,*,#317,.F.);
#423=ORIENTED_EDGE('',*,*,#321,.T.);
#424=ORIENTED_EDGE('',*,*,#304,.T.);
#425=ORIENTED_EDGE('',*,*,#322,.T.);
#426=ORIENTED_EDGE('',*,*,#323,.T.);
#427=ORIENTED_EDGE('',*,*,#280,.F.);
#428=ORIENTED_EDGE('',*,*,#324,.T.);
#429=ORIENTED_EDGE('',*,*,#325,.F.);
#430=ORIENTED_EDGE('',*,*,#326,.T.);
#431=ORIENTED_EDGE('',*,*,#327,.F.);
#432=ORIENTED_EDGE('',*,*,#324,.F.);
#433=ORIENTED_EDGE('',*,*,#328,.T.);
#434=ORIENTED_EDGE('',*,*,#329,.T.);
#435=ORIENTED_EDGE('',*,*,#326,.F.);
#436=ORIENTED_EDGE('',*,*,#330,.T.);
#437=ORIENTED_EDGE('',*,*,#331,.T.);
#438=ORIENTED_EDGE('',*,*,#295,.F.);
#439=ORIENTED_EDGE('',*,*,#332,.F.);
#440=ORIENTED_EDGE('',*,*,#333,.T.);
#441=ORIENTED_EDGE('',*,*,#318,.F.);
#442=ORIENTED_EDGE('',*,*,#320,.F.);
#443=ORIENTED_EDGE('',*,*,#334,.T.);
#444=ORIENTED_EDGE('',*,*,#307,.F.);
#445=ORIENTED_EDGE('',*,*,#296,.F.);
#446=ORIENTED_EDGE('',*,*,#331,.F.);
#447=ORIENTED_EDGE('',*,*,#335,.T.);
#448=ORIENTED_EDGE('',*,*,#319,.T.);
#449=ORIENTED_EDGE('',*,*,#303,.F.);
#450=ORIENTED_EDGE('',*,*,#336,.F.);
#451=ORIENTED_EDGE('',*,*,#337,.F.);
#452=ORIENTED_EDGE('',*,*,#322,.F.);
#453=ORIENTED_EDGE('',*,*,#338,.T.);
#454=ORIENTED_EDGE('',*,*,#323,.F.);
#455=ORIENTED_EDGE('',*,*,#337,.T.);
#456=ORIENTED_EDGE('',*,*,#339,.F.);
#457=ORIENTED_EDGE('',*,*,#305,.F.);
#458=ORIENTED_EDGE('',*,*,#321,.F.);
#459=ORIENTED_EDGE('',*,*,#338,.F.);
#460=ORIENTED_EDGE('',*,*,#340,.F.);
#461=ORIENTED_EDGE('',*,*,#300,.F.);
#462=ORIENTED_EDGE('',*,*,#341,.T.);
#463=ORIENTED_EDGE('',*,*,#325,.T.);
#464=ORIENTED_EDGE('',*,*,#327,.T.);
#465=ORIENTED_EDGE('',*,*,#342,.T.);
#466=ORIENTED_EDGE('',*,*,#332,.T.);
#467=ORIENTED_EDGE('',*,*,#294,.F.);
#468=ORIENTED_EDGE('',*,*,#328,.F.);
#469=ORIENTED_EDGE('',*,*,#343,.T.);
#470=ORIENTED_EDGE('',*,*,#344,.F.);
#471=ORIENTED_EDGE('',*,*,#343,.F.);
#472=ORIENTED_EDGE('',*,*,#341,.F.);
#473=ORIENTED_EDGE('',*,*,#306,.T.);
#474=ORIENTED_EDGE('',*,*,#340,.T.);
#475=ORIENTED_EDGE('',*,*,#339,.T.);
#476=ORIENTED_EDGE('',*,*,#336,.T.);
#477=ORIENTED_EDGE('',*,*,#302,.T.);
#478=ORIENTED_EDGE('',*,*,#334,.F.);
#479=ORIENTED_EDGE('',*,*,#333,.F.);
#480=ORIENTED_EDGE('',*,*,#335,.F.);
#481=ORIENTED_EDGE('',*,*,#330,.F.);
#482=ORIENTED_EDGE('',*,*,#342,.F.);
#483=ORIENTED_EDGE('',*,*,#329,.F.);
#484=ORIENTED_EDGE('',*,*,#310,.T.);
#485=ORIENTED_EDGE('',*,*,#313,.T.);
#486=ORIENTED_EDGE('',*,*,#316,.T.);
#487=ORIENTED_EDGE('',*,*,#344,.T.);
#488=ORIENTED_EDGE('',*,*,#314,.T.);
#489=CYLINDRICAL_SURFACE('',#543,1.5);
#490=CYLINDRICAL_SURFACE('',#552,1.5);
#491=CYLINDRICAL_SURFACE('',#559,1.5);
#492=CYLINDRICAL_SURFACE('',#561,1.5);
#493=CYLINDRICAL_SURFACE('',#562,0.750000000000002);
#494=CYLINDRICAL_SURFACE('',#566,0.750000000000002);
#495=CYLINDRICAL_SURFACE('',#570,0.750000000000002);
#496=CYLINDRICAL_SURFACE('',#574,2.);
#497=CYLINDRICAL_SURFACE('',#579,2.);
#498=CYLINDRICAL_SURFACE('',#593,0.750000000000002);
#499=ADVANCED_FACE('',(#41),#489,.T.);
#500=ADVANCED_FACE('',(#42,#15),#21,.T.);
#501=ADVANCED_FACE('',(#43),#22,.F.);
#502=ADVANCED_FACE('',(#44),#490,.T.);
#503=ADVANCED_FACE('',(#45,#16),#23,.T.);
#504=ADVANCED_FACE('',(#46),#24,.T.);
#505=ADVANCED_FACE('',(#47),#491,.T.);
#506=ADVANCED_FACE('',(#48),#25,.T.);
#507=ADVANCED_FACE('',(#49),#492,.T.);
#508=ADVANCED_FACE('',(#50),#493,.T.);
#509=ADVANCED_FACE('',(#51),#26,.T.);
#510=ADVANCED_FACE('',(#52),#494,.T.);
#511=ADVANCED_FACE('',(#53),#27,.T.);
#512=ADVANCED_FACE('',(#54),#495,.T.);
#513=ADVANCED_FACE('',(#55),#28,.T.);
#514=ADVANCED_FACE('',(#56),#496,.F.);
#515=ADVANCED_FACE('',(#57),#29,.T.);
#516=ADVANCED_FACE('',(#58),#497,.F.);
#517=ADVANCED_FACE('',(#59),#30,.T.);
#518=ADVANCED_FACE('',(#60),#31,.T.);
#519=ADVANCED_FACE('',(#61),#32,.T.);
#520=ADVANCED_FACE('',(#62),#33,.T.);
#521=ADVANCED_FACE('',(#63),#34,.T.);
#522=ADVANCED_FACE('',(#64),#35,.T.);
#523=ADVANCED_FACE('',(#65),#36,.T.);
#524=ADVANCED_FACE('',(#66),#37,.T.);
#525=ADVANCED_FACE('',(#67),#38,.T.);
#526=ADVANCED_FACE('',(#68),#498,.T.);
#527=ADVANCED_FACE('',(#69,#17,#18,#19,#20),#39,.T.);
#528=ADVANCED_FACE('',(#70),#40,.T.);
#529=CLOSED_SHELL('',(#499,#500,#501,#502,#503,#504,#505,#506,#507,#508,
#509,#510,#511,#512,#513,#514,#515,#516,#517,#518,#519,#520,#521,#522,#523,
#524,#525,#526,#527,#528));
#530=DERIVED_UNIT_ELEMENT(#532,1.);
#531=DERIVED_UNIT_ELEMENT(#911,3.);
#532=(
MASS_UNIT()
NAMED_UNIT(*)
SI_UNIT(.KILO.,.GRAM.)
);
#533=DERIVED_UNIT((#530,#531));
#534=MEASURE_REPRESENTATION_ITEM('density measure',
POSITIVE_RATIO_MEASURE(7850.),#533);
#535=PROPERTY_DEFINITION_REPRESENTATION(#540,#537);
#536=PROPERTY_DEFINITION_REPRESENTATION(#541,#538);
#537=REPRESENTATION('material name',(#539),#906);
#538=REPRESENTATION('density',(#534),#906);
#539=DESCRIPTIVE_REPRESENTATION_ITEM('Steel','Steel');
#540=PROPERTY_DEFINITION('material property','material name',#916);
#541=PROPERTY_DEFINITION('material property','density of part',#916);
#542=AXIS2_PLACEMENT_3D('placement',#755,#597,#598);
#543=AXIS2_PLACEMENT_3D('',#756,#599,#600);
#544=AXIS2_PLACEMENT_3D('',#759,#601,#602);
#545=AXIS2_PLACEMENT_3D('',#763,#604,#605);
#546=AXIS2_PLACEMENT_3D('',#765,#607,#608);
#547=AXIS2_PLACEMENT_3D('',#772,#612,#613);
#548=AXIS2_PLACEMENT_3D('',#773,#614,#615);
#549=AXIS2_PLACEMENT_3D('',#777,#617,#618);
#550=AXIS2_PLACEMENT_3D('',#781,#620,#621);
#551=AXIS2_PLACEMENT_3D('',#784,#623,#624);
#552=AXIS2_PLACEMENT_3D('',#785,#625,#626);
#553=AXIS2_PLACEMENT_3D('',#788,#627,#628);
#554=AXIS2_PLACEMENT_3D('',#791,#631,#632);
#555=AXIS2_PLACEMENT_3D('',#796,#635,#636);
#556=AXIS2_PLACEMENT_3D('',#797,#637,#638);
#557=AXIS2_PLACEMENT_3D('',#799,#639,#640);
#558=AXIS2_PLACEMENT_3D('',#806,#644,#645);
#559=AXIS2_PLACEMENT_3D('',#808,#647,#648);
#560=AXIS2_PLACEMENT_3D('',#812,#651,#652);
#561=AXIS2_PLACEMENT_3D('',#824,#659,#660);
#562=AXIS2_PLACEMENT_3D('',#826,#662,#663);
#563=AXIS2_PLACEMENT_3D('',#828,#664,#665);
#564=AXIS2_PLACEMENT_3D('',#831,#667,#668);
#565=AXIS2_PLACEMENT_3D('',#832,#669,#670);
#566=AXIS2_PLACEMENT_3D('',#833,#671,#672);
#567=AXIS2_PLACEMENT_3D('',#835,#673,#674);
#568=AXIS2_PLACEMENT_3D('',#838,#676,#677);
#569=AXIS2_PLACEMENT_3D('',#839,#678,#679);
#570=AXIS2_PLACEMENT_3D('',#840,#680,#681);
#571=AXIS2_PLACEMENT_3D('',#842,#682,#683);
#572=AXIS2_PLACEMENT_3D('',#845,#685,#686);
#573=AXIS2_PLACEMENT_3D('',#846,#687,#688);
#574=AXIS2_PLACEMENT_3D('',#847,#689,#690);
#575=AXIS2_PLACEMENT_3D('',#851,#692,#693);
#576=AXIS2_PLACEMENT_3D('',#853,#694,#695);
#577=AXIS2_PLACEMENT_3D('',#854,#696,#697);
#578=AXIS2_PLACEMENT_3D('',#855,#698,#699);
#579=AXIS2_PLACEMENT_3D('',#861,#703,#704);
#580=AXIS2_PLACEMENT_3D('',#865,#706,#707);
#581=AXIS2_PLACEMENT_3D('',#867,#708,#709);
#582=AXIS2_PLACEMENT_3D('',#868,#710,#711);
#583=AXIS2_PLACEMENT_3D('',#869,#712,#713);
#584=AXIS2_PLACEMENT_3D('',#871,#714,#715);
#585=AXIS2_PLACEMENT_3D('',#872,#716,#717);
#586=AXIS2_PLACEMENT_3D('',#874,#719,#720);
#587=AXIS2_PLACEMENT_3D('',#880,#724,#725);
#588=AXIS2_PLACEMENT_3D('',#882,#727,#728);
#589=AXIS2_PLACEMENT_3D('',#885,#731,#732);
#590=AXIS2_PLACEMENT_3D('',#889,#735,#736);
#591=AXIS2_PLACEMENT_3D('',#893,#739,#740);
#592=AXIS2_PLACEMENT_3D('',#895,#742,#743);
#593=AXIS2_PLACEMENT_3D('',#898,#746,#747);
#594=AXIS2_PLACEMENT_3D('',#901,#749,#750);
#595=AXIS2_PLACEMENT_3D('',#902,#751,#752);
#596=AXIS2_PLACEMENT_3D('',#903,#753,#754);
#597=DIRECTION('axis',(0.,0.,1.));
#598=DIRECTION('refdir',(1.,0.,0.));
#599=DIRECTION('center_axis',(0.,0.,1.));
#600=DIRECTION('ref_axis',(0.707106781186549,-0.707106781186546,0.));
#601=DIRECTION('center_axis',(0.,0.,-1.));
#602=DIRECTION('ref_axis',(0.707106781186549,-0.707106781186546,0.));
#603=DIRECTION('',(0.,0.,-1.));
#604=DIRECTION('center_axis',(0.,0.,1.));
#605=DIRECTION('ref_axis',(0.707106781186549,-0.707106781186546,0.));
#606=DIRECTION('',(0.,0.,1.));
#607=DIRECTION('center_axis',(1.,0.,0.));
#608=DIRECTION('ref_axis',(0.,1.,0.));
#609=DIRECTION('',(0.,-1.,0.));
#610=DIRECTION('',(0.,0.,-1.));
#611=DIRECTION('',(0.,1.,0.));
#612=DIRECTION('center_axis',(-1.,0.,0.));
#613=DIRECTION('ref_axis',(0.,0.,-1.));
#614=DIRECTION('center_axis',(0.,0.,1.));
#615=DIRECTION('ref_axis',(1.,0.,0.));
#616=DIRECTION('',(-1.,0.,0.));
#617=DIRECTION('center_axis',(0.,0.,1.));
#618=DIRECTION('ref_axis',(-0.707106781186549,-0.707106781186546,0.));
#619=DIRECTION('',(0.,1.,0.));
#620=DIRECTION('center_axis',(0.,0.,1.));
#621=DIRECTION('ref_axis',(-0.707106781186548,0.707106781186548,0.));
#622=DIRECTION('',(1.,0.,0.));
#623=DIRECTION('center_axis',(0.,0.,1.));
#624=DIRECTION('ref_axis',(0.707106781186548,0.707106781186548,0.));
#625=DIRECTION('center_axis',(0.,0.,1.));
#626=DIRECTION('ref_axis',(-0.707106781186549,-0.707106781186546,0.));
#627=DIRECTION('center_axis',(0.,0.,-1.));
#628=DIRECTION('ref_axis',(-0.707106781186549,-0.707106781186546,0.));
#629=DIRECTION('',(0.,0.,-1.));
#630=DIRECTION('',(0.,0.,1.));
#631=DIRECTION('center_axis',(-1.,0.,0.));
#632=DIRECTION('ref_axis',(0.,-1.,0.));
#633=DIRECTION('',(0.,-1.,0.));
#634=DIRECTION('',(0.,0.,1.));
#635=DIRECTION('center_axis',(1.,0.,0.));
#636=DIRECTION('ref_axis',(0.,0.,1.));
#637=DIRECTION('center_axis',(0.,0.,1.));
#638=DIRECTION('ref_axis',(1.,0.,0.));
#639=DIRECTION('center_axis',(0.,0.,-1.));
#640=DIRECTION('ref_axis',(0.707106781186548,0.707106781186548,0.));
#641=DIRECTION('',(0.,1.,0.));
#642=DIRECTION('',(-1.,0.,0.));
#643=DIRECTION('',(0.,-1.,0.));
#644=DIRECTION('center_axis',(0.,0.,-1.));
#645=DIRECTION('ref_axis',(-0.707106781186548,0.707106781186548,0.));
#646=DIRECTION('',(-1.,0.,0.));
#647=DIRECTION('center_axis',(0.,0.,1.));
#648=DIRECTION('ref_axis',(0.707106781186548,0.707106781186548,0.));
#649=DIRECTION('',(0.,0.,1.));
#650=DIRECTION('',(0.,0.,1.));
#651=DIRECTION('center_axis',(0.,1.,0.));
#652=DIRECTION('ref_axis',(-1.,0.,0.));
#653=DIRECTION('',(0.,0.,-1.));
#654=DIRECTION('',(1.,0.,0.));
#655=DIRECTION('',(0.,0.,-1.));
#656=DIRECTION('',(-1.,0.,0.));
#657=DIRECTION('',(0.,0.,1.));
#658=DIRECTION('',(1.,0.,0.));
#659=DIRECTION('center_axis',(0.,0.,1.));
#660=DIRECTION('ref_axis',(-0.707106781186548,0.707106781186548,0.));
#661=DIRECTION('',(0.,0.,-1.));
#662=DIRECTION('center_axis',(0.,0.,1.));
#663=DIRECTION('ref_axis',(1.,0.,0.));
#664=DIRECTION('center_axis',(0.,0.,1.));
#665=DIRECTION('ref_axis',(1.,0.,0.));
#666=DIRECTION('',(0.,0.,-1.));
#667=DIRECTION('center_axis',(0.,0.,-1.));
#668=DIRECTION('ref_axis',(1.,0.,0.));
#669=DIRECTION('center_axis',(0.,0.,1.));
#670=DIRECTION('ref_axis',(1.,0.,0.));
#671=DIRECTION('center_axis',(0.,0.,1.));
#672=DIRECTION('ref_axis',(1.,0.,0.));
#673=DIRECTION('center_axis',(0.,0.,1.));
#674=DIRECTION('ref_axis',(1.,0.,0.));
#675=DIRECTION('',(0.,0.,-1.));
#676=DIRECTION('center_axis',(0.,0.,-1.));
#677=DIRECTION('ref_axis',(1.,0.,0.));
#678=DIRECTION('center_axis',(0.,0.,1.));
#679=DIRECTION('ref_axis',(1.,0.,0.));
#680=DIRECTION('center_axis',(0.,0.,1.));
#681=DIRECTION('ref_axis',(1.,0.,0.));
#682=DIRECTION('center_axis',(0.,0.,1.));
#683=DIRECTION('ref_axis',(1.,0.,0.));
#684=DIRECTION('',(0.,0.,-1.));
#685=DIRECTION('center_axis',(0.,0.,-1.));
#686=DIRECTION('ref_axis',(1.,0.,0.));
#687=DIRECTION('center_axis',(0.,-1.,0.));
#688=DIRECTION('ref_axis',(1.,0.,0.));
#689=DIRECTION('center_axis',(1.,0.,0.));
#690=DIRECTION('ref_axis',(0.,0.,1.));
#691=DIRECTION('',(1.,0.,0.));
#692=DIRECTION('center_axis',(1.,0.,0.));
#693=DIRECTION('ref_axis',(0.,0.,1.));
#694=DIRECTION('center_axis',(-1.,0.,0.));
#695=DIRECTION('ref_axis',(0.,0.,1.));
#696=DIRECTION('center_axis',(1.,0.,0.));
#697=DIRECTION('ref_axis',(0.,0.,1.));
#698=DIRECTION('center_axis',(0.,0.,1.));
#699=DIRECTION('ref_axis',(1.,0.,0.));
#700=DIRECTION('',(0.,-1.,0.));
#701=DIRECTION('',(0.,1.,0.));
#702=DIRECTION('',(1.,0.,0.));
#703=DIRECTION('center_axis',(-1.,0.,0.));
#704=DIRECTION('ref_axis',(0.,0.,-1.));
#705=DIRECTION('',(-1.,0.,0.));
#706=DIRECTION('center_axis',(1.,0.,0.));
#707=DIRECTION('ref_axis',(0.,0.,-1.));
#708=DIRECTION('center_axis',(-1.,0.,0.));
#709=DIRECTION('ref_axis',(0.,0.,-1.));
#710=DIRECTION('center_axis',(1.,0.,0.));
#711=DIRECTION('ref_axis',(0.,0.,-1.));
#712=DIRECTION('center_axis',(0.,0.,1.));
#713=DIRECTION('ref_axis',(1.,0.,0.));
#714=DIRECTION('center_axis',(0.,0.,1.));
#715=DIRECTION('ref_axis',(1.,0.,0.));
#716=DIRECTION('center_axis',(1.,0.,0.));
#717=DIRECTION('ref_axis',(0.,0.,-1.));
#718=DIRECTION('',(0.,1.,0.));
#719=DIRECTION('center_axis',(0.,1.,0.));
#720=DIRECTION('ref_axis',(-1.,0.,0.));
#721=DIRECTION('',(-1.,0.,0.));
#722=DIRECTION('',(0.,0.,1.));
#723=DIRECTION('',(0.,0.,-1.));
#724=DIRECTION('center_axis',(-1.,0.,0.));
#725=DIRECTION('ref_axis',(0.,0.,1.));
#726=DIRECTION('',(0.,-1.,0.));
#727=DIRECTION('center_axis',(1.,0.,0.));
#728=DIRECTION('ref_axis',(0.,1.,0.));
#729=DIRECTION('',(0.,-1.,0.));
#730=DIRECTION('',(0.,-1.,0.));
#731=DIRECTION('center_axis',(1.,0.,0.));
#732=DIRECTION('ref_axis',(0.,1.,0.));
#733=DIRECTION('',(0.,-1.,0.));
#734=DIRECTION('',(0.,0.,-1.));
#735=DIRECTION('center_axis',(0.,1.,0.));
#736=DIRECTION('ref_axis',(-1.,0.,0.));
#737=DIRECTION('',(0.,0.,1.));
#738=DIRECTION('',(1.,0.,0.));
#739=DIRECTION('center_axis',(-1.,0.,0.));
#740=DIRECTION('ref_axis',(0.,-1.,0.));
#741=DIRECTION('',(0.,1.,0.));
#742=DIRECTION('center_axis',(-1.,0.,0.));
#743=DIRECTION('ref_axis',(0.,-1.,0.));
#744=DIRECTION('',(0.,1.,0.));
#745=DIRECTION('',(0.,1.,0.));
#746=DIRECTION('center_axis',(0.,0.,1.));
#747=DIRECTION('ref_axis',(1.,0.,0.));
#748=DIRECTION('',(0.,0.,-1.));
#749=DIRECTION('center_axis',(0.,0.,-1.));
#750=DIRECTION('ref_axis',(1.,0.,0.));
#751=DIRECTION('center_axis',(0.,0.,1.));
#752=DIRECTION('ref_axis',(1.,0.,0.));
#753=DIRECTION('center_axis',(0.,0.,1.));
#754=DIRECTION('ref_axis',(1.,0.,0.));
#755=CARTESIAN_POINT('',(0.,0.,0.));
#756=CARTESIAN_POINT('Origin',(37.5000001490116,11.2500001490116,0.));
#757=CARTESIAN_POINT('',(39.0000001490116,11.2500001490116,9.));
#758=CARTESIAN_POINT('',(37.5000001490116,9.75000014901161,9.));
#759=CARTESIAN_POINT('Origin',(37.5000001490116,11.2500001490116,9.));
#760=CARTESIAN_POINT('',(37.5000001490116,9.75000014901161,0.5));
#761=CARTESIAN_POINT('',(37.5000001490116,9.75000014901161,0.));
#762=CARTESIAN_POINT('',(39.0000001490116,11.2500001490116,0.5));
#763=CARTESIAN_POINT('Origin',(37.5000001490116,11.2500001490116,0.5));
#764=CARTESIAN_POINT('',(39.0000001490116,11.2500001490116,0.));
#765=CARTESIAN_POINT('Origin',(39.0000001490116,10.0000001490116,0.));
#766=CARTESIAN_POINT('',(39.0000001490116,35.5000001490116,0.5));
#767=CARTESIAN_POINT('',(39.0000001490116,24.5000001490116,0.5));
#768=CARTESIAN_POINT('',(39.0000001490116,35.5000001490116,9.));
#769=CARTESIAN_POINT('',(39.0000001490116,35.5000001490116,1.));
#770=CARTESIAN_POINT('',(39.0000001490116,10.0000001490116,9.));
#771=CARTESIAN_POINT('',(39.0000001490116,20.2500001490116,6.25));
#772=CARTESIAN_POINT('Origin',(39.0000001490116,20.2500001490116,4.25));
#773=CARTESIAN_POINT('Origin',(24.5000001490116,24.5000001490116,0.5));
#774=CARTESIAN_POINT('',(11.5000001490116,9.75000014901161,0.5));
#775=CARTESIAN_POINT('',(17.2500001490116,9.75000014901161,0.5));
#776=CARTESIAN_POINT('',(10.0000001490116,11.2500001490116,0.5));
#777=CARTESIAN_POINT('Origin',(11.5000001490116,11.2500001490116,0.5));
#778=CARTESIAN_POINT('',(10.0000001490116,35.5000001490116,0.5));
#779=CARTESIAN_POINT('',(10.0000001490116,24.5000001490116,0.5));
#780=CARTESIAN_POINT('',(11.5000001490116,37.0000001490116,0.5));
#781=CARTESIAN_POINT('Origin',(11.5000001490116,35.5000001490116,0.5));
#782=CARTESIAN_POINT('',(37.5000001490116,37.0000001490116,0.5));
#783=CARTESIAN_POINT('',(31.7500001490116,37.0000001490116,0.5));
#784=CARTESIAN_POINT('Origin',(37.5000001490116,35.5000001490116,0.5));
#785=CARTESIAN_POINT('Origin',(11.5000001490116,11.2500001490116,0.));
#786=CARTESIAN_POINT('',(11.5000001490116,9.75000014901161,9.));
#787=CARTESIAN_POINT('',(10.0000001490116,11.2500001490116,9.));
#788=CARTESIAN_POINT('Origin',(11.5000001490116,11.2500001490116,9.));
#789=CARTESIAN_POINT('',(10.0000001490116,11.2500001490116,0.));
#790=CARTESIAN_POINT('',(11.5000001490116,9.75000014901161,0.));
#791=CARTESIAN_POINT('Origin',(10.0000001490116,39.0000001490116,0.));
#792=CARTESIAN_POINT('',(10.0000001490116,35.5000001490116,9.));
#793=CARTESIAN_POINT('',(10.0000001490116,39.0000001490116,9.));
#794=CARTESIAN_POINT('',(10.0000001490116,35.5000001490116,1.));
#795=CARTESIAN_POINT('',(10.0000001490116,20.2500001490116,2.25));
#796=CARTESIAN_POINT('Origin',(10.0000001490116,20.2500001490116,4.25));
#797=CARTESIAN_POINT('Origin',(24.5000001490116,24.5000001490116,9.));
#798=CARTESIAN_POINT('',(37.500000551343,37.0000003499032,9.));
#799=CARTESIAN_POINT('Origin',(37.5000001490116,35.5000001490116,9.));
#800=CARTESIAN_POINT('',(37.500000551343,11.2500001788139,9.));
#801=CARTESIAN_POINT('',(37.500000551343,30.7500003501773,9.));
#802=CARTESIAN_POINT('',(11.5000001788139,11.2500001788139,9.));
#803=CARTESIAN_POINT('',(37.000000551343,11.2500001788139,9.));
#804=CARTESIAN_POINT('',(11.5000001788139,37.0000001495284,9.));
#805=CARTESIAN_POINT('',(11.5000001788139,17.8750001639128,9.));
#806=CARTESIAN_POINT('Origin',(11.5000001490116,35.5000001490116,9.));
#807=CARTESIAN_POINT('',(17.2500001490116,9.75000014901161,9.));
#808=CARTESIAN_POINT('Origin',(37.5000001490116,35.5000001490116,1.));
#809=CARTESIAN_POINT('',(37.500000551343,37.0000004763902,4.5));
#810=CARTESIAN_POINT('',(37.5000001490116,37.0000001490116,1.));
#811=CARTESIAN_POINT('',(37.500000551343,37.000000551343,2.));
#812=CARTESIAN_POINT('Origin',(13.5000001788139,37.0000001490116,2.));
#813=CARTESIAN_POINT('',(11.5000001788139,37.0000001490116,4.5));
#814=CARTESIAN_POINT('',(11.5000001490116,37.0000001490116,1.));
#815=CARTESIAN_POINT('',(13.7500001788139,37.0000003499014,4.5));
#816=CARTESIAN_POINT('',(19.0000002719462,37.0000001490116,4.5));
#817=CARTESIAN_POINT('',(13.7500001788139,37.0000003499032,2.5));
#818=CARTESIAN_POINT('',(13.7500001788139,37.000000551343,2.));
#819=CARTESIAN_POINT('',(35.250000551343,37.0000003499032,2.5));
#820=CARTESIAN_POINT('',(19.0000001639128,37.0000001490116,2.5));
#821=CARTESIAN_POINT('',(35.250000551343,37.0000004763902,4.5));
#822=CARTESIAN_POINT('',(35.250000551343,37.000000551343,2.));
#823=CARTESIAN_POINT('',(30.7500004582107,37.0000004023314,4.5));
#824=CARTESIAN_POINT('Origin',(11.5000001490116,35.5000001490116,1.));
#825=CARTESIAN_POINT('',(11.5000001788139,37.0000001490116,1.));
#826=CARTESIAN_POINT('Origin',(35.000000551343,26.0000001788139,4.5));
#827=CARTESIAN_POINT('',(34.250000551343,26.0000001788139,6.5));
#828=CARTESIAN_POINT('Origin',(35.000000551343,26.0000001788139,6.5));
#829=CARTESIAN_POINT('',(34.250000551343,26.0000001788139,4.5));
#830=CARTESIAN_POINT('',(34.250000551343,26.0000001788139,4.5));
#831=CARTESIAN_POINT('Origin',(35.000000551343,26.0000001788139,4.5));
#832=CARTESIAN_POINT('Origin',(35.000000551343,26.0000001788139,6.5));
#833=CARTESIAN_POINT('Origin',(14.0000002086163,26.0000001788139,4.5));
#834=CARTESIAN_POINT('',(13.2500002086163,26.0000001788139,6.5));
#835=CARTESIAN_POINT('Origin',(14.0000002086163,26.0000001788139,6.5));
#836=CARTESIAN_POINT('',(13.2500002086163,26.0000001788139,4.5));
#837=CARTESIAN_POINT('',(13.2500002086163,26.0000001788139,4.5));
#838=CARTESIAN_POINT('Origin',(14.0000002086163,26.0000001788139,4.5));
#839=CARTESIAN_POINT('Origin',(14.0000002086163,26.0000001788139,6.5));
#840=CARTESIAN_POINT('Origin',(35.000000551343,13.2500001788139,4.5));
#841=CARTESIAN_POINT('',(34.250000551343,13.2500001788139,6.5));
#842=CARTESIAN_POINT('Origin',(35.000000551343,13.2500001788139,6.5));
#843=CARTESIAN_POINT('',(34.250000551343,13.2500001788139,4.5));
#844=CARTESIAN_POINT('',(34.250000551343,13.2500001788139,4.5));
#845=CARTESIAN_POINT('Origin',(35.000000551343,13.2500001788139,4.5));
#846=CARTESIAN_POINT('Origin',(10.0000001490116,9.75000014901161,0.));
#847=CARTESIAN_POINT('Origin',(10.0000001490116,20.2500001490116,4.25));
#848=CARTESIAN_POINT('',(11.5000001788139,20.2500001490116,2.25));
#849=CARTESIAN_POINT('',(10.0000001490116,20.2500001490116,2.25));
#850=CARTESIAN_POINT('',(11.5000001648441,22.2343136323101,4.5));
#851=CARTESIAN_POINT('Origin',(11.5000001490116,20.2500001490116,4.25));
#852=CARTESIAN_POINT('',(11.5000001648441,18.2656866657132,4.5));
#853=CARTESIAN_POINT('Origin',(11.5000001788139,20.2500001490116,4.25));
#854=CARTESIAN_POINT('Origin',(11.5000001490116,20.2500001490116,4.25));
#855=CARTESIAN_POINT('Origin',(24.5000001490116,24.5000001490116,2.5));
#856=CARTESIAN_POINT('',(35.250000551343,28.2500004023314,2.5));
#857=CARTESIAN_POINT('',(35.250000551343,31.3750002756715,2.5));
#858=CARTESIAN_POINT('',(13.7500001788139,28.2500004023314,2.5));
#859=CARTESIAN_POINT('',(13.7500001788139,25.8750002756715,2.5));
#860=CARTESIAN_POINT('',(30.7500003501773,28.2500004023314,2.5));
#861=CARTESIAN_POINT('Origin',(39.0000001490116,20.2500001490116,4.25));
#862=CARTESIAN_POINT('',(37.5000001490116,20.2500001490116,6.25));
#863=CARTESIAN_POINT('',(39.0000001490116,20.2500001490116,6.25));
#864=CARTESIAN_POINT('',(37.5000003509631,22.2343136323101,4.5));
#865=CARTESIAN_POINT('Origin',(37.500000551343,20.2500001490116,4.25));
#866=CARTESIAN_POINT('',(37.5000003509631,18.2656866657132,4.5));
#867=CARTESIAN_POINT('Origin',(37.5000001490116,20.2500001490116,4.25));
#868=CARTESIAN_POINT('Origin',(37.500000551343,20.2500001490116,4.25));
#869=CARTESIAN_POINT('Origin',(14.0000002086163,13.2500001788139,6.5));
#870=CARTESIAN_POINT('',(13.2500002086163,13.2500001788139,6.5));
#871=CARTESIAN_POINT('Origin',(14.0000002086163,13.2500001788139,6.5));
#872=CARTESIAN_POINT('Origin',(37.5000001490116,20.2500001490116,4.25));
#873=CARTESIAN_POINT('',(37.500000551343,28.1250004209578,4.5));
#874=CARTESIAN_POINT('Origin',(37.000000551343,11.2500001788139,2.));
#875=CARTESIAN_POINT('',(37.500000551343,11.2500001788139,4.5));
#876=CARTESIAN_POINT('',(11.5000001788139,11.2500001788139,4.5));
#877=CARTESIAN_POINT('',(30.7500004582107,11.2500001788139,4.5));
#878=CARTESIAN_POINT('',(11.5000001788139,11.2500001788139,2.));
#879=CARTESIAN_POINT('',(37.500000551343,11.2500001788139,2.));
#880=CARTESIAN_POINT('Origin',(11.5000001490116,20.2500001490116,4.25));
#881=CARTESIAN_POINT('',(11.5000001788139,15.2500002346933,4.5));
#882=CARTESIAN_POINT('Origin',(11.5000001788139,11.2500001788139,2.));
#883=CARTESIAN_POINT('',(11.5000001788139,15.2500002346933,4.5));
#884=CARTESIAN_POINT('',(11.5000001788139,15.2500002346933,4.5));
#885=CARTESIAN_POINT('Origin',(13.7500001788139,27.2500004023314,2.));
#886=CARTESIAN_POINT('',(13.7500001788139,28.2500004023314,4.5));
#887=CARTESIAN_POINT('',(13.7500001788139,23.250000346452,4.5));
#888=CARTESIAN_POINT('',(13.7500001788139,28.2500004023314,2.));
#889=CARTESIAN_POINT('Origin',(37.000000551343,28.2500004023314,2.));
#890=CARTESIAN_POINT('',(35.250000551343,28.2500004023314,4.5));
#891=CARTESIAN_POINT('',(35.250000551343,28.2500004023314,2.));
#892=CARTESIAN_POINT('',(30.7500004582107,28.2500004023314,4.5));
#893=CARTESIAN_POINT('Origin',(35.250000551343,38.2500004023314,2.));
#894=CARTESIAN_POINT('',(35.250000551343,28.750000346452,4.5));
#895=CARTESIAN_POINT('Origin',(37.500000551343,37.000000551343,2.));
#896=CARTESIAN_POINT('',(37.500000551343,28.1250004209578,4.5));
#897=CARTESIAN_POINT('',(37.500000551343,28.1250004209578,4.5));
#898=CARTESIAN_POINT('Origin',(14.0000002086163,13.2500001788139,4.5));
#899=CARTESIAN_POINT('',(13.2500002086163,13.2500001788139,4.5));
#900=CARTESIAN_POINT('',(13.2500002086163,13.2500001788139,4.5));
#901=CARTESIAN_POINT('Origin',(14.0000002086163,13.2500001788139,4.5));
#902=CARTESIAN_POINT('Origin',(24.5000003650784,19.2500002905726,4.5));
#903=CARTESIAN_POINT('Origin',(35.000000551343,13.2500001788139,6.5));
#904=UNCERTAINTY_MEASURE_WITH_UNIT(LENGTH_MEASURE(0.01),#910,
'DISTANCE_ACCURACY_VALUE',
'Maximum model space distance between geometric entities at asserted c
onnectivities');
#905=UNCERTAINTY_MEASURE_WITH_UNIT(LENGTH_MEASURE(0.01),#910,
'DISTANCE_ACCURACY_VALUE',
'Maximum model space distance between geometric entities at asserted c
onnectivities');
#906=(
GEOMETRIC_REPRESENTATION_CONTEXT(3)
GLOBAL_UNCERTAINTY_ASSIGNED_CONTEXT((#904))
GLOBAL_UNIT_ASSIGNED_CONTEXT((#910,#909,#908))
REPRESENTATION_CONTEXT('','3D')
);
#907=(
GEOMETRIC_REPRESENTATION_CONTEXT(3)
GLOBAL_UNCERTAINTY_ASSIGNED_CONTEXT((#905))
GLOBAL_UNIT_ASSIGNED_CONTEXT((#910,#909,#908))
REPRESENTATION_CONTEXT('','3D')
);
#908=(
NAMED_UNIT(*)
SI_UNIT($,.STERADIAN.)
SOLID_ANGLE_UNIT()
);
#909=(
NAMED_UNIT(*)
PLANE_ANGLE_UNIT()
SI_UNIT($,.RADIAN.)
);
#910=(
LENGTH_UNIT()
NAMED_UNIT(*)
SI_UNIT(.MILLI.,.METRE.)
);
#911=(
LENGTH_UNIT()
NAMED_UNIT(*)
SI_UNIT($,.METRE.)
);
#912=SHAPE_DEFINITION_REPRESENTATION(#913,#914);
#913=PRODUCT_DEFINITION_SHAPE('',$,#916);
#914=SHAPE_REPRESENTATION('',(#542),#906);
#915=PRODUCT_DEFINITION_CONTEXT('part definition',#920,'design');
#916=PRODUCT_DEFINITION('CameraBody','CameraBody v2',#917,#915);
#917=PRODUCT_DEFINITION_FORMATION('',$,#922);
#918=PRODUCT_RELATED_PRODUCT_CATEGORY('CameraBody v2','CameraBody v2',(#922));
#919=APPLICATION_PROTOCOL_DEFINITION('international standard',
'automotive_design',2009,#920);
#920=APPLICATION_CONTEXT(
'Core Data for Automotive Mechanical Design Process');
#921=PRODUCT_CONTEXT('part definition',#920,'mechanical');
#922=PRODUCT('CameraBody','CameraBody v2',$,(#921));
#923=PRESENTATION_STYLE_ASSIGNMENT((#925));
#924=PRESENTATION_STYLE_ASSIGNMENT((#926));
#925=SURFACE_STYLE_USAGE(.BOTH.,#927);
#926=SURFACE_STYLE_USAGE(.BOTH.,#928);
#927=SURFACE_SIDE_STYLE('',(#929));
#928=SURFACE_SIDE_STYLE('',(#930));
#929=SURFACE_STYLE_FILL_AREA(#931);
#930=SURFACE_STYLE_FILL_AREA(#932);
#931=FILL_AREA_STYLE('Steel - Satin',(#933));
#932=FILL_AREA_STYLE('Opaque(160,160,160)',(#934));
#933=FILL_AREA_STYLE_COLOUR('Steel - Satin',#935);
#934=FILL_AREA_STYLE_COLOUR('Opaque(160,160,160)',#936);
#935=COLOUR_RGB('Steel - Satin',0.627450980392157,0.627450980392157,0.627450980392157);
#936=COLOUR_RGB('Opaque(160,160,160)',0.627450980392157,0.627450980392157,
0.627450980392157);
ENDSEC;
END-ISO-10303-21;
